<?xml version="1.0"?>
<svg width="233" height="113" xmlns="http://www.w3.org/2000/svg" xmlns:svg="http://www.w3.org/2000/svg">
 <!-- Created with SVG-edit - https://github.com/SVG-Edit/svgedit-->
 <g class="layer">
  <title>Layer 1</title>
  <g id="svg_1">
   <svg height="288" id="svg_339" viewBox="0 0 288 288" width="288" x="-28.4" xmlns="http://www.w3.org/2000/svg" y="-77.3">
    <g id="svg_340">
     <svg class="layer" height="288" id="svg_507" viewBox="0 0 480 287" width="288" x="-1" xmlns="http://www.w3.org/2000/svg" y="-1">
      <path class="colorc7a559 svgShape colorf7bf42" d="m242,34l-2.06,1.97l-1.94,1.64l-2,1.61l-1,0.86l-2,1.84l-1,0.86l-2,1.61l-2,1.69l-2,1.89l-1,0.95l-2,1.69l-2,1.61l-1,0.86l-2,1.84l-1,0.86l-2,1.61l-2,1.69l-2,1.89l-1,0.95l-2,1.69l-2,1.61l-1,0.86l-2,1.84l-1,0.86l-2,1.61l-2,1.69l-2,1.89l-1,0.95l-2,1.69l-0.97,0.78l-0.92,0.83l-0.78,0.86l-0.94,1.86l-0.08,1.56l0.69,1.5l1.5,-0.36l0.56,-0.36l1,-0.59l0.94,-0.72l2,-1.58l1,-0.78l2,-1.69l1,-0.95l2,-1.89l1,-0.86l2,-1.61l1,-0.83l1,-0.86l2,-1.84l1,-0.86l2,-1.61l2,-1.69l2,-1.89l1,-0.95l2,-1.69l2,-1.61l1,-0.86l2,-1.89l1,-0.95l2,-1.69l2,-1.61l1,-0.86l2,-1.84l1,-0.86l2,-1.61l2,-1.69l2,-1.84l1.94,-1.58l1.56,-0.97l1.5,-0.53l0.78,1.42l0.53,0.41l0.8,0.84l0.92,0.72l1.97,1.69l2,1.84l2,1.69l2,1.5l1.94,1.2l1.56,0.58l1.5,0.11l0.72,-1.5l0.03,-0.56l0.19,-1l0.03,-0.94l0.03,-1l0,-8l9,0l0,20l0.11,2l0.22,1l0.39,1l0.61,1l1.7,2l1.97,1.92l2,1.69l1,0.78l2,1.69l2,1.89l1,0.95l2,1.69l2,1.61l1,0.86l2,1.84l1.94,1.58l1.56,0.97l1.5,0.53l0.69,-1.5l-0.08,-1.56l-0.94,-1.94l-0.78,-1l-1.89,-1.92l-2,-1.69l-1,-0.78l-2,-1.69l-1,-0.95l-2,-1.89l-2,-1.69l-1,-0.78l-2,-1.69l-1.97,-1.92l-1.7,-2l-1,-2l-0.22,-1l-0.08,-1l-0.03,-1l0,-21l-1,-1l-11,0l-2,0.11l-0.97,0.22l-0.92,0.39l-0.78,0.61l-0.61,0.78l-0.39,0.92l-0.22,0.97l-0.11,2l0,5l-2.06,-2.03l-1,-0.94l-1.94,-1.64l-1,-0.78l-1,-0.83l-2,-1.72l-1,-0.81l-0.94,-0.75l-1.56,-0.97l-1.5,-0.53z" fill="#f7bf42" id="svg_672"/>
      <path class="color695626 svgShape colorfff" d="m243,34l1,1l-1,-1m14,0l1,1l-1,-1m-17,1l1,1l-1,-1m16,0l1,1l-1,-1m-17,1l1,1l-1,-1m-1,1l1,1l-1,-1m9,0l1,1l-1,-1m1,1l1,1l-1,-1m1,1l1,1l-1,-1m-16,2l1,1l-1,-1m7,0l1,1l-1,-1m-8,1l1,1l-1,-1m7,0l1,1l-1,-1m-8,1l1,1l-1,-1m16,0l1,1l-1,-1m1,1l1,1l-1,-1m7,0l1,1l-1,-1m-6,1l1,1l-1,-1m-16,2l1,1l-1,-1m-8,1l1,1l-1,-1m7,0l1,1l-1,-1m-8,1l1,1l-1,-1m7,0l1,1l-1,-1m23,0l1,1l-1,-1m-31,1l1,1l-1,-1m32,0l1,1l-1,-1m1,1l1,1l-1,-1m4,0l1,1l-1,-1m-2,1l1,1l-1,-1m-32,1l1,1l-1,-1m-8,1l1,1l-1,-1m7,0l1,1l-1,-1m-8,1l1,1l-1,-1m7,0l1,1l-1,-1m-8,1l1,1l-1,-1m2,4l1,1l-1,-1m-8,1l1,1l-1,-1m7,0l1,1l-1,-1m-8,1l1,1l-1,-1m7,0l1,1l-1,-1m-8,1l1,1l-1,-1m62,0l1,1l-1,-1m1,1l1,1l-1,-1m7,0l1,1l-1,-1m-6,1l1,1l-1,-1m7,0l1,1l-1,-1m1,1l1,1l-1,-1m-70,1l1,1l-1,-1m-8,1l1,1l-1,-1m7,0l1,1l-1,-1m-8,1l1,1l-1,-1m77,1l1,1l-1,-1m1,1l1,1l-1,-1m7,0l1,1l-1,-1m-6,1l1,1l-1,-1m7,0l1,1l-1,-1m-84,1l1,1l-1,-1m85,0l1,1l-1,-1m-93,1l1,1l-1,-1m7,0l1,1l-1,-1m-8,1l1,1l-1,-1m7,0l1,1l-1,-1m-8,1l1,1l-1,-1m93,1l1,1l-1,-1m7,0l1,1l-1,-1m-6,1l1,1l-1,-1m7,0l1,1l-1,-1m1,1l1,1l-1,-1m-100,1l1,1l-1,-1m101,0l0,3l0.69,-0.75l0,-1.5l-0.69,-0.75m-102,1l1,1l-1,-1m-1,1l1,1l-1,-1m100,1l1,1l-1,-1m2,0l1,1l-1,-1z" fill="#fff" id="svg_671"/>
      <path class="color166017 svgShape color00c75a" d="m364,99l0.78,0.72l0.53,0.03l0.75,0.19l0.91,0.03l2.03,0.03l-0.78,-0.72l-0.53,-0.03l-0.75,-0.19l-0.91,-0.03l-2.03,-0.03z" fill="#00c740" id="svg_670"/>
      <path class="color06c546 svgShape color00c75a" d="m363,100l-1,1l0,31l-2.06,0l-1.94,-0.03l-1,-0.08l-1,-0.2l-2,-0.69l-1,-0.39l-2,-0.5l-2,-0.03l-2,0.31l-1,0.22l-2,0.39l-2,0.42l-2,0.66l-2,1l-2,1.25l-2,1.36l-1,0.73l-1.92,1.66l-0.86,0.95l-1.53,1.97l-1.27,2l-1,2l-0.39,1l-0.61,2l-0.34,2l-0.08,2l0,6l0.08,2l0.14,1l0.2,1l0.27,1l0.7,2l0.44,1l0.45,1l1.11,1.97l0.64,0.95l1.39,1.69l1.66,1.53l0.95,0.69l0.97,0.73l2,1.16l1,0.45l1,0.44l2,0.7l1,0.27l2,0.34l1,0.05l1,0.03l2,-0.08l2,-0.31l1,-0.22l2,-0.39l1.97,-0.42l1.7,-0.64l0.61,-0.52l0.36,-0.25l0.36,-1.17l2,-0.06l1,-0.19l0.5,-0.03l1.5,-0.72l0,2l1,1l2.06,0.03l1,0.05l1.88,0.34l2.06,0.58l0.72,-1.5l0.03,-0.56l0.19,-1l0.03,-0.94l0.03,-1l0,-71l-1,-1l-7,0m-271,4l0.08,1.5l0.39,1.56l0.72,1.94l0.42,1l0.72,2l0.34,1l0.66,2l0.34,1l0.36,1l0.36,1l0.42,1l0.8,2l0.78,2l0.8,2l0.42,1l0.78,2l0.8,2l0.42,1l0.78,2l0.86,2l0.53,1l0.97,2l0.42,1l0.44,1l0.78,2l0.86,2l0.53,1l0.97,2l0.42,1l0.44,1l0.78,2l0.44,1l0.42,1l0.97,2l0.56,1l0.44,1l0.56,1l0.44,1l1,2l0.56,1l0.44,1l0.53,1l0.42,1l0.47,1l0.42,1l1,2l0.58,1l1.11,2l0.5,1l1.11,1.94l0.95,1.56l0.69,1.5l1.44,-0.17l1.12,0l1.44,0.17l1.22,-1.5l0.97,-1.56l0.56,-0.94l0.47,-1l0.56,-1l0.44,-1l0.56,-1l0.44,-1l0.56,-1l0.44,-1l1,-2l0.56,-1l0.44,-1l0.56,-1l0.44,-1l0.56,-1l0.44,-1l0.56,-1l0.44,-1l1,-2l0.53,-1l0.42,-1l0.44,-1l0.78,-2l0.44,-1l0.42,-1l0.53,-1l1,-2l0.44,-1l0.56,-1l0.44,-1l0.56,-1l0.44,-1l0.56,-1l0.44,-1l0.56,-1l0.44,-1l0.56,-1l0.44,-1l0.56,-1l1,-2l0.44,-1l0.56,-1l0.44,-1l1,-2l0.53,-1l0.42,-1l0.44,-1l0.78,-2l0.86,-2l0.53,-1l0.44,-1l0.56,-1l0.44,-1l1,-2l0.53,-1l0.86,-2l0.7,-2l0.27,-1l0.2,-0.94l0.19,-1.56l0.03,-1.5l-1,-1l-1.5,0.03l-1.53,0.3l-0.89,0.39l-1.61,1.39l-1.19,1.89l-0.89,2l-0.78,2l-0.86,2l-0.53,1l-0.44,1l-0.56,1l-0.44,1l-0.53,1l-0.86,2l-0.78,2l-0.44,1l-0.42,1l-0.97,2l-0.56,1l-1,2l-0.44,1l-0.56,1l-0.44,1l-0.56,1l-0.97,2l-0.42,1l-0.44,1l-0.78,2l-0.86,2l-0.53,1l-1,2l-0.44,1l-0.56,1l-1,2l-0.44,1l-0.56,1l-0.44,1l-0.56,1l-0.44,1l-1,2l-0.56,1l-0.44,1l-0.56,1l-0.44,1l-0.53,1l-0.39,0.94l-0.58,1.56l-0.28,1.5l-2,0l-0.28,-1.5l-0.58,-1.56l-0.39,-0.94l-0.53,-1l-0.44,-1l-0.56,-1l-0.44,-1l-0.53,-1l-0.42,-1l-0.44,-1l-0.78,-2l-0.42,-1l-0.8,-2l-0.78,-2l-0.42,-1l-0.8,-2l-0.78,-2l-0.86,-2l-0.5,-1l-0.86,-2l-0.78,-2l-0.86,-2l-0.5,-1l-0.86,-2l-0.78,-2l-0.86,-2l-0.5,-1l-0.86,-2l-0.78,-2l-0.86,-2l-0.5,-1l-0.86,-2l-0.78,-2l-0.86,-2l-0.5,-1l-0.89,-2l-0.42,-1l-0.94,-1.94l-0.33,-0.56l-0.67,-1.5l-1.5,0l-1.56,0.08l-1.94,0.39l-1.94,0.72l-0.56,0.31l-1.5,0.5z" fill="#00c740" id="svg_669"/>
      <path class="color166017 svgShape color00c75a" d="m93,103l1,1l-1,-1m8,0l1,1l-1,-1z" fill="#00c740" id="svg_668"/>
      <path class="color51d039 svgShape color2cd412" d="m163.33,103.67l0,0.33l0.34,0.33l0,-0.33l-0.34,-0.33z" fill="#2cd412" id="svg_667"/>
      <path class="color166017 svgShape color00c75a" d="m371,103l0,71l0.72,-0.78l0.03,-0.53l0.19,-0.8l0.03,-0.92l0.03,-0.97l0,-63l-0.03,-0.97l-0.03,-0.92l-0.19,-0.8l-0.03,-0.53l-0.72,-0.78m-208,2l1,1l-1,-1m24,1l1,1l-1,-1z" fill="#00c740" id="svg_666"/>
      <path class="color51d039 svgShape color2cd412" d="m186,116l3.06,0l1.94,-0.11l1.92,-0.61l1.58,-1.39l1,-1.89l0.31,-2l-0.17,-0.97l-0.97,-1.7l-1.7,-1l-0.97,-0.22l-2,-0.03l-2,0.42l-1.89,1l-1.39,1.58l-0.53,1.92l0.09,1l0.58,1.94l0.17,0.56l0.97,1.5m113,-9l-1,-1l-3.06,0l-1.94,0.11l-1.97,0.61l-0.92,0.61l-0.78,0.78l-1,1.89l-0.19,1l0,1l0.19,0.97l1,1.7l1.7,1l0.97,0.22l1,0.08l2,-0.08l0.97,-0.22l0.92,-0.39l1.39,-1.39l0.39,-0.92l0.3,-1.97l0.03,-0.94l0,-3.06z" fill="#2cd412" id="svg_665"/>
      <path class="color166017 svgShape color00c75a" d="m103,107l1,1l-1,-1m59,0l1,1l-1,-1m23,0l1,1l-1,-1m104,0l1,1l-1,-1m-105,1l1,1l-1,-1m104,0l1,1l-1,-1m11,0l0,4l0.72,-0.78l0,-0.5l0.17,-0.72l-0.17,-1.22l-0.72,-0.78m-206,1l1,1l-1,-1m11,0l1,1l-1,-1m49,1l1,1l-1,-1m30.33,0.67l0,0.33l0.34,0.33l0,-0.33l-0.34,-0.33m104,0l0,0.66l0.34,0l0,-0.66l-0.34,0m-182.33,0.33l1,1l-1,-1m-11,1l1,1l-1,-1m58,0l1,1l-1,-1m43,0l1,1l-1,-1m-11,1l1,1l-1,-1m-78,1l1,1l-1,-1m45,0l1,1l-1,-1m8,0l1,1l-1,-1m-64,1l1,1l-1,-1m12,1l1,1l-1,-1m43,0l1,1l-1,-1m8,0l1,1l-1,-1z" fill="#00c740" id="svg_664"/>
      <path class="color695626 svgShape colorfff" d="m187,116l0.78,0.72l0.47,0.03l0.81,0.19l1.94,0.06l-0.78,-0.72l-0.47,-0.03l-0.81,-0.19l-1.94,-0.06z" fill="#fff" id="svg_663"/>
      <path class="color166017 svgShape color00c75a" d="m191,116l1,1l-1,-1m100,0l0.78,0.72l0.47,0.03l0.81,0.19l1.94,0.06l-0.78,-0.72l-0.47,-0.03l-0.81,-0.19l-1.94,-0.06m-134,2l1,1l-1,-1m-60,2l1,1l-1,-1m59,0l1,1l-1,-1m-47,1l1,1l-1,-1m39,0l1,1l-1,-1m-38,2l1,1l-1,-1m37,0l1,1l-1,-1m-48,2l1,1l-1,-1m12,0l1,1l-1,-1m35,0l1,1l-1,-1m-1,2l1,1l-1,-1m8,0l1,1l-1,-1m-41,1l1,1l-1,-1m32,1l1,1l-1,-1m-43,1l1,1l-1,-1m12,0l1,1l-1,-1m108,0l1,1l-1,-1z" fill="#00c740" id="svg_662"/>
      <path class="color51d039 svgShape color2cd412" d="m222,130l0.72,0.72l0.53,0.03l1.75,0.25l-0.72,-0.72l-0.53,-0.03l-1.75,-0.25z" fill="#2cd412" id="svg_661"/>
      <path class="color166017 svgShape color00c75a" d="m225,130l1,1l-1,-1z" fill="#00c740" id="svg_660"/>
      <path class="colorc7a559 svgShape colorf7bf42" d="m259,130l0.72,0.72l0.53,0.03l1.75,0.25l-0.72,-0.72l-0.53,-0.03l-1.75,-0.25z" fill="#f7bf42" id="svg_659"/>
      <path class="color166017 svgShape color00c75a" d="m344,130l0.72,0.72l0.53,0.03l1.75,0.25l-0.72,-0.72l-0.53,-0.03l-1.75,-0.25m9.67,0.33l0.33,0.34l0.33,0l-0.33,-0.34l-0.33,0m7.66,0.34l0,0.66l0.34,0l0,-0.33l-0.34,-0.33m-210.33,0.33l1,1l-1,-1m35,0l0.72,0.72l0.53,0.03l1.75,0.25l-0.72,-0.72l-0.53,-0.03l-1.75,-0.25z" fill="#00c740" id="svg_658"/>
      <path class="color51d039 svgShape color2cd412" d="m185,132l0,2.06l-0.03,1l-0.05,0.94l-0.31,2l-0.22,1l-0.31,2l-0.05,1l-0.03,2l0,17l0.03,1l0.05,1l0.31,2l0.22,1l0.31,2l0.05,1l0.03,2l0,1l0.06,1.94l0.19,1l0.03,0.56l0.72,1.5l2.06,-0.56l1.88,-0.13l1.56,0.27l1.5,0.42l0,-35l0.03,-2l0.05,-1l0.31,-2l0.39,-1.94l0.19,-1.56l0.03,-1.5l-1.5,-0.08l-0.56,-0.11l-1.94,-0.2l-1,0l-1.94,0.2l-0.56,0.11l-1.5,0.08z" fill="#2cd412" id="svg_657"/>
      <path class="color166017 svgShape color00c75a" d="m190,131l0.78,0.72l0.47,0.03l0.81,0.19l1.94,0.06l-0.78,-0.72l-0.47,-0.03l-0.81,-0.19l-1.94,-0.06z" fill="#00c740" id="svg_656"/>
      <path class="color695626 svgShape colorfff" d="m219,131l1,1l-1,-1z" fill="#fff" id="svg_655"/>
      <path class="color96e133 svgShape color8fef2a" d="m218,132l0,2.06l0.08,1.94l0.17,1l0.22,1l0.78,2l0.53,1l1,2l0.44,1l0.56,1l0.44,1l0.56,1l0.44,1l1,2l0.56,1l0.44,1l0.56,1l0.44,1l0.56,1l1,2l0.44,1l0.56,1l0.44,1l0.56,1l0.44,1l0.56,1l1,2l0.44,1l1.03,1.89l0.56,0.78l0.97,0.97l1.22,0.36l0.11,2.06l0.2,1l0.75,1.88l0.88,1.56l1.06,1.5l1.5,-0.44l0.53,-0.25l0.94,-0.42l1.56,-1.2l0.64,-0.8l1.19,-1.89l1.03,-2l0.75,-2l0.33,-0.97l0.95,-1.81l1.19,-1.61l1.14,-1.69l1.03,-1.92l0.44,-1l1,-2l0.56,-1l0.44,-1l0.56,-1l1,-2l0.44,-1l0.56,-1l0.44,-1l0.56,-1l0.97,-2l0.42,-1l0.44,-1l0.78,-2l0.86,-2l0.97,-2l0.53,-1l0.78,-2l0.22,-0.94l0.22,-1.56l0.03,-1.5l-1,-1l-4,0l-1,1.5l-0.22,0.56l-1,1.94l-1,2l-0.53,1l-0.42,1l-0.44,1l-0.78,2l-0.86,2l-0.53,1l-0.44,1l-0.56,1l-1,2l-0.44,1l-1,2l-0.56,1l-0.44,1l-0.56,1l-0.44,1l-0.56,1l-0.44,1l-0.56,1l-0.97,1.94l-0.42,1l-0.33,0.56l-0.5,1.5l-1.22,-1.5l-0.97,-1.56l-0.56,-0.94l-0.47,-1l-0.56,-1l-0.44,-1l-0.56,-1l-0.44,-1l-0.56,-1l-0.44,-1l-1,-2l-0.53,-1l-0.42,-1l-0.44,-1l-0.78,-2l-0.44,-1l-0.42,-1l-0.53,-1l-1,-2l-0.44,-1l-0.56,-1l-0.44,-1l-0.56,-1l-0.44,-1l-0.97,-1.94l-0.59,-1l-0.22,-0.56l-1,-1.5l-2.06,0l-1,0.03l-0.94,0.05l-1.94,0.34l-2.06,0.58z" fill="#8fef2a" id="svg_654"/>
      <path class="color166017 svgShape color00c75a" d="m258,131l1,1l-1,-1z" fill="#00c740" id="svg_653"/>
      <path class="color695626 svgShape colorfff" d="m263,131l1,1l-1,-1z" fill="#fff" id="svg_652"/>
      <path class="color166017 svgShape color00c75a" d="m290.67,131.33l0.33,0.34l0.33,0l-0.33,-0.34l-0.33,0z" fill="#00c740" id="svg_651"/>
      <path class="color51d039 svgShape color2cd412" d="m289,132l-0.08,1.5l-0.14,0.56l-0.17,1l-0.22,0.94l-0.28,2l0,1l0.28,2l0.22,1l0.31,2l0.05,1l0.03,1l0,8l-0.03,2l-0.05,1l-0.31,2l-0.22,1l-0.31,2l-0.05,1l-0.03,2l0,3l0.03,1l0.05,1l0.31,2l0.22,0.94l0.17,1l0.14,0.56l0.08,1.5l2.06,0l1,0.03l0.94,0.05l1.94,0.34l2.06,0.58l0,-11l0.03,-2l0.05,-1l0.31,-2l0.22,-1l0.31,-2l0.05,-1l0.03,-2l0,-22l-1.5,-0.81l-0.56,-0.16l-1.94,-0.53l-1.94,-0.03l-1.56,0.28l-1.5,0.25z" fill="#2cd412" id="svg_650"/>
      <path class="color166017 svgShape color00c75a" d="m294,131l0.72,0.72l0.53,0.03l1.75,0.25l-0.72,-0.72l-0.53,-0.03l-1.75,-0.25z" fill="#00c740" id="svg_649"/>
      <path class="color51d039 svgShape color2cd412" d="m354,131l0.72,0.72l0.53,0.03l1.75,0.25l-0.72,-0.72l-0.53,-0.03l-1.75,-0.25z" fill="#2cd412" id="svg_648"/>
      <path class="color166017 svgShape color00c75a" d="m357.67,131.33l0.33,0.34l0.33,0l-0.33,-0.34l-0.33,0z" fill="#00c740" id="svg_647"/>
      <path class="color695626 svgShape colorfff" d="m264.33,132.67l0,0.66l0.34,0l0,-0.66l-0.34,0z" fill="#fff" id="svg_646"/>
      <path class="color166017 svgShape color00c75a" d="m297,132l1,1l-1,-1m-113,1l0,6l0.72,-0.78l0.03,-0.53l0.19,-0.8l0,-1.78l-0.19,-0.8l-0.03,-0.53l-0.72,-0.78z" fill="#00c740" id="svg_645"/>
      <path class="colorc7a559 svgShape colorf7bf42" d="m217.33,133.67l0,0.33l0.34,0.33l0,-0.33l-0.34,-0.33z" fill="#f7bf42" id="svg_644"/>
      <path class="color695626 svgShape colorfff" d="m227,133l1,1l-1,-1z" fill="#fff" id="svg_643"/>
      <path class="color166017 svgShape color00c75a" d="m257,133l1,1l-1,-1m31,0l0,3l0.69,-0.75l0,-1.5l-0.69,-0.75m49,0l1,1l-1,-1m-2,1l1,1l-1,-1m-220,1l1,1l-1,-1m34,0l1,1l-1,-1z" fill="#00c740" id="svg_642"/>
      <path class="color695626 svgShape colorfff" d="m217,135l1,1l-1,-1m11,0l1,1l-1,-1z" fill="#fff" id="svg_641"/>
      <path class="color166017 svgShape color00c75a" d="m256,135l1,1l-1,-1m78,0l1,1l-1,-1z" fill="#00c740" id="svg_640"/>
      <path class="color96e133 svgShape color8fef2a" d="m193,136l0,40l0.72,-0.78l0.03,-0.53l0.19,-0.8l0.03,-0.92l0.03,-1.97l0,-30l-0.03,-1.97l-0.03,-0.92l-0.19,-0.8l-0.03,-0.53l-0.72,-0.78z" fill="#8fef2a" id="svg_639"/>
      <path class="color51d039 svgShape color2cd412" d="m346,136l0.78,0.72l0.53,0.03l0.8,0.19l0.92,0.03l1.97,0.03l5,0l-0.78,-0.72l-0.53,-0.03l-0.8,-0.19l-0.92,-0.03l-1.97,-0.03l-5,0z" fill="#2cd412" id="svg_638"/>
      <path class="color166017 svgShape color00c75a" d="m104,137l1,1l-1,-1m12,0l1,1l-1,-1z" fill="#00c740" id="svg_637"/>
      <path class="color695626 svgShape colorfff" d="m229,137l1,1l-1,-1z" fill="#fff" id="svg_636"/>
      <path class="color166017 svgShape color00c75a" d="m255,137l1,1l-1,-1z" fill="#00c740" id="svg_635"/>
      <path class="color050101 svgShape colorfff" d="m362,168l0,-23l-0.03,-2l-0.3,-1.97l-0.39,-0.92l-1.39,-1.39l-1.89,-0.61l-2,-0.19l-2,-0.31l-1,-0.22l-2,-0.31l-2,-0.05l-1,0.05l-2,0.39l-2,0.81l-1,0.58l-1,0.61l-1.97,1.61l-0.95,0.95l-1.61,1.97l-0.61,1l-1,2l-0.39,1l-0.22,1l-0.17,1l-0.08,2l0,1l0.03,2l0.05,1l0.31,2l0.25,1l0.53,2l0.3,1l1.03,2l1.58,1.97l0.95,0.95l1.97,1.58l2,1l2,0.42l2,0.16l2,0.23l2,0.08l1,-0.08l2,-0.23l2,-0.19l1,-0.2l1.94,-0.72l0.56,-0.3l1.5,-0.67z" fill="#fff" id="svg_634"/>
      <path class="color166017 svgShape color00c75a" d="m353,137l0.78,0.72l0.47,0.03l0.81,0.19l1.94,0.06l-0.78,-0.72l-0.47,-0.03l-0.81,-0.19l-1.94,-0.06m-213,1l1,1l-1,-1m122,0l1,1l-1,-1m81,0l1,1l-1,-1m-238,1l1,1l-1,-1z" fill="#00c740" id="svg_633"/>
      <path class="color695626 svgShape colorfff" d="m230,139l1,1l-1,-1z" fill="#fff" id="svg_632"/>
      <path class="color166017 svgShape color00c75a" d="m139,140l1,1l-1,-1z" fill="#00c740" id="svg_631"/>
      <path class="color695626 svgShape colorfff" d="m261,140l1,1l-1,-1z" fill="#fff" id="svg_630"/>
      <path class="color166017 svgShape color00c75a" d="m340,140l1,1l-1,-1z" fill="#00c740" id="svg_629"/>
      <path class="color695626 svgShape colorfff" d="m231,141l1,1l-1,-1z" fill="#fff" id="svg_628"/>
      <path class="color96e133 svgShape color8fef2a" d="m288,141l0,19l0.72,-0.78l0.03,-0.53l0.19,-0.8l0.03,-0.92l0.03,-0.97l0,-11l-0.03,-0.97l-0.03,-0.92l-0.19,-0.8l-0.03,-0.53l-0.72,-0.78z" fill="#8fef2a" id="svg_627"/>
      <path class="color166017 svgShape color00c75a" d="m328,141l1,1l-1,-1m11,0l1,1l-1,-1m-221,1l1,1l-1,-1m20,0l1,1l-1,-1z" fill="#00c740" id="svg_626"/>
      <path class="color695626 svgShape colorfff" d="m253,142l1,1l-1,-1m7,0l1,1l-1,-1z" fill="#fff" id="svg_625"/>
      <path class="color166017 svgShape color00c75a" d="m338,142l1,1l-1,-1m-193,1l1,1l-1,-1m87,0l1,1l-1,-1m-113,1l1,1l-1,-1m18,0l1,1l-1,-1z" fill="#00c740" id="svg_624"/>
      <path class="color695626 svgShape colorfff" d="m252,144l1,1l-1,-1z" fill="#fff" id="svg_623"/>
      <path class="color166017 svgShape color00c75a" d="m233,145l1,1l-1,-1m26,0l1,1l-1,-1m77,0l1,1l-1,-1m-228,1l1,1l-1,-1m28,0l1,1l-1,-1z" fill="#00c740" id="svg_622"/>
      <path class="color695626 svgShape colorfff" d="m251,146l1,1l-1,-1z" fill="#fff" id="svg_621"/>
      <path class="color166017 svgShape color00c75a" d="m120,147l1,1l-1,-1m138,0l1,1l-1,-1m67,0l1,1l-1,-1m-216,1l1,1l-1,-1m26,0l1,1l-1,-1m88,0l1,1l-1,-1z" fill="#00c740" id="svg_620"/>
      <path class="colorc7a559 svgShape colorf7bf42" d="m234,148l1,1l-1,-1z" fill="#f7bf42" id="svg_619"/>
      <path class="color695626 svgShape colorfff" d="m250,148l1,1l-1,-1z" fill="#fff" id="svg_618"/>
      <path class="color166017 svgShape color00c75a" d="m121,149l1,1l-1,-1m21,0l1,1l-1,-1z" fill="#00c740" id="svg_617"/>
      <path class="color695626 svgShape colorfff" d="m257,149l1,1l-1,-1z" fill="#fff" id="svg_616"/>
      <path class="color166017 svgShape color00c75a" d="m134,150l1,1l-1,-1m90,0l1,1l-1,-1z" fill="#00c740" id="svg_615"/>
      <path class="color51d039 svgShape color2cd412" d="m235,150l1,1l-1,-1z" fill="#2cd412" id="svg_614"/>
      <path class="color166017 svgShape color00c75a" d="m249,150l1,1l-1,-1m75,0l0,9l0.72,-0.78l0.03,-0.53l0.19,-0.8l0.03,-0.92l0.03,-1.97l-0.06,-1.89l-0.19,-0.8l-0.03,-0.53l-0.72,-0.78z" fill="#00c740" id="svg_613"/>
      <path class="color695626 svgShape colorfff" d="m256,151l1,1l-1,-1z" fill="#fff" id="svg_612"/>
      <path class="color166017 svgShape color00c75a" d="m122,152l1,1l-1,-1m11,0l1,1l-1,-1z" fill="#00c740" id="svg_611"/>
      <path class="color695626 svgShape colorfff" d="m225,152l1,1l-1,-1m11,0l1,1l-1,-1z" fill="#fff" id="svg_610"/>
      <path class="color166017 svgShape color00c75a" d="m248,152l1,1l-1,-1m86,0l0,3l0.69,-0.75l0,-1.5l-0.69,-0.75z" fill="#00c740" id="svg_609"/>
      <path class="color51d039 svgShape color2cd412" d="m255,153l1,1l-1,-1z" fill="#2cd412" id="svg_608"/>
      <path class="color166017 svgShape color00c75a" d="m123,154l1,1l-1,-1m9,0l1,1l-1,-1z" fill="#00c740" id="svg_607"/>
      <path class="color695626 svgShape colorfff" d="m226,154l1,1l-1,-1z" fill="#fff" id="svg_606"/>
      <path class="color166017 svgShape color00c75a" d="m237,154l1,1l-1,-1z" fill="#00c740" id="svg_605"/>
      <path class="color695626 svgShape colorfff" d="m254,155l1,1l-1,-1z" fill="#fff" id="svg_604"/>
      <path class="color51d039 svgShape color2cd412" d="m334,155l0,3l0.69,-0.75l0,-1.5l-0.69,-0.75z" fill="#2cd412" id="svg_603"/>
      <path class="color695626 svgShape colorfff" d="m227,156l1,1l-1,-1z" fill="#fff" id="svg_602"/>
      <path class="color166017 svgShape color00c75a" d="m238,156l1,1l-1,-1m-125,1l1,1l-1,-1z" fill="#00c740" id="svg_601"/>
      <path class="color695626 svgShape colorfff" d="m253,157l1,1l-1,-1z" fill="#fff" id="svg_600"/>
      <path class="color166017 svgShape color00c75a" d="m125,158l1,1l-1,-1m5,0l1,1l-1,-1z" fill="#00c740" id="svg_599"/>
      <path class="color695626 svgShape colorfff" d="m228,158l1,1l-1,-1z" fill="#fff" id="svg_598"/>
      <path class="color166017 svgShape color00c75a" d="m239,158l1,1l-1,-1m96.33,0.67l0,0.66l0.34,0l0,-0.66l-0.34,0m-221.33,0.33l1,1l-1,-1z" fill="#00c740" id="svg_597"/>
      <path class="color695626 svgShape colorfff" d="m252,159l1,1l-1,-1m-23,1l1,1l-1,-1m11,0l1,1l-1,-1z" fill="#fff" id="svg_596"/>
      <path class="color166017 svgShape color00c75a" d="m244,160l1,1l-1,-1z" fill="#00c740" id="svg_595"/>
      <path class="color96e133 svgShape color8fef2a" d="m297,160l0,16l0.72,-0.78l0.03,-0.53l0.19,-0.8l0.03,-0.92l0.03,-1.97l0,-6l-0.03,-1.97l-0.03,-0.92l-0.19,-0.8l-0.03,-0.53l-0.72,-0.78z" fill="#8fef2a" id="svg_594"/>
      <path class="color166017 svgShape color00c75a" d="m115,161l1,1l-1,-1z" fill="#00c740" id="svg_593"/>
      <path class="color695626 svgShape colorfff" d="m251,161l1,1l-1,-1z" fill="#fff" id="svg_592"/>
      <path class="color166017 svgShape color00c75a" d="m127.67,162.33l0.33,0.34l0.33,0l-0.33,-0.34l-0.33,0z" fill="#00c740" id="svg_591"/>
      <path class="color695626 svgShape colorfff" d="m230,162l1,1l-1,-1m11,0l1,1l-1,-1z" fill="#fff" id="svg_590"/>
      <path class="colorc7a559 svgShape colorf7bf42" d="m243,162l1,1l-1,-1z" fill="#f7bf42" id="svg_589"/>
      <path class="color166017 svgShape color00c75a" d="m325.33,162.67l0,0.66l0.34,0l0,-0.66l-0.34,0m-209.33,0.33l1,1l-1,-1m126,0l1,1l-1,-1z" fill="#00c740" id="svg_588"/>
      <path class="color695626 svgShape colorfff" d="m250,163l1,1l-1,-1m-19,1l1,1l-1,-1z" fill="#fff" id="svg_587"/>
      <path class="color166017 svgShape color00c75a" d="m117,165l1,1l-1,-1m67,0l0,9l0.72,-0.78l0.03,-0.53l0.19,-0.8l0.06,-1.89l-0.03,-1.97l-0.03,-0.92l-0.19,-0.8l-0.03,-0.53l-0.72,-0.78z" fill="#00c740" id="svg_586"/>
      <path class="colorbecf60 svgShape colorf7bf42" d="m248,165l-0.42,1.44l-0.33,1.12l-0.25,1.44l0.97,-0.78l0.14,-0.5l0.39,-0.72l0.14,-1.22l-0.64,-0.78z" fill="#f7bf42" id="svg_585"/>
      <path class="color695626 svgShape colorfff" d="m249,165l1,1l-1,-1z" fill="#fff" id="svg_584"/>
      <path class="color166017 svgShape color00c75a" d="m326,165l1,1l-1,-1z" fill="#00c740" id="svg_583"/>
      <path class="color695626 svgShape colorfff" d="m232,166l1,1l-1,-1z" fill="#fff" id="svg_582"/>
      <path class="color166017 svgShape color00c75a" d="m339,166l1,1l-1,-1m-91,1l1,1l-1,-1m79,0l1,1l-1,-1m13,0l1,1l-1,-1m-107,1l1,1l-1,-1m127,0l1,1l-1,-1m-241,1l1,1l-1,-1m115,1l1,1l-1,-1z" fill="#00c740" id="svg_581"/>
      <path class="colorbecf60 svgShape colorf7bf42" d="m235.33,170.67l0,0.33l0.34,0.33l0,-0.33l-0.34,-0.33z" fill="#f7bf42" id="svg_580"/>
      <path class="color166017 svgShape color00c75a" d="m329,170l1,1l-1,-1m17,0l0.78,0.72l0.53,0.03l0.75,0.19l0.91,0.03l2.03,0.03l-0.78,-0.72l-0.53,-0.03l-0.75,-0.19l-0.91,-0.03l-2.03,-0.03m6,0l0.78,0.72l0.47,0.03l0.81,0.19l1.94,0.06l-0.78,-0.72l-0.47,-0.03l-0.81,-0.19l-1.94,-0.06m-232,1l1,1l-1,-1m115,1l1,1l-1,-1z" fill="#00c740" id="svg_579"/>
      <path class="color51d039 svgShape color2cd412" d="m245,172l1,1l-1,-1z" fill="#2cd412" id="svg_578"/>
      <path class="color166017 svgShape color00c75a" d="m288,172l0,4l0.72,-0.78l0.17,-1.22l-0.17,-0.72l0,-0.5l-0.72,-0.78m43,0l1,1l-1,-1m-210,1l1,1l-1,-1m211,0l1,1l-1,-1m29,0l1,1l-1,-1m-125,1l1,1l-1,-1z" fill="#00c740" id="svg_577"/>
      <path class="color695626 svgShape colorfff" d="m244,174l1,1l-1,-1z" fill="#fff" id="svg_576"/>
      <path class="color51d039 svgShape color2cd412" d="m357.67,174.33l0.33,0.34l0.33,0l0,-0.34l-0.66,0z" fill="#2cd412" id="svg_575"/>
      <path class="color166017 svgShape color00c75a" d="m359,174l1,1l-1,-1m-237,1l1,1l-1,-1z" fill="#00c740" id="svg_574"/>
      <path class="colorc7a559 svgShape colorf7bf42" d="m237,175l1,1l-1,-1z" fill="#f7bf42" id="svg_573"/>
      <path class="color166017 svgShape color00c75a" d="m335,175l1,1l-1,-1m22,0l1,1l-1,-1m5.33,0.67l0,0.66l0.34,0l0,-0.66l-0.34,0m-239.33,0.33l1,1l-1,-1z" fill="#00c740" id="svg_572"/>
      <path class="color695626 svgShape colorfff" d="m185,176l1,1l-1,-1z" fill="#fff" id="svg_571"/>
      <path class="color96e133 svgShape color8fef2a" d="m187,176l0.78,0.72l0.53,0.03l0.75,0.19l0.91,0.03l2.03,0.03l-0.78,-0.72l-0.53,-0.03l-0.75,-0.19l-0.91,-0.03l-2.03,-0.03z" fill="#8fef2a" id="svg_570"/>
      <path class="color695626 svgShape colorfff" d="m193,176l1,1l-1,-1z" fill="#fff" id="svg_569"/>
      <path class="color96e133 svgShape color8fef2a" d="m289,176l0.78,0.72l0.53,0.03l0.8,0.19l0.92,0.03l0.91,0.03l3.06,0l-0.78,-0.72l-0.53,-0.03l-0.8,-0.19l-0.92,-0.03l-0.91,-0.03l-3.06,0z" fill="#8fef2a" id="svg_568"/>
      <path class="color166017 svgShape color00c75a" d="m297,176l1,1l-1,-1m40,0l1,1l-1,-1m17,0l1,1l-1,-1z" fill="#00c740" id="svg_567"/>
      <path class="color51d039 svgShape color2cd412" d="m363,176l0.78,0.72l0.53,0.03l0.8,0.19l0.86,0.03l0.97,0.03l2.06,0l-0.78,-0.72l-0.53,-0.03l-0.8,-0.19l-0.86,-0.03l-0.97,-0.03l-2.06,0m-237.33,1.33l0,0.34l0.66,0l0,-0.34l-0.66,0z" fill="#2cd412" id="svg_566"/>
      <path class="colorbecf60 svgShape colorf7bf42" d="m240.67,177.33l0,0.34l0.66,0l0,-0.34l-0.66,0z" fill="#f7bf42" id="svg_565"/>
      <path class="color166017 svgShape color00c75a" d="m242,177l1,1l-1,-1m98,0l1,1l-1,-1m9.67,0.33l0.33,0.34l0.33,0l0,-0.34l-0.66,0z" fill="#00c740" id="svg_564"/>
      <path class="color695626 svgShape colorfff" d="m154,194l-1,1l0,2l0.94,-0.75l0.14,-0.44l0.36,-1.06l-0.44,-0.75z" fill="#fff" id="svg_563"/>
      <path class="colorc7a559 svgShape colorf7bf42" d="m155,194l-0.72,1.44l-0.03,0.56l-0.25,2l1.39,-0.11l0.94,-0.61l0.34,-0.56l0.3,-1.25l0.03,-1.47l-2,0z" fill="#f7bf42" id="svg_562"/>
      <path class="color695626 svgShape colorfff" d="m384,194l-1,1l0,2l0.94,-0.75l0.14,-0.44l0.36,-1.06l-0.44,-0.75z" fill="#fff" id="svg_561"/>
      <path class="colorc7a559 svgShape colorf7bf42" d="m385,194l-0.72,1.44l-0.03,0.56l-0.25,2l3,0l-0.11,-1.47l-0.56,-1.28l-0.19,-0.47l-1.14,-0.78z" fill="#f7bf42" id="svg_560"/>
      <path class="color695626 svgShape colorfff" d="m386,194l1,1l-1,-1m-330,1l1,1l-1,-1z" fill="#fff" id="svg_559"/>
      <path class="colorc7a559 svgShape colorf7bf42" d="m69,213l-1.5,-0.64l-0.56,0.14l-1,0.03l-1.94,0.64l-1,0.36l-2,0.36l-1,0l-2,-0.39l-1.92,-1l-1.61,-1.58l-0.61,-0.95l-0.97,-1.97l-0.33,-1l0,-2l0.33,-1l0.39,-1l1.19,-1.92l1.61,-1.58l1.92,-1l2,-0.39l1,0l2,0.36l1,0.36l1.94,0.64l1,0.03l0.56,0.14l1.5,-0.64l-0.78,-1.39l-1.33,-1.03l-0.92,-0.47l-1.97,-0.69l-2,-0.34l-2,-0.05l-1,0.05l-2,0.39l-1,0.39l-1.97,1l-0.95,0.61l-1.61,1.61l-1.19,1.92l-0.42,1l-0.61,2l-0.14,1l0.11,2l0.47,2l0.73,2l1.08,1.92l1.58,1.61l0.95,0.61l1.97,1l1,0.39l2,0.39l1,0.05l2,-0.05l2,-0.34l1.97,-0.69l0.92,-0.47l1.33,-1.03l0.78,-1.39z" fill="#f7bf42" id="svg_558"/>
      <path class="color695626 svgShape colorfff" d="m64,195l1,1l-1,-1m93.33,0.67l0,0.66l0.34,0l0,-0.66l-0.34,0m64.67,-0.67l1,1l-1,-1z" fill="#fff" id="svg_557"/>
      <path class="colorc7a559 svgShape colorf7bf42" d="m235,213l-1.5,-0.64l-0.56,0.14l-1,0.03l-1.94,0.64l-1,0.36l-2,0.36l-1,-0.03l-2,-0.5l-1.92,-1.08l-0.83,-0.7l-0.78,-0.8l-1.19,-1.81l-0.39,-0.97l-0.39,-2l0.08,-1l0.39,-1l1.28,-2l0.83,-0.97l0.95,-0.92l0.97,-0.78l2,-1l2,-0.22l2,0.36l1,0.36l1.94,0.64l1,0.03l0.56,0.14l1.5,-0.64l-0.78,-1.39l-0.53,-0.36l-0.8,-0.67l-1.89,-0.86l-1,-0.3l-2,-0.34l-2,-0.05l-2,0.22l-1,0.25l-1.97,0.92l-0.95,0.61l-0.83,0.66l-0.78,0.73l-1.19,1.66l-0.42,0.95l-0.39,0.97l-0.39,2l-0.05,1l0,2l0.05,1l0.39,2l0.39,0.97l0.42,0.95l0.58,0.86l0.61,0.8l1.61,1.39l0.95,0.61l1.97,0.92l1,0.25l2,0.22l1,0l2,-0.19l1,-0.2l1,-0.3l1.89,-0.86l0.8,-0.67l0.53,-0.36l0.78,-1.39z" fill="#f7bf42" id="svg_556"/>
      <path class="color695626 svgShape colorfff" d="m230.67,195.33l0.33,0.34l0.33,0l0,-0.34l-0.66,0m156.66,0.34l0,0.66l0.34,0l0,-0.66l-0.34,0m-333.33,0.33l1,1l-1,-1m166,0l1,1l-1,-1m-83,1l0,3l0.69,-0.75l0,-1.5l-0.69,-0.75z" fill="#fff" id="svg_555"/>
      <path class="colorc7a559 svgShape colorf7bf42" d="m138,197l-0.36,1.39l-0.31,0.33l-0.94,0.92l-1.39,0.36l0,3l3,0l0,8l0.11,2l0.22,0.97l0.39,0.92l1.39,1.39l0.92,0.39l0.97,0.19l0.97,0l1.7,-0.53l0.97,-0.94l0.36,-1.39l-5,0l0,-11l4,0l0,-3l-1.47,-0.11l-1.25,-0.56l-0.92,-0.94l-0.36,-1.39l-3,0z" fill="#f7bf42" id="svg_554"/>
      <path class="color695626 svgShape colorfff" d="m219,197l1,1l-1,-1m15,0l1,1l-1,-1m56,0l0,3l0.69,-0.75l0,-1.5l-0.69,-0.75z" fill="#fff" id="svg_553"/>
      <path class="colorc7a559 svgShape colorf7bf42" d="m291,197l-0.36,1.39l-0.31,0.33l-0.94,0.92l-1.39,0.36l0,3l3,0l0,8l0.11,2l0.22,0.97l0.39,0.92l1.39,1.39l0.92,0.39l0.97,0.19l0.97,0l1.7,-0.53l0.97,-0.94l0.36,-1.39l-5,0l0,-11l4,0l0,-3l-1.47,-0.11l-1.25,-0.56l-0.92,-0.94l-0.36,-1.39l-3,0m76,0l-0.67,1.75l-0.19,0.53l-1.14,0.72l0,3l2,0l0,6l0.08,2l0.42,2l0.44,0.97l0.56,0.92l1.58,1.39l0.95,0.39l1.94,0.19l1.7,-0.53l0.97,-0.94l0.36,-1.39l-5,0l-1,-1l0,-10l5,0l0,-3l-1.5,-0.03l-1.44,-0.3l-0.73,-0.34l-0.97,-0.94l-0.36,-1.39l-3,0z" fill="#f7bf42" id="svg_552"/>
      <path class="color695626 svgShape colorfff" d="m370,197l0,3l0.69,-0.75l0,-1.5l-0.69,-0.75m-313,1l1,1l-1,-1m5.67,0.33l0.33,0.34l0.33,0l-0.33,-0.34l-0.33,0m160.33,-0.33l1,1l-1,-1m5.67,0.33l0,0.34l0.66,0l-0.33,-0.34l-0.33,0m-173.67,0.67l1,1l-1,-1m10,0l1,1l-1,-1m152,0l1,1l-1,-1m14,0l1,1l-1,-1m3,0l1,1l-1,-1m-184,1l1,1l-1,-1m4,0l1,1l-1,-1z" fill="#fff" id="svg_551"/>
      <path class="colorc7a559 svgShape colorf7bf42" d="m77,200l0,17l3,0l0,-7l0.11,-2l0.61,-1.97l1.39,-1.7l0.86,-0.61l1.53,-0.61l1.5,-0.11l0,-3l-2.06,0.06l-1.94,0.11l-1,0.05l-1.94,-0.08l-0.56,-0.08l-1.5,-0.06z" fill="#f7bf42" id="svg_550"/>
      <path class="color695626 svgShape colorfff" d="m81,200l1,1l-1,-1m15,0l1,1l-1,-1z" fill="#fff" id="svg_549"/>
      <path class="colorc7a559 svgShape colorf7bf42" d="m106,212l-1.5,0.33l-0.56,0.28l-1.94,0.78l-2,0.39l-1.94,-0.45l-1,-0.61l-2.06,-1.72l1.5,-0.25l1.56,-0.36l0.94,-0.2l2,-0.38l1,-0.2l1,-0.22l1.94,-0.31l2.06,-0.08l-0.08,-2.06l-0.42,-1.94l-1,-1.92l-1.58,-1.58l-1.92,-1l-2,-0.39l-1,0l-2,0.39l-1.97,1l-1.7,1.58l-0.61,0.95l-0.39,0.97l-0.3,2l-0.03,1l0.03,2l0.08,1l0.22,1l0.39,0.97l1.39,1.78l0.92,0.75l1.97,1l2,0.42l2,0l1.97,-0.42l0.92,-0.44l1.39,-1.25l0.39,-0.84l0.33,-1.97z" fill="#f7bf42" id="svg_548"/>
      <path class="color695626 svgShape colorfff" d="m102,200l1,1l-1,-1m15,0l1,1l-1,-1z" fill="#fff" id="svg_547"/>
      <path class="colorc7a559 svgShape colorf7bf42" d="m114,204l1.5,0.44l0.56,-0.16l1,-0.17l1.94,-0.61l2,-0.08l1.89,0.86l1.33,1.25l0.78,1.47l-3.06,0l-1.94,0.03l-1.97,0.22l-0.95,0.25l-1.58,1l-1,1.58l-0.33,1.92l0.33,1.92l1,1.58l0.75,0.56l0.83,0.44l1.92,0.42l2,0.02l1,-0.08l2,-0.08l1.94,0.08l0.56,0.08l1.5,0.06l0,-6l-0.03,-2l-0.05,-1l-0.34,-2l-0.3,-1l-0.92,-1.89l-0.67,-0.8l-0.8,-0.67l-1.89,-0.92l-2,-0.47l-1,-0.08l-2,0.3l-1.89,0.81l-0.78,0.53l-0.97,0.97l-0.36,1.22z" fill="#f7bf42" id="svg_546"/>
      <path class="color695626 svgShape colorfff" d="m122.67,200.33l0,0.34l0.66,0l-0.33,-0.34l-0.33,0m22.33,-0.33l0,3l0.69,-0.75l0,-1.5l-0.69,-0.75z" fill="#fff" id="svg_545"/>
      <path class="colorc7a559 svgShape colorf7bf42" d="m154,200l0,17l3,0l0,-17l-3,0z" fill="#f7bf42" id="svg_544"/>
      <path class="color695626 svgShape colorfff" d="m163,200l1,1l-1,-1z" fill="#fff" id="svg_543"/>
      <path class="colorc7a559 svgShape colorf7bf42" d="m164,200l0.25,1.5l0.17,0.56l0.27,1l0.7,1.94l0.86,2l0.53,1l0.44,1l0.53,1l0.42,1l0.44,1l0.81,1.97l0.5,0.92l1.27,1.39l0.84,0.39l1.97,0.33l0.28,-1.5l0.58,-1.56l0.39,-0.94l0.53,-1l0.44,-1l0.56,-1l0.44,-1l0.53,-1l0.42,-1l0.44,-1l0.78,-2l0.8,-1.94l0.31,-0.56l0.5,-1.5l-1.97,0.33l-0.84,0.39l-1.27,1.39l-0.5,0.92l-0.81,1.97l-0.44,1l-0.42,1l-0.94,1.94l-0.59,1l-0.22,0.56l-1,1.5l-0.5,-1.5l-0.33,-0.56l-0.42,-1l-0.53,-0.94l-0.97,-2l-0.42,-1l-0.44,-1l-0.72,-1.94l-0.23,-0.56l-0.44,-1.5l-3,0z" fill="#f7bf42" id="svg_542"/>
      <path class="color695626 svgShape colorfff" d="m177,200l1,1l-1,-1m13,0l1,1l-1,-1z" fill="#fff" id="svg_541"/>
      <path class="colorc7a559 svgShape colorf7bf42" d="m199,212l-1.5,0.67l-0.56,0.3l-1.94,0.7l-1,0.11l-1.94,-0.45l-1,-0.61l-2.06,-1.72l1.5,-0.25l1.56,-0.36l0.94,-0.2l2,-0.38l1,-0.2l1,-0.22l1.94,-0.31l2.06,-0.08l-0.08,-2.06l-0.42,-1.94l-1,-1.92l-1.58,-1.58l-1.92,-1l-2,-0.39l-1,0l-2,0.39l-1.97,1l-0.95,0.75l-0.83,0.83l-0.75,0.95l-1,1.97l-0.25,1l-0.14,2l0.39,2l1,1.97l0.75,0.95l1.78,1.58l1.97,1l1,0.25l1,0.17l2,0l1.97,-0.42l0.92,-0.44l1.33,-1.25l0.39,-1.34l-0.61,-1.47z" fill="#f7bf42" id="svg_540"/>
      <path class="color695626 svgShape colorfff" d="m196,200l1,1l-1,-1m37,0l1,1l-1,-1z" fill="#fff" id="svg_539"/>
      <path class="colorc7a559 svgShape colorf7bf42" d="m246,200.5l-1.92,1l-1.58,1.58l-1,1.92l-0.25,1l-0.17,1l-0.05,2l0.05,1l0.42,2l0.44,0.97l0.56,0.95l0.75,0.83l0.83,0.75l1.92,1l2,0.42l1,0.02l2,-0.19l1,-0.25l1.92,-1l1.58,-1.58l1,-1.92l0.25,-1l0.17,-1l0.05,-2l-0.05,-1l-0.42,-2l-0.44,-0.97l-0.56,-0.92l-1.58,-1.42l-1.92,-0.8l-1,-0.25l-1,-0.25l-2,-0.22l-1,0.11l-1,0.22z" fill="#f7bf42" id="svg_538"/>
      <path class="color695626 svgShape colorfff" d="m250.67,200.33l0,0.34l0.66,0l-0.33,-0.34l-0.33,0m14.33,-0.33l0,17l0.72,-0.78l0.03,-0.53l0.19,-0.8l0.03,-0.92l0.03,-0.97l0,-8l-0.03,-1.97l-0.03,-0.92l-0.19,-0.8l-0.03,-0.53l-0.72,-0.78z" fill="#fff" id="svg_537"/>
      <path class="colorc7a559 svgShape colorf7bf42" d="m266,200l0,16l2,0l0,-3.06l0.08,-1.94l0.34,-2l0.69,-2l1.2,-1.89l1.72,-1.39l0.91,-0.39l1.56,-0.3l1.5,-0.03l0.5,1.5l0.31,0.56l0.72,1.94l0.22,1l0.17,1l0.08,2l0,6l3,0l0,-9l-0.17,-1l-0.16,-1l-0.67,-2l-0.5,-1l-1.5,-1.67l-2,-1l-1,-0.16l-1,-0.17l-1,0l-2,0.33l-1,0.5l-1.5,0.34l-0.5,-0.34l-0.83,-0.66l-1.17,-0.17z" fill="#f7bf42" id="svg_536"/>
      <path class="color695626 svgShape colorfff" d="m268.33,200.67l0,0.33l0.34,0.33l0,-0.66l-0.34,0m1.67,-0.67l1,1l-1,-1m6,0l1,1l-1,-1m22,0l0,3l0.69,-0.75l0,-1.5l-0.69,-0.75z" fill="#fff" id="svg_535"/>
      <path class="colorc7a559 svgShape colorf7bf42" d="m307,200l0,17l3,0l0,-6l0.08,-2l0.42,-2l1,-1.89l0.69,-0.78l1.34,-0.97l1.47,-0.36l0,-2l-1,-1l-1.75,0.67l-0.53,0.19l-0.72,1.14l-1.08,-1.14l-1.14,-0.58l-0.36,-0.17l-1.42,-0.11z" fill="#f7bf42" id="svg_534"/>
      <path class="colorbecf60 svgShape colorf7bf42" d="m314,200l0,1l1,2l0.72,-0.72l0.03,-0.53l0.25,-1.75l-2,0z" fill="#f7bf42" id="svg_533"/>
      <path class="color695626 svgShape colorfff" d="m326,200l1,1l-1,-1z" fill="#fff" id="svg_532"/>
      <path class="colorc7a559 svgShape colorf7bf42" d="m323,205l1.5,-0.33l0.56,-0.28l1.94,-0.78l2,-0.39l1.89,0.5l1.39,1.34l0.72,1.94l-2.06,0l-1.94,0.03l-1,0.05l-2,0.42l-0.97,0.44l-1.7,1.31l-0.61,0.83l-0.5,1.92l0.14,1l0.36,0.97l0.61,0.92l1.7,1.39l1.97,0.61l2,0.05l1,-0.08l2,-0.08l1.94,0.08l0.56,0.08l1.5,0.06l0,-9l-0.08,-2l-0.42,-1.97l-0.44,-0.92l-0.56,-0.8l-0.75,-0.67l-1.78,-0.92l-0.97,-0.3l-2,-0.25l-2,0.25l-1.89,0.69l-1.39,1.14l-0.39,0.81l-0.33,1.94z" fill="#f7bf42" id="svg_531"/>
      <path class="color695626 svgShape colorfff" d="m331.67,200.33l0,0.34l0.66,0l0,-0.34l-0.66,0m17.33,-0.33l1,1l-1,-1z" fill="#fff" id="svg_530"/>
      <path class="colorc7a559 svgShape colorf7bf42" d="m359,213l-1,-1l-2,0l-1.5,1.14l-1.56,0.58l-0.88,0.17l-1.56,0.11l-1.5,0l-0.5,-1.5l-0.31,-0.56l-0.69,-1.94l-0.17,-1l0.2,-1.97l0.97,-1.78l1.58,-1.31l1.92,-0.58l1,0.03l2,0.58l0.94,0.36l1,0.11l0.56,0.17l1.5,-0.61l-0.78,-1.42l-0.53,-0.39l-0.8,-0.75l-1.89,-0.94l-1,-0.25l-1,-0.14l-2,0.14l-1,0.25l-1.97,1l-1.78,1.58l-0.75,0.95l-1,1.97l-0.39,2l0,1l0.36,2l0.39,0.97l1,1.78l0.61,0.78l0.78,0.61l1.78,1l0.97,0.39l2,0.36l1,0l2,-0.39l1.89,-0.94l0.8,-0.75l0.53,-0.39l0.78,-1.42z" fill="#f7bf42" id="svg_529"/>
      <path class="color695626 svgShape colorfff" d="m355,200l1,1l-1,-1m9,0l0,3l0.69,-0.75l0,-1.5l-0.69,-0.75z" fill="#fff" id="svg_528"/>
      <path class="colorc7a559 svgShape colorf7bf42" d="m384,200l0,17l3,0l0,-17l-3,0z" fill="#f7bf42" id="svg_527"/>
      <path class="color695626 svgShape colorfff" d="m396,200l0,17l0.72,-0.78l0.03,-0.53l0.19,-0.8l0.03,-0.92l0.03,-0.97l0,-8l-0.03,-1.97l-0.03,-0.92l-0.19,-0.8l-0.03,-0.53l-0.72,-0.78z" fill="#fff" id="svg_526"/>
      <path class="colorc7a559 svgShape colorf7bf42" d="m397,200l0,17l3,0l0,-6l0.03,-2l0.08,-1l0.22,-1l0.39,-0.97l1.39,-1.7l1.89,-0.89l1,0l0.97,0.31l0.92,0.58l0.78,0.78l1,1.89l0.3,2l0.03,2l0,6l3,0l0,-7l-0.08,-2l-0.34,-2l-0.69,-1.97l-0.53,-0.95l-1.47,-1.58l-1.89,-1l-1,-0.25l-2,-0.17l-2,0.09l-1,0.05l-1.94,-0.08l-0.56,-0.08l-1.5,-0.06z" fill="#f7bf42" id="svg_525"/>
      <path class="color695626 svgShape colorfff" d="m401,200l1,1l-1,-1m6,0l1,1l-1,-1z" fill="#fff" id="svg_524"/>
      <path class="colorc7a559 svgShape colorf7bf42" d="m434,215l-0.53,1.47l-0.97,1.34l-1.58,1.25l-0.95,0.44l-1.97,0.31l-2,-0.42l-1.94,-0.72l-1,-0.11l-0.56,-0.17l-1.5,0.61l0.78,1.39l1.33,1.03l1.89,0.86l1,0.3l2,0.25l2,-0.25l1.97,-0.61l0.95,-0.39l1.58,-1.08l1.08,-1.58l0.73,-1.92l0.27,-1l0.34,-2l0.05,-1l0.03,-1l0,-12l-1.39,0.11l-0.94,0.56l-0.31,0.19l-0.36,1.14l-1.5,-0.81l-0.56,-0.16l-1.94,-0.61l-2,-0.31l-2,0.2l-1,0.33l-1.92,1.08l-1.58,1.5l-0.56,0.86l-0.44,0.95l-0.42,1.97l0,2l0.42,2l1,1.97l1.58,1.7l1.92,1l2,0.3l1,0.03l2,-0.08l1.94,-0.34l2.06,-0.58z" fill="#f7bf42" id="svg_523"/>
      <path class="color695626 svgShape colorfff" d="m430.67,200.33l0.33,0.34l0.33,0l0,-0.34l-0.66,0m2.66,0.34l0,0.66l0.34,0l0,-0.66l-0.34,0m-318.33,0.33l1,1l-1,-1m10,0l1,1l-1,-1m42,0l1,1l-1,-1m13,0l1,1l-1,-1m8,0l1,1l-1,-1m28,0l1,1l-1,-1m62,0l1,1l-1,-1m32,0l1,1l-1,-1m37,0l1,1l-1,-1m10,0l1,1l-1,-1m52,0l1,1l-1,-1m14,0l1,1l-1,-1m-330,1l1,1l-1,-1m12,0l1,1l-1,-1m21,0l1,1l-1,-1m38,0l1,1l-1,-1m12,0l1,1l-1,-1m11,0l1,1l-1,-1m32,0l1,1l-1,-1m103.33,0.67l0,0.66l0.34,0l0,-0.66l-0.34,0m23.67,-0.67l1,1l-1,-1m12,0l1,1l-1,-1m52,0l1,1l-1,-1m-328,1l1,1l-1,-1m15,0l1,1l-1,-1z" fill="#fff" id="svg_522"/>
      <path class="color050101 svgShape colorfff" d="m95,208l1.5,-0.08l0.56,-0.14l1,-0.17l0.94,-0.25l1,-0.22l1.89,-0.56l0.8,-0.44l0.53,-0.17l0.78,-0.97l-1.5,-0.97l-0.56,-0.17l-1.94,-0.53l-1,0l-1.89,0.61l-1.39,1.25l-0.39,0.84l-0.33,1.97z" fill="#fff" id="svg_521"/>
      <path class="color695626 svgShape colorfff" d="m101,203l1,1l-1,-1m17,0l1,1l-1,-1m19,0l0,10l0.72,-0.78l0.03,-0.53l0.19,-0.8l0.03,-0.92l0.03,-1.97l-0.03,-1.97l-0.03,-0.92l-0.19,-0.8l-0.03,-0.53l-0.72,-0.78m42,0l1,1l-1,-1m7,0l1,1l-1,-1m5,0l1,1l-1,-1z" fill="#fff" id="svg_520"/>
      <path class="color050101 svgShape colorfff" d="m189,208l1.5,-0.08l0.56,-0.14l1.94,-0.39l1.94,-0.31l2.06,-0.08l-0.33,-1.81l-0.39,-0.75l-1.39,-0.91l-0.92,-0.2l-0.97,0l-0.97,0.2l-1.7,0.97l-0.61,0.69l-0.39,0.84l-0.33,1.97z" fill="#fff" id="svg_519"/>
      <path class="color695626 svgShape colorfff" d="m195,203l1,1l-1,-1z" fill="#fff" id="svg_518"/>
      <path class="color050101 svgShape colorfff" d="m247.03,203.75l-1.7,1.36l-0.61,0.92l-0.39,0.97l-0.22,2l0.39,1.92l1,1.58l0.75,0.56l0.83,0.44l1.92,0.33l1.92,-0.33l1.58,-1l1,-1.58l0.39,-1.92l-0.03,-1l-0.58,-1.92l-1.39,-1.58l-0.92,-0.56l-0.97,-0.41l-1,-0.17l-1.97,0.39z" fill="#fff" id="svg_517"/>
      <path class="color695626 svgShape colorfff" d="m250.67,203.33l0,0.34l0.66,0l-0.33,-0.34l-0.33,0m24.33,-0.33l1,1l-1,-1m15,0l0,10l0.72,-0.78l0.03,-0.53l0.19,-0.8l0.03,-0.92l0.03,-1.97l-0.03,-1.97l-0.03,-0.92l-0.19,-0.8l-0.03,-0.53l-0.72,-0.78m22,0l1,1l-1,-1m14,0l1,1l-1,-1m5,0l1,1l-1,-1m4,0l1,1l-1,-1m10,0l1,1l-1,-1m9,0l1,1l-1,-1m16,0l0,10l0.72,-0.78l0.03,-0.53l0.19,-0.8l0.03,-0.92l0.03,-1.97l-0.03,-1.97l-0.03,-0.92l-0.19,-0.8l-0.03,-0.53l-0.72,-0.78m35.67,0.33l0,0.34l0.66,0l0,-0.34l-0.66,0z" fill="#fff" id="svg_516"/>
      <path class="color050101 svgShape colorfff" d="m425,213l2.06,0l1,-0.03l0.94,-0.08l1.89,-0.61l1.39,-1.39l0.61,-1.89l0.08,-0.94l0.03,-1l0,-2.06l-1.5,-0.97l-0.56,-0.17l-1,-0.42l-1.94,-0.25l-1.97,0.53l-0.92,0.61l-0.78,0.78l-0.61,0.92l-0.53,1.97l0.25,1.94l0.42,1l1.14,2.06z" fill="#fff" id="svg_515"/>
      <path class="color695626 svgShape colorfff" d="m430,203l1,1l-1,-1m-378,1l0,4l0.72,-0.78l0,-0.5l0.17,-0.72l-0.17,-1.22l-0.72,-0.78m54,0l1,1l-1,-1m10,0l1,1l-1,-1m11.33,0.67l0,0.66l0.34,0l0,-0.66l-0.34,0m40.67,-0.67l1,1l-1,-1m32,0l1,1l-1,-1m15,0l0,4l0.72,-0.78l0,-0.5l0.17,-0.72l-0.17,-1.22l-0.72,-0.78m3,0l0,4l0.72,-0.78l0,-0.5l0.17,-0.72l-0.17,-1.22l-0.72,-0.78m23,0l1,1l-1,-1m4,0l1,1l-1,-1m7,0l1,1l-1,-1m4,0l1,1l-1,-1m24.33,0.67l0,0.33l0.34,0.33l0,-0.66l-0.34,0m30.67,-0.67l1,1l-1,-1m21,0l0,3l0.69,-0.75l0,-1.5l-0.69,-0.75m16,0l1,1l-1,-1m10,0l1,1l-1,-1m53.33,0.67l0,0.66l0.34,0l0,-0.66l-0.34,0m8.67,-0.67l1,1l-1,-1m4,0l1,1l-1,-1m-344,1l1,1l-1,-1m44.33,0.67l0,0.66l0.34,0l0,-0.66l-0.34,0m40.67,-0.67l1,1l-1,-1m10,0l1,1l-1,-1m10,0l1,1l-1,-1m12.33,0.67l0,0.66l0.34,0l0,-0.33l-0.34,-0.33m46.67,-0.67l1,1l-1,-1m9,0l1,1l-1,-1m91,0l1,1l-1,-1m64.33,0.67l0,0.66l0.34,0l0,-0.66l-0.34,0m14.67,-0.67l1,1l-1,-1m-332,1l0,5l0.72,-0.78l0.03,-0.53l0.17,-1.61l-0.17,-0.77l-0.03,-0.53l-0.72,-0.78m11.67,0.33l0,0.34l0.66,0l0,-0.34l-0.66,0m4.33,-0.33l0,3l0.69,-0.75l0,-1.5l-0.69,-0.75m62,0l1,1l-1,-1m19.33,0.67l0,0.66l0.34,0l0,-0.33l-0.34,-0.33m12.67,-0.67l0,3l0.69,-0.75l0,-1.5l-0.69,-0.75m39,0l0,5l0.72,-0.78l0.03,-0.53l0.17,-0.77l-0.17,-1.61l-0.03,-0.53l-0.72,-0.78m17,0l0,4l0.72,-0.78l0,-0.5l0.17,-0.72l-0.17,-1.22l-0.72,-0.78m20,0l0,11l0.72,-0.78l0.03,-0.53l0.19,-0.8l0.03,-0.92l0.03,-0.97l0,-2l-0.03,-1.97l-0.03,-0.92l-0.19,-0.8l-0.03,-0.53l-0.72,-0.78m156,0l0,4l0.72,-0.78l0.17,-1.22l-0.17,-0.72l0,-0.5l-0.72,-0.78m-339,1l1,1l-1,-1m4.67,0.33l0,0.34l0.66,0l0,-0.34l-0.66,0m17.33,-0.33l1,1l-1,-1m50,0l1,1l-1,-1m8,0l1,1l-1,-1m18.67,0.33l0,0.34l0.66,0l0,-0.34l-0.66,0m132.33,-0.33l1,1l-1,-1m-276,1l1,1l-1,-1m121,0l1,1l-1,-1m7,0l1,1l-1,-1m91,0l0,9l0.72,-0.78l0.03,-0.53l0.19,-0.8l0.03,-0.92l0.03,-1.97l-0.06,-1.89l-0.19,-0.8l-0.03,-0.53l-0.72,-0.78m55,0l1,1l-1,-1m-220.33,1.33l0,0.34l0.66,0l0,-0.34l-0.66,0m11.33,-0.33l1,1l-1,-1m53,0l1,1l-1,-1m6,0l1,1l-1,-1m23.67,0.33l0,0.34l0.66,0l-0.33,-0.34l-0.33,0m22.33,-0.33l1,1l-1,-1m103,0l1,1l-1,-1m25.33,0.67l0,0.66l0.34,0l0,-0.66l-0.34,0m-249.66,0.66l0,0.34l0.66,0l-0.33,-0.34l-0.33,0m19.33,-0.33l1,1l-1,-1z" fill="#fff" id="svg_514"/>
      <path class="color050101 svgShape colorfff" d="m117,211l0,2l1,1l1.5,0l1.53,-0.11l0.86,-0.22l1.39,-0.95l0.61,-1.25l0.11,-1.47l-2.06,0l-1,0.03l-0.88,0.03l-1,0.19l-0.56,0.03l-1.5,0.72z" fill="#fff" id="svg_513"/>
      <path class="color695626 svgShape colorfff" d="m124.33,210.67l0,0.66l0.34,0l0,-0.66l-0.34,0m46.67,-0.67l1,1l-1,-1m5,0l1,1l-1,-1m15.67,0.33l0,0.34l0.66,0l-0.33,-0.34l-0.33,0m24.33,-0.33l1,1l-1,-1m109,0l1,1l-1,-1z" fill="#fff" id="svg_512"/>
      <path class="color050101 svgShape colorfff" d="m325,211l0,2l1,1l1.5,0l1.56,-0.11l0.91,-0.22l1.7,-0.95l0.97,-1.25l0.36,-1.47l-3.06,0l-0.94,0.03l-0.94,0.03l-1,0.19l-0.56,0.03l-1.5,0.72z" fill="#fff" id="svg_511"/>
      <path class="color695626 svgShape colorfff" d="m423,210l1,1l-1,-1m-373,1l1,1l-1,-1m4,0l1,1l-1,-1m114,0l1,1l-1,-1m4,0l1,1l-1,-1m13,0l1,1l-1,-1m35,0l1,1l-1,-1m13,0l1,1l-1,-1m11,0l1,1l-1,-1m9,0l1,1l-1,-1m91,0l1,1l-1,-1m76,0l1,1l-1,-1m12,0l1,1l-1,-1m-377,1l1,1l-1,-1m10,0l1,1l-1,-1m110,0l1,1l-1,-1m24,0l1,1l-1,-1m18,0l1,1l-1,-1m14,0l1,1l-1,-1m3,0l1,1l-1,-1m7,0l1,1l-1,-1m15,0l1,1l-1,-1m92,0l1,1l-1,-1m10,0l1,1l-1,-1m73,0l1,1l-1,-1m-374,1l1,1l-1,-1m6,0l1,1l-1,-1m34,0l1,1l-1,-1m5,0l1,1l-1,-1m4.33,0.67l0,0.66l0.34,0l0,-0.66l-0.34,0m10.67,-0.67l1,1l-1,-1m27.67,0.33l0.33,0.34l0.33,0l-0.33,-0.34l-0.33,0m41.33,-0.33l1,1l-1,-1m5,0l1,1l-1,-1m5,0l1,1l-1,-1m27,0l1,1l-1,-1m23,0l1,1l-1,-1m5,0l1,1l-1,-1m46.67,0.33l0.33,0.34l0.33,0l-0.33,-0.34l-0.33,0m33.33,-0.33l1,1l-1,-1m14,0l1,1l-1,-1m4,0l1,1l-1,-1m18,0l1,1l-1,-1m7.67,0.33l0.33,0.34l0.33,0l0,-0.34l-0.66,0m46.33,-0.33l1,1l-1,-1m6,0l0.72,0.72l0.53,0.03l1.75,0.25l-0.72,-0.72l-0.53,-0.03l-1.75,-0.25m-334,1l1,1l-1,-1m21,0l1,1l-1,-1m60,0l1,1l-1,-1m13,0l1,1l-1,-1m32,0l1,1l-1,-1m15,0l1,1l-1,-1m21,0l1,1l-1,-1m67,0l1,1l-1,-1m36,0l1,1l-1,-1m64,0l1,1l-1,-1m-368,1l1,1l-1,-1m40,0l1,1l-1,-1m11,0l1,1l-1,-1m33,0l1,1l-1,-1m8,0l1,1l-1,-1m42,0l1,1l-1,-1m32,0l1,1l-1,-1m71,0l1,1l-1,-1m8,0l1,1l-1,-1m24,0l1,1l-1,-1m24,0l1,1l-1,-1m10,0l1,1l-1,-1m11,0l1,1l-1,-1m64,0l0,1l2,1l0,-2l-2,0m-376,1l1,1l-1,-1m8,0l1,1l-1,-1m32,0l1,1l-1,-1m7,0l1,1l-1,-1m13,0l1,1l-1,-1m23,0l1,1l-1,-1m6,0l1,1l-1,-1m25,0l1,1l-1,-1m20,0l1,1l-1,-1m7,0l1,1l-1,-1m25,0l1,1l-1,-1m8,0l1,1l-1,-1m15,0l1,1l-1,-1m7,0l1,1l-1,-1z" fill="#fff" id="svg_510"/>
      <path class="colorbecf60 svgShape colorf7bf42" d="m266.67,216.33l0.33,0.34l0.33,0l0,-0.34l-0.66,0z" fill="#f7bf42" id="svg_509"/>
      <path class="color695626 svgShape colorfff" d="m292,216l1,1l-1,-1m6,0l1,1l-1,-1m33,0l1,1l-1,-1m17.67,0.33l0,0.34l0.66,0l0,-0.34l-0.66,0m6.33,-0.33l1,1l-1,-1m14,0l1,1l-1,-1m6,0l1,1l-1,-1m51,0l0.78,0.72l0.47,0.03l0.81,0.19l1.94,0.06l-0.78,-0.72l-0.47,-0.03l-0.81,-0.19l-1.94,-0.06m10.33,0.67l0,0.66l0.34,0l0,-0.66l-0.34,0m-14.33,0.33l1,1l-1,-1m-1,1l1,1l-1,-1m11,0l1,1l-1,-1m-12,1l1,1l-1,-1m5,0l1,1l-1,-1m5,0l1,1l-1,-1m5,0l1,1l-1,-1m-14,1l1,1l-1,-1m1,1l1,1l-1,-1m11,0l1,1l-1,-1m-8,1l1,1l-1,-1m5.67,0.33l0.33,0.34l0.33,0l0,-0.34l-0.66,0z" fill="#fff" id="svg_508"/>
     </svg>
    </g>
   </svg>
  </g>
  <g id="svg_170">
   <svg height="288" id="svg_673" viewBox="0 0 288 288" width="288" x="-28.4" xmlns="http://www.w3.org/2000/svg" y="-77.3">
    <g id="svg_674">
     <svg class="layer" height="288" id="svg_841" viewBox="0 0 480 287" width="288" x="-1" xmlns="http://www.w3.org/2000/svg" y="-1">
      <path class="colorc7a559 svgShape colorf7bf42" d="m242,34l-2.06,1.97l-1.94,1.64l-2,1.61l-1,0.86l-2,1.84l-1,0.86l-2,1.61l-2,1.69l-2,1.89l-1,0.95l-2,1.69l-2,1.61l-1,0.86l-2,1.84l-1,0.86l-2,1.61l-2,1.69l-2,1.89l-1,0.95l-2,1.69l-2,1.61l-1,0.86l-2,1.84l-1,0.86l-2,1.61l-2,1.69l-2,1.89l-1,0.95l-2,1.69l-0.97,0.78l-0.92,0.83l-0.78,0.86l-0.94,1.86l-0.08,1.56l0.69,1.5l1.5,-0.36l0.56,-0.36l1,-0.59l0.94,-0.72l2,-1.58l1,-0.78l2,-1.69l1,-0.95l2,-1.89l1,-0.86l2,-1.61l1,-0.83l1,-0.86l2,-1.84l1,-0.86l2,-1.61l2,-1.69l2,-1.89l1,-0.95l2,-1.69l2,-1.61l1,-0.86l2,-1.89l1,-0.95l2,-1.69l2,-1.61l1,-0.86l2,-1.84l1,-0.86l2,-1.61l2,-1.69l2,-1.84l1.94,-1.58l1.56,-0.97l1.5,-0.53l0.78,1.42l0.53,0.41l0.8,0.84l0.92,0.72l1.97,1.69l2,1.84l2,1.69l2,1.5l1.94,1.2l1.56,0.58l1.5,0.11l0.72,-1.5l0.03,-0.56l0.19,-1l0.03,-0.94l0.03,-1l0,-8l9,0l0,20l0.11,2l0.22,1l0.39,1l0.61,1l1.7,2l1.97,1.92l2,1.69l1,0.78l2,1.69l2,1.89l1,0.95l2,1.69l2,1.61l1,0.86l2,1.84l1.94,1.58l1.56,0.97l1.5,0.53l0.69,-1.5l-0.08,-1.56l-0.94,-1.94l-0.78,-1l-1.89,-1.92l-2,-1.69l-1,-0.78l-2,-1.69l-1,-0.95l-2,-1.89l-2,-1.69l-1,-0.78l-2,-1.69l-1.97,-1.92l-1.7,-2l-1,-2l-0.22,-1l-0.08,-1l-0.03,-1l0,-21l-1,-1l-11,0l-2,0.11l-0.97,0.22l-0.92,0.39l-0.78,0.61l-0.61,0.78l-0.39,0.92l-0.22,0.97l-0.11,2l0,5l-2.06,-2.03l-1,-0.94l-1.94,-1.64l-1,-0.78l-1,-0.83l-2,-1.72l-1,-0.81l-0.94,-0.75l-1.56,-0.97l-1.5,-0.53z" fill="#f7bf42" id="svg_1006"/>
      <path class="color695626 svgShape colorfff" d="m243,34l1,1l-1,-1m14,0l1,1l-1,-1m-17,1l1,1l-1,-1m16,0l1,1l-1,-1m-17,1l1,1l-1,-1m-1,1l1,1l-1,-1m9,0l1,1l-1,-1m1,1l1,1l-1,-1m1,1l1,1l-1,-1m-16,2l1,1l-1,-1m7,0l1,1l-1,-1m-8,1l1,1l-1,-1m7,0l1,1l-1,-1m-8,1l1,1l-1,-1m16,0l1,1l-1,-1m1,1l1,1l-1,-1m7,0l1,1l-1,-1m-6,1l1,1l-1,-1m-16,2l1,1l-1,-1m-8,1l1,1l-1,-1m7,0l1,1l-1,-1m-8,1l1,1l-1,-1m7,0l1,1l-1,-1m23,0l1,1l-1,-1m-31,1l1,1l-1,-1m32,0l1,1l-1,-1m1,1l1,1l-1,-1m4,0l1,1l-1,-1m-2,1l1,1l-1,-1m-32,1l1,1l-1,-1m-8,1l1,1l-1,-1m7,0l1,1l-1,-1m-8,1l1,1l-1,-1m7,0l1,1l-1,-1m-8,1l1,1l-1,-1m2,4l1,1l-1,-1m-8,1l1,1l-1,-1m7,0l1,1l-1,-1m-8,1l1,1l-1,-1m7,0l1,1l-1,-1m-8,1l1,1l-1,-1m62,0l1,1l-1,-1m1,1l1,1l-1,-1m7,0l1,1l-1,-1m-6,1l1,1l-1,-1m7,0l1,1l-1,-1m1,1l1,1l-1,-1m-70,1l1,1l-1,-1m-8,1l1,1l-1,-1m7,0l1,1l-1,-1m-8,1l1,1l-1,-1m77,1l1,1l-1,-1m1,1l1,1l-1,-1m7,0l1,1l-1,-1m-6,1l1,1l-1,-1m7,0l1,1l-1,-1m-84,1l1,1l-1,-1m85,0l1,1l-1,-1m-93,1l1,1l-1,-1m7,0l1,1l-1,-1m-8,1l1,1l-1,-1m7,0l1,1l-1,-1m-8,1l1,1l-1,-1m93,1l1,1l-1,-1m7,0l1,1l-1,-1m-6,1l1,1l-1,-1m7,0l1,1l-1,-1m1,1l1,1l-1,-1m-100,1l1,1l-1,-1m101,0l0,3l0.69,-0.75l0,-1.5l-0.69,-0.75m-102,1l1,1l-1,-1m-1,1l1,1l-1,-1m100,1l1,1l-1,-1m2,0l1,1l-1,-1z" fill="#fff" id="svg_1005"/>
      <path class="color166017 svgShape color00c75a" d="m364,99l0.78,0.72l0.53,0.03l0.75,0.19l0.91,0.03l2.03,0.03l-0.78,-0.72l-0.53,-0.03l-0.75,-0.19l-0.91,-0.03l-2.03,-0.03z" fill="#00c740" id="svg_1004"/>
      <path class="color06c546 svgShape color00c75a" d="m363,100l-1,1l0,31l-2.06,0l-1.94,-0.03l-1,-0.08l-1,-0.2l-2,-0.69l-1,-0.39l-2,-0.5l-2,-0.03l-2,0.31l-1,0.22l-2,0.39l-2,0.42l-2,0.66l-2,1l-2,1.25l-2,1.36l-1,0.73l-1.92,1.66l-0.86,0.95l-1.53,1.97l-1.27,2l-1,2l-0.39,1l-0.61,2l-0.34,2l-0.08,2l0,6l0.08,2l0.14,1l0.2,1l0.27,1l0.7,2l0.44,1l0.45,1l1.11,1.97l0.64,0.95l1.39,1.69l1.66,1.53l0.95,0.69l0.97,0.73l2,1.16l1,0.45l1,0.44l2,0.7l1,0.27l2,0.34l1,0.05l1,0.03l2,-0.08l2,-0.31l1,-0.22l2,-0.39l1.97,-0.42l1.7,-0.64l0.61,-0.52l0.36,-0.25l0.36,-1.17l2,-0.06l1,-0.19l0.5,-0.03l1.5,-0.72l0,2l1,1l2.06,0.03l1,0.05l1.88,0.34l2.06,0.58l0.72,-1.5l0.03,-0.56l0.19,-1l0.03,-0.94l0.03,-1l0,-71l-1,-1l-7,0m-271,4l0.08,1.5l0.39,1.56l0.72,1.94l0.42,1l0.72,2l0.34,1l0.66,2l0.34,1l0.36,1l0.36,1l0.42,1l0.8,2l0.78,2l0.8,2l0.42,1l0.78,2l0.8,2l0.42,1l0.78,2l0.86,2l0.53,1l0.97,2l0.42,1l0.44,1l0.78,2l0.86,2l0.53,1l0.97,2l0.42,1l0.44,1l0.78,2l0.44,1l0.42,1l0.97,2l0.56,1l0.44,1l0.56,1l0.44,1l1,2l0.56,1l0.44,1l0.53,1l0.42,1l0.47,1l0.42,1l1,2l0.58,1l1.11,2l0.5,1l1.11,1.94l0.95,1.56l0.69,1.5l1.44,-0.17l1.12,0l1.44,0.17l1.22,-1.5l0.97,-1.56l0.56,-0.94l0.47,-1l0.56,-1l0.44,-1l0.56,-1l0.44,-1l0.56,-1l0.44,-1l1,-2l0.56,-1l0.44,-1l0.56,-1l0.44,-1l0.56,-1l0.44,-1l0.56,-1l0.44,-1l1,-2l0.53,-1l0.42,-1l0.44,-1l0.78,-2l0.44,-1l0.42,-1l0.53,-1l1,-2l0.44,-1l0.56,-1l0.44,-1l0.56,-1l0.44,-1l0.56,-1l0.44,-1l0.56,-1l0.44,-1l0.56,-1l0.44,-1l0.56,-1l1,-2l0.44,-1l0.56,-1l0.44,-1l1,-2l0.53,-1l0.42,-1l0.44,-1l0.78,-2l0.86,-2l0.53,-1l0.44,-1l0.56,-1l0.44,-1l1,-2l0.53,-1l0.86,-2l0.7,-2l0.27,-1l0.2,-0.94l0.19,-1.56l0.03,-1.5l-1,-1l-1.5,0.03l-1.53,0.3l-0.89,0.39l-1.61,1.39l-1.19,1.89l-0.89,2l-0.78,2l-0.86,2l-0.53,1l-0.44,1l-0.56,1l-0.44,1l-0.53,1l-0.86,2l-0.78,2l-0.44,1l-0.42,1l-0.97,2l-0.56,1l-1,2l-0.44,1l-0.56,1l-0.44,1l-0.56,1l-0.97,2l-0.42,1l-0.44,1l-0.78,2l-0.86,2l-0.53,1l-1,2l-0.44,1l-0.56,1l-1,2l-0.44,1l-0.56,1l-0.44,1l-0.56,1l-0.44,1l-1,2l-0.56,1l-0.44,1l-0.56,1l-0.44,1l-0.53,1l-0.39,0.94l-0.58,1.56l-0.28,1.5l-2,0l-0.28,-1.5l-0.58,-1.56l-0.39,-0.94l-0.53,-1l-0.44,-1l-0.56,-1l-0.44,-1l-0.53,-1l-0.42,-1l-0.44,-1l-0.78,-2l-0.42,-1l-0.8,-2l-0.78,-2l-0.42,-1l-0.8,-2l-0.78,-2l-0.86,-2l-0.5,-1l-0.86,-2l-0.78,-2l-0.86,-2l-0.5,-1l-0.86,-2l-0.78,-2l-0.86,-2l-0.5,-1l-0.86,-2l-0.78,-2l-0.86,-2l-0.5,-1l-0.86,-2l-0.78,-2l-0.86,-2l-0.5,-1l-0.89,-2l-0.42,-1l-0.94,-1.94l-0.33,-0.56l-0.67,-1.5l-1.5,0l-1.56,0.08l-1.94,0.39l-1.94,0.72l-0.56,0.31l-1.5,0.5z" fill="#00c740" id="svg_1003"/>
      <path class="color166017 svgShape color00c75a" d="m93,103l1,1l-1,-1m8,0l1,1l-1,-1z" fill="#00c740" id="svg_1002"/>
      <path class="color51d039 svgShape color2cd412" d="m163.33,103.67l0,0.33l0.34,0.33l0,-0.33l-0.34,-0.33z" fill="#2cd412" id="svg_1001"/>
      <path class="color166017 svgShape color00c75a" d="m371,103l0,71l0.72,-0.78l0.03,-0.53l0.19,-0.8l0.03,-0.92l0.03,-0.97l0,-63l-0.03,-0.97l-0.03,-0.92l-0.19,-0.8l-0.03,-0.53l-0.72,-0.78m-208,2l1,1l-1,-1m24,1l1,1l-1,-1z" fill="#00c740" id="svg_1000"/>
      <path class="color51d039 svgShape color2cd412" d="m186,116l3.06,0l1.94,-0.11l1.92,-0.61l1.58,-1.39l1,-1.89l0.31,-2l-0.17,-0.97l-0.97,-1.7l-1.7,-1l-0.97,-0.22l-2,-0.03l-2,0.42l-1.89,1l-1.39,1.58l-0.53,1.92l0.09,1l0.58,1.94l0.17,0.56l0.97,1.5m113,-9l-1,-1l-3.06,0l-1.94,0.11l-1.97,0.61l-0.92,0.61l-0.78,0.78l-1,1.89l-0.19,1l0,1l0.19,0.97l1,1.7l1.7,1l0.97,0.22l1,0.08l2,-0.08l0.97,-0.22l0.92,-0.39l1.39,-1.39l0.39,-0.92l0.3,-1.97l0.03,-0.94l0,-3.06z" fill="#2cd412" id="svg_999"/>
      <path class="color166017 svgShape color00c75a" d="m103,107l1,1l-1,-1m59,0l1,1l-1,-1m23,0l1,1l-1,-1m104,0l1,1l-1,-1m-105,1l1,1l-1,-1m104,0l1,1l-1,-1m11,0l0,4l0.72,-0.78l0,-0.5l0.17,-0.72l-0.17,-1.22l-0.72,-0.78m-206,1l1,1l-1,-1m11,0l1,1l-1,-1m49,1l1,1l-1,-1m30.33,0.67l0,0.33l0.34,0.33l0,-0.33l-0.34,-0.33m104,0l0,0.66l0.34,0l0,-0.66l-0.34,0m-182.33,0.33l1,1l-1,-1m-11,1l1,1l-1,-1m58,0l1,1l-1,-1m43,0l1,1l-1,-1m-11,1l1,1l-1,-1m-78,1l1,1l-1,-1m45,0l1,1l-1,-1m8,0l1,1l-1,-1m-64,1l1,1l-1,-1m12,1l1,1l-1,-1m43,0l1,1l-1,-1m8,0l1,1l-1,-1z" fill="#00c740" id="svg_998"/>
      <path class="color695626 svgShape colorfff" d="m187,116l0.78,0.72l0.47,0.03l0.81,0.19l1.94,0.06l-0.78,-0.72l-0.47,-0.03l-0.81,-0.19l-1.94,-0.06z" fill="#fff" id="svg_997"/>
      <path class="color166017 svgShape color00c75a" d="m191,116l1,1l-1,-1m100,0l0.78,0.72l0.47,0.03l0.81,0.19l1.94,0.06l-0.78,-0.72l-0.47,-0.03l-0.81,-0.19l-1.94,-0.06m-134,2l1,1l-1,-1m-60,2l1,1l-1,-1m59,0l1,1l-1,-1m-47,1l1,1l-1,-1m39,0l1,1l-1,-1m-38,2l1,1l-1,-1m37,0l1,1l-1,-1m-48,2l1,1l-1,-1m12,0l1,1l-1,-1m35,0l1,1l-1,-1m-1,2l1,1l-1,-1m8,0l1,1l-1,-1m-41,1l1,1l-1,-1m32,1l1,1l-1,-1m-43,1l1,1l-1,-1m12,0l1,1l-1,-1m108,0l1,1l-1,-1z" fill="#00c740" id="svg_996"/>
      <path class="color51d039 svgShape color2cd412" d="m222,130l0.72,0.72l0.53,0.03l1.75,0.25l-0.72,-0.72l-0.53,-0.03l-1.75,-0.25z" fill="#2cd412" id="svg_995"/>
      <path class="color166017 svgShape color00c75a" d="m225,130l1,1l-1,-1z" fill="#00c740" id="svg_994"/>
      <path class="colorc7a559 svgShape colorf7bf42" d="m259,130l0.72,0.72l0.53,0.03l1.75,0.25l-0.72,-0.72l-0.53,-0.03l-1.75,-0.25z" fill="#f7bf42" id="svg_993"/>
      <path class="color166017 svgShape color00c75a" d="m344,130l0.72,0.72l0.53,0.03l1.75,0.25l-0.72,-0.72l-0.53,-0.03l-1.75,-0.25m9.67,0.33l0.33,0.34l0.33,0l-0.33,-0.34l-0.33,0m7.66,0.34l0,0.66l0.34,0l0,-0.33l-0.34,-0.33m-210.33,0.33l1,1l-1,-1m35,0l0.72,0.72l0.53,0.03l1.75,0.25l-0.72,-0.72l-0.53,-0.03l-1.75,-0.25z" fill="#00c740" id="svg_992"/>
      <path class="color51d039 svgShape color2cd412" d="m185,132l0,2.06l-0.03,1l-0.05,0.94l-0.31,2l-0.22,1l-0.31,2l-0.05,1l-0.03,2l0,17l0.03,1l0.05,1l0.31,2l0.22,1l0.31,2l0.05,1l0.03,2l0,1l0.06,1.94l0.19,1l0.03,0.56l0.72,1.5l2.06,-0.56l1.88,-0.13l1.56,0.27l1.5,0.42l0,-35l0.03,-2l0.05,-1l0.31,-2l0.39,-1.94l0.19,-1.56l0.03,-1.5l-1.5,-0.08l-0.56,-0.11l-1.94,-0.2l-1,0l-1.94,0.2l-0.56,0.11l-1.5,0.08z" fill="#2cd412" id="svg_991"/>
      <path class="color166017 svgShape color00c75a" d="m190,131l0.78,0.72l0.47,0.03l0.81,0.19l1.94,0.06l-0.78,-0.72l-0.47,-0.03l-0.81,-0.19l-1.94,-0.06z" fill="#00c740" id="svg_990"/>
      <path class="color695626 svgShape colorfff" d="m219,131l1,1l-1,-1z" fill="#fff" id="svg_989"/>
      <path class="color96e133 svgShape color8fef2a" d="m218,132l0,2.06l0.08,1.94l0.17,1l0.22,1l0.78,2l0.53,1l1,2l0.44,1l0.56,1l0.44,1l0.56,1l0.44,1l1,2l0.56,1l0.44,1l0.56,1l0.44,1l0.56,1l1,2l0.44,1l0.56,1l0.44,1l0.56,1l0.44,1l0.56,1l1,2l0.44,1l1.03,1.89l0.56,0.78l0.97,0.97l1.22,0.36l0.11,2.06l0.2,1l0.75,1.88l0.88,1.56l1.06,1.5l1.5,-0.44l0.53,-0.25l0.94,-0.42l1.56,-1.2l0.64,-0.8l1.19,-1.89l1.03,-2l0.75,-2l0.33,-0.97l0.95,-1.81l1.19,-1.61l1.14,-1.69l1.03,-1.92l0.44,-1l1,-2l0.56,-1l0.44,-1l0.56,-1l1,-2l0.44,-1l0.56,-1l0.44,-1l0.56,-1l0.97,-2l0.42,-1l0.44,-1l0.78,-2l0.86,-2l0.97,-2l0.53,-1l0.78,-2l0.22,-0.94l0.22,-1.56l0.03,-1.5l-1,-1l-4,0l-1,1.5l-0.22,0.56l-1,1.94l-1,2l-0.53,1l-0.42,1l-0.44,1l-0.78,2l-0.86,2l-0.53,1l-0.44,1l-0.56,1l-1,2l-0.44,1l-1,2l-0.56,1l-0.44,1l-0.56,1l-0.44,1l-0.56,1l-0.44,1l-0.56,1l-0.97,1.94l-0.42,1l-0.33,0.56l-0.5,1.5l-1.22,-1.5l-0.97,-1.56l-0.56,-0.94l-0.47,-1l-0.56,-1l-0.44,-1l-0.56,-1l-0.44,-1l-0.56,-1l-0.44,-1l-1,-2l-0.53,-1l-0.42,-1l-0.44,-1l-0.78,-2l-0.44,-1l-0.42,-1l-0.53,-1l-1,-2l-0.44,-1l-0.56,-1l-0.44,-1l-0.56,-1l-0.44,-1l-0.97,-1.94l-0.59,-1l-0.22,-0.56l-1,-1.5l-2.06,0l-1,0.03l-0.94,0.05l-1.94,0.34l-2.06,0.58z" fill="#8fef2a" id="svg_988"/>
      <path class="color166017 svgShape color00c75a" d="m258,131l1,1l-1,-1z" fill="#00c740" id="svg_987"/>
      <path class="color695626 svgShape colorfff" d="m263,131l1,1l-1,-1z" fill="#fff" id="svg_986"/>
      <path class="color166017 svgShape color00c75a" d="m290.67,131.33l0.33,0.34l0.33,0l-0.33,-0.34l-0.33,0z" fill="#00c740" id="svg_985"/>
      <path class="color51d039 svgShape color2cd412" d="m289,132l-0.08,1.5l-0.14,0.56l-0.17,1l-0.22,0.94l-0.28,2l0,1l0.28,2l0.22,1l0.31,2l0.05,1l0.03,1l0,8l-0.03,2l-0.05,1l-0.31,2l-0.22,1l-0.31,2l-0.05,1l-0.03,2l0,3l0.03,1l0.05,1l0.31,2l0.22,0.94l0.17,1l0.14,0.56l0.08,1.5l2.06,0l1,0.03l0.94,0.05l1.94,0.34l2.06,0.58l0,-11l0.03,-2l0.05,-1l0.31,-2l0.22,-1l0.31,-2l0.05,-1l0.03,-2l0,-22l-1.5,-0.81l-0.56,-0.16l-1.94,-0.53l-1.94,-0.03l-1.56,0.28l-1.5,0.25z" fill="#2cd412" id="svg_984"/>
      <path class="color166017 svgShape color00c75a" d="m294,131l0.72,0.72l0.53,0.03l1.75,0.25l-0.72,-0.72l-0.53,-0.03l-1.75,-0.25z" fill="#00c740" id="svg_983"/>
      <path class="color51d039 svgShape color2cd412" d="m354,131l0.72,0.72l0.53,0.03l1.75,0.25l-0.72,-0.72l-0.53,-0.03l-1.75,-0.25z" fill="#2cd412" id="svg_982"/>
      <path class="color166017 svgShape color00c75a" d="m357.67,131.33l0.33,0.34l0.33,0l-0.33,-0.34l-0.33,0z" fill="#00c740" id="svg_981"/>
      <path class="color695626 svgShape colorfff" d="m264.33,132.67l0,0.66l0.34,0l0,-0.66l-0.34,0z" fill="#fff" id="svg_980"/>
      <path class="color166017 svgShape color00c75a" d="m297,132l1,1l-1,-1m-113,1l0,6l0.72,-0.78l0.03,-0.53l0.19,-0.8l0,-1.78l-0.19,-0.8l-0.03,-0.53l-0.72,-0.78z" fill="#00c740" id="svg_979"/>
      <path class="colorc7a559 svgShape colorf7bf42" d="m217.33,133.67l0,0.33l0.34,0.33l0,-0.33l-0.34,-0.33z" fill="#f7bf42" id="svg_978"/>
      <path class="color695626 svgShape colorfff" d="m227,133l1,1l-1,-1z" fill="#fff" id="svg_977"/>
      <path class="color166017 svgShape color00c75a" d="m257,133l1,1l-1,-1m31,0l0,3l0.69,-0.75l0,-1.5l-0.69,-0.75m49,0l1,1l-1,-1m-2,1l1,1l-1,-1m-220,1l1,1l-1,-1m34,0l1,1l-1,-1z" fill="#00c740" id="svg_976"/>
      <path class="color695626 svgShape colorfff" d="m217,135l1,1l-1,-1m11,0l1,1l-1,-1z" fill="#fff" id="svg_975"/>
      <path class="color166017 svgShape color00c75a" d="m256,135l1,1l-1,-1m78,0l1,1l-1,-1z" fill="#00c740" id="svg_974"/>
      <path class="color96e133 svgShape color8fef2a" d="m193,136l0,40l0.72,-0.78l0.03,-0.53l0.19,-0.8l0.03,-0.92l0.03,-1.97l0,-30l-0.03,-1.97l-0.03,-0.92l-0.19,-0.8l-0.03,-0.53l-0.72,-0.78z" fill="#8fef2a" id="svg_973"/>
      <path class="color51d039 svgShape color2cd412" d="m346,136l0.78,0.72l0.53,0.03l0.8,0.19l0.92,0.03l1.97,0.03l5,0l-0.78,-0.72l-0.53,-0.03l-0.8,-0.19l-0.92,-0.03l-1.97,-0.03l-5,0z" fill="#2cd412" id="svg_972"/>
      <path class="color166017 svgShape color00c75a" d="m104,137l1,1l-1,-1m12,0l1,1l-1,-1z" fill="#00c740" id="svg_971"/>
      <path class="color695626 svgShape colorfff" d="m229,137l1,1l-1,-1z" fill="#fff" id="svg_970"/>
      <path class="color166017 svgShape color00c75a" d="m255,137l1,1l-1,-1z" fill="#00c740" id="svg_969"/>
      <path class="color050101 svgShape colorfff" d="m362,168l0,-23l-0.03,-2l-0.3,-1.97l-0.39,-0.92l-1.39,-1.39l-1.89,-0.61l-2,-0.19l-2,-0.31l-1,-0.22l-2,-0.31l-2,-0.05l-1,0.05l-2,0.39l-2,0.81l-1,0.58l-1,0.61l-1.97,1.61l-0.95,0.95l-1.61,1.97l-0.61,1l-1,2l-0.39,1l-0.22,1l-0.17,1l-0.08,2l0,1l0.03,2l0.05,1l0.31,2l0.25,1l0.53,2l0.3,1l1.03,2l1.58,1.97l0.95,0.95l1.97,1.58l2,1l2,0.42l2,0.16l2,0.23l2,0.08l1,-0.08l2,-0.23l2,-0.19l1,-0.2l1.94,-0.72l0.56,-0.3l1.5,-0.67z" fill="#fff" id="svg_968"/>
      <path class="color166017 svgShape color00c75a" d="m353,137l0.78,0.72l0.47,0.03l0.81,0.19l1.94,0.06l-0.78,-0.72l-0.47,-0.03l-0.81,-0.19l-1.94,-0.06m-213,1l1,1l-1,-1m122,0l1,1l-1,-1m81,0l1,1l-1,-1m-238,1l1,1l-1,-1z" fill="#00c740" id="svg_967"/>
      <path class="color695626 svgShape colorfff" d="m230,139l1,1l-1,-1z" fill="#fff" id="svg_966"/>
      <path class="color166017 svgShape color00c75a" d="m139,140l1,1l-1,-1z" fill="#00c740" id="svg_965"/>
      <path class="color695626 svgShape colorfff" d="m261,140l1,1l-1,-1z" fill="#fff" id="svg_964"/>
      <path class="color166017 svgShape color00c75a" d="m340,140l1,1l-1,-1z" fill="#00c740" id="svg_963"/>
      <path class="color695626 svgShape colorfff" d="m231,141l1,1l-1,-1z" fill="#fff" id="svg_962"/>
      <path class="color96e133 svgShape color8fef2a" d="m288,141l0,19l0.72,-0.78l0.03,-0.53l0.19,-0.8l0.03,-0.92l0.03,-0.97l0,-11l-0.03,-0.97l-0.03,-0.92l-0.19,-0.8l-0.03,-0.53l-0.72,-0.78z" fill="#8fef2a" id="svg_961"/>
      <path class="color166017 svgShape color00c75a" d="m328,141l1,1l-1,-1m11,0l1,1l-1,-1m-221,1l1,1l-1,-1m20,0l1,1l-1,-1z" fill="#00c740" id="svg_960"/>
      <path class="color695626 svgShape colorfff" d="m253,142l1,1l-1,-1m7,0l1,1l-1,-1z" fill="#fff" id="svg_959"/>
      <path class="color166017 svgShape color00c75a" d="m338,142l1,1l-1,-1m-193,1l1,1l-1,-1m87,0l1,1l-1,-1m-113,1l1,1l-1,-1m18,0l1,1l-1,-1z" fill="#00c740" id="svg_958"/>
      <path class="color695626 svgShape colorfff" d="m252,144l1,1l-1,-1z" fill="#fff" id="svg_957"/>
      <path class="color166017 svgShape color00c75a" d="m233,145l1,1l-1,-1m26,0l1,1l-1,-1m77,0l1,1l-1,-1m-228,1l1,1l-1,-1m28,0l1,1l-1,-1z" fill="#00c740" id="svg_956"/>
      <path class="color695626 svgShape colorfff" d="m251,146l1,1l-1,-1z" fill="#fff" id="svg_955"/>
      <path class="color166017 svgShape color00c75a" d="m120,147l1,1l-1,-1m138,0l1,1l-1,-1m67,0l1,1l-1,-1m-216,1l1,1l-1,-1m26,0l1,1l-1,-1m88,0l1,1l-1,-1z" fill="#00c740" id="svg_954"/>
      <path class="colorc7a559 svgShape colorf7bf42" d="m234,148l1,1l-1,-1z" fill="#f7bf42" id="svg_953"/>
      <path class="color695626 svgShape colorfff" d="m250,148l1,1l-1,-1z" fill="#fff" id="svg_952"/>
      <path class="color166017 svgShape color00c75a" d="m121,149l1,1l-1,-1m21,0l1,1l-1,-1z" fill="#00c740" id="svg_951"/>
      <path class="color695626 svgShape colorfff" d="m257,149l1,1l-1,-1z" fill="#fff" id="svg_950"/>
      <path class="color166017 svgShape color00c75a" d="m134,150l1,1l-1,-1m90,0l1,1l-1,-1z" fill="#00c740" id="svg_949"/>
      <path class="color51d039 svgShape color2cd412" d="m235,150l1,1l-1,-1z" fill="#2cd412" id="svg_948"/>
      <path class="color166017 svgShape color00c75a" d="m249,150l1,1l-1,-1m75,0l0,9l0.72,-0.78l0.03,-0.53l0.19,-0.8l0.03,-0.92l0.03,-1.97l-0.06,-1.89l-0.19,-0.8l-0.03,-0.53l-0.72,-0.78z" fill="#00c740" id="svg_947"/>
      <path class="color695626 svgShape colorfff" d="m256,151l1,1l-1,-1z" fill="#fff" id="svg_946"/>
      <path class="color166017 svgShape color00c75a" d="m122,152l1,1l-1,-1m11,0l1,1l-1,-1z" fill="#00c740" id="svg_945"/>
      <path class="color695626 svgShape colorfff" d="m225,152l1,1l-1,-1m11,0l1,1l-1,-1z" fill="#fff" id="svg_944"/>
      <path class="color166017 svgShape color00c75a" d="m248,152l1,1l-1,-1m86,0l0,3l0.69,-0.75l0,-1.5l-0.69,-0.75z" fill="#00c740" id="svg_943"/>
      <path class="color51d039 svgShape color2cd412" d="m255,153l1,1l-1,-1z" fill="#2cd412" id="svg_942"/>
      <path class="color166017 svgShape color00c75a" d="m123,154l1,1l-1,-1m9,0l1,1l-1,-1z" fill="#00c740" id="svg_941"/>
      <path class="color695626 svgShape colorfff" d="m226,154l1,1l-1,-1z" fill="#fff" id="svg_940"/>
      <path class="color166017 svgShape color00c75a" d="m237,154l1,1l-1,-1z" fill="#00c740" id="svg_939"/>
      <path class="color695626 svgShape colorfff" d="m254,155l1,1l-1,-1z" fill="#fff" id="svg_938"/>
      <path class="color51d039 svgShape color2cd412" d="m334,155l0,3l0.69,-0.75l0,-1.5l-0.69,-0.75z" fill="#2cd412" id="svg_937"/>
      <path class="color695626 svgShape colorfff" d="m227,156l1,1l-1,-1z" fill="#fff" id="svg_936"/>
      <path class="color166017 svgShape color00c75a" d="m238,156l1,1l-1,-1m-125,1l1,1l-1,-1z" fill="#00c740" id="svg_935"/>
      <path class="color695626 svgShape colorfff" d="m253,157l1,1l-1,-1z" fill="#fff" id="svg_934"/>
      <path class="color166017 svgShape color00c75a" d="m125,158l1,1l-1,-1m5,0l1,1l-1,-1z" fill="#00c740" id="svg_933"/>
      <path class="color695626 svgShape colorfff" d="m228,158l1,1l-1,-1z" fill="#fff" id="svg_932"/>
      <path class="color166017 svgShape color00c75a" d="m239,158l1,1l-1,-1m96.33,0.67l0,0.66l0.34,0l0,-0.66l-0.34,0m-221.33,0.33l1,1l-1,-1z" fill="#00c740" id="svg_931"/>
      <path class="color695626 svgShape colorfff" d="m252,159l1,1l-1,-1m-23,1l1,1l-1,-1m11,0l1,1l-1,-1z" fill="#fff" id="svg_930"/>
      <path class="color166017 svgShape color00c75a" d="m244,160l1,1l-1,-1z" fill="#00c740" id="svg_929"/>
      <path class="color96e133 svgShape color8fef2a" d="m297,160l0,16l0.72,-0.78l0.03,-0.53l0.19,-0.8l0.03,-0.92l0.03,-1.97l0,-6l-0.03,-1.97l-0.03,-0.92l-0.19,-0.8l-0.03,-0.53l-0.72,-0.78z" fill="#8fef2a" id="svg_928"/>
      <path class="color166017 svgShape color00c75a" d="m115,161l1,1l-1,-1z" fill="#00c740" id="svg_927"/>
      <path class="color695626 svgShape colorfff" d="m251,161l1,1l-1,-1z" fill="#fff" id="svg_926"/>
      <path class="color166017 svgShape color00c75a" d="m127.67,162.33l0.33,0.34l0.33,0l-0.33,-0.34l-0.33,0z" fill="#00c740" id="svg_925"/>
      <path class="color695626 svgShape colorfff" d="m230,162l1,1l-1,-1m11,0l1,1l-1,-1z" fill="#fff" id="svg_924"/>
      <path class="colorc7a559 svgShape colorf7bf42" d="m243,162l1,1l-1,-1z" fill="#f7bf42" id="svg_923"/>
      <path class="color166017 svgShape color00c75a" d="m325.33,162.67l0,0.66l0.34,0l0,-0.66l-0.34,0m-209.33,0.33l1,1l-1,-1m126,0l1,1l-1,-1z" fill="#00c740" id="svg_922"/>
      <path class="color695626 svgShape colorfff" d="m250,163l1,1l-1,-1m-19,1l1,1l-1,-1z" fill="#fff" id="svg_921"/>
      <path class="color166017 svgShape color00c75a" d="m117,165l1,1l-1,-1m67,0l0,9l0.72,-0.78l0.03,-0.53l0.19,-0.8l0.06,-1.89l-0.03,-1.97l-0.03,-0.92l-0.19,-0.8l-0.03,-0.53l-0.72,-0.78z" fill="#00c740" id="svg_920"/>
      <path class="colorbecf60 svgShape colorf7bf42" d="m248,165l-0.42,1.44l-0.33,1.12l-0.25,1.44l0.97,-0.78l0.14,-0.5l0.39,-0.72l0.14,-1.22l-0.64,-0.78z" fill="#f7bf42" id="svg_919"/>
      <path class="color695626 svgShape colorfff" d="m249,165l1,1l-1,-1z" fill="#fff" id="svg_918"/>
      <path class="color166017 svgShape color00c75a" d="m326,165l1,1l-1,-1z" fill="#00c740" id="svg_917"/>
      <path class="color695626 svgShape colorfff" d="m232,166l1,1l-1,-1z" fill="#fff" id="svg_916"/>
      <path class="color166017 svgShape color00c75a" d="m339,166l1,1l-1,-1m-91,1l1,1l-1,-1m79,0l1,1l-1,-1m13,0l1,1l-1,-1m-107,1l1,1l-1,-1m127,0l1,1l-1,-1m-241,1l1,1l-1,-1m115,1l1,1l-1,-1z" fill="#00c740" id="svg_915"/>
      <path class="colorbecf60 svgShape colorf7bf42" d="m235.33,170.67l0,0.33l0.34,0.33l0,-0.33l-0.34,-0.33z" fill="#f7bf42" id="svg_914"/>
      <path class="color166017 svgShape color00c75a" d="m329,170l1,1l-1,-1m17,0l0.78,0.72l0.53,0.03l0.75,0.19l0.91,0.03l2.03,0.03l-0.78,-0.72l-0.53,-0.03l-0.75,-0.19l-0.91,-0.03l-2.03,-0.03m6,0l0.78,0.72l0.47,0.03l0.81,0.19l1.94,0.06l-0.78,-0.72l-0.47,-0.03l-0.81,-0.19l-1.94,-0.06m-232,1l1,1l-1,-1m115,1l1,1l-1,-1z" fill="#00c740" id="svg_913"/>
      <path class="color51d039 svgShape color2cd412" d="m245,172l1,1l-1,-1z" fill="#2cd412" id="svg_912"/>
      <path class="color166017 svgShape color00c75a" d="m288,172l0,4l0.72,-0.78l0.17,-1.22l-0.17,-0.72l0,-0.5l-0.72,-0.78m43,0l1,1l-1,-1m-210,1l1,1l-1,-1m211,0l1,1l-1,-1m29,0l1,1l-1,-1m-125,1l1,1l-1,-1z" fill="#00c740" id="svg_911"/>
      <path class="color695626 svgShape colorfff" d="m244,174l1,1l-1,-1z" fill="#fff" id="svg_910"/>
      <path class="color51d039 svgShape color2cd412" d="m357.67,174.33l0.33,0.34l0.33,0l0,-0.34l-0.66,0z" fill="#2cd412" id="svg_909"/>
      <path class="color166017 svgShape color00c75a" d="m359,174l1,1l-1,-1m-237,1l1,1l-1,-1z" fill="#00c740" id="svg_908"/>
      <path class="colorc7a559 svgShape colorf7bf42" d="m237,175l1,1l-1,-1z" fill="#f7bf42" id="svg_907"/>
      <path class="color166017 svgShape color00c75a" d="m335,175l1,1l-1,-1m22,0l1,1l-1,-1m5.33,0.67l0,0.66l0.34,0l0,-0.66l-0.34,0m-239.33,0.33l1,1l-1,-1z" fill="#00c740" id="svg_906"/>
      <path class="color695626 svgShape colorfff" d="m185,176l1,1l-1,-1z" fill="#fff" id="svg_905"/>
      <path class="color96e133 svgShape color8fef2a" d="m187,176l0.78,0.72l0.53,0.03l0.75,0.19l0.91,0.03l2.03,0.03l-0.78,-0.72l-0.53,-0.03l-0.75,-0.19l-0.91,-0.03l-2.03,-0.03z" fill="#8fef2a" id="svg_904"/>
      <path class="color695626 svgShape colorfff" d="m193,176l1,1l-1,-1z" fill="#fff" id="svg_903"/>
      <path class="color96e133 svgShape color8fef2a" d="m289,176l0.78,0.72l0.53,0.03l0.8,0.19l0.92,0.03l0.91,0.03l3.06,0l-0.78,-0.72l-0.53,-0.03l-0.8,-0.19l-0.92,-0.03l-0.91,-0.03l-3.06,0z" fill="#8fef2a" id="svg_902"/>
      <path class="color166017 svgShape color00c75a" d="m297,176l1,1l-1,-1m40,0l1,1l-1,-1m17,0l1,1l-1,-1z" fill="#00c740" id="svg_901"/>
      <path class="color51d039 svgShape color2cd412" d="m363,176l0.78,0.72l0.53,0.03l0.8,0.19l0.86,0.03l0.97,0.03l2.06,0l-0.78,-0.72l-0.53,-0.03l-0.8,-0.19l-0.86,-0.03l-0.97,-0.03l-2.06,0m-237.33,1.33l0,0.34l0.66,0l0,-0.34l-0.66,0z" fill="#2cd412" id="svg_900"/>
      <path class="colorbecf60 svgShape colorf7bf42" d="m240.67,177.33l0,0.34l0.66,0l0,-0.34l-0.66,0z" fill="#f7bf42" id="svg_899"/>
      <path class="color166017 svgShape color00c75a" d="m242,177l1,1l-1,-1m98,0l1,1l-1,-1m9.67,0.33l0.33,0.34l0.33,0l0,-0.34l-0.66,0z" fill="#00c740" id="svg_898"/>
      <path class="color695626 svgShape colorfff" d="m154,194l-1,1l0,2l0.94,-0.75l0.14,-0.44l0.36,-1.06l-0.44,-0.75z" fill="#fff" id="svg_897"/>
      <path class="colorc7a559 svgShape colorf7bf42" d="m155,194l-0.72,1.44l-0.03,0.56l-0.25,2l1.39,-0.11l0.94,-0.61l0.34,-0.56l0.3,-1.25l0.03,-1.47l-2,0z" fill="#f7bf42" id="svg_896"/>
      <path class="color695626 svgShape colorfff" d="m384,194l-1,1l0,2l0.94,-0.75l0.14,-0.44l0.36,-1.06l-0.44,-0.75z" fill="#fff" id="svg_895"/>
      <path class="colorc7a559 svgShape colorf7bf42" d="m385,194l-0.72,1.44l-0.03,0.56l-0.25,2l3,0l-0.11,-1.47l-0.56,-1.28l-0.19,-0.47l-1.14,-0.78z" fill="#f7bf42" id="svg_894"/>
      <path class="color695626 svgShape colorfff" d="m386,194l1,1l-1,-1m-330,1l1,1l-1,-1z" fill="#fff" id="svg_893"/>
      <path class="colorc7a559 svgShape colorf7bf42" d="m69,213l-1.5,-0.64l-0.56,0.14l-1,0.03l-1.94,0.64l-1,0.36l-2,0.36l-1,0l-2,-0.39l-1.92,-1l-1.61,-1.58l-0.61,-0.95l-0.97,-1.97l-0.33,-1l0,-2l0.33,-1l0.39,-1l1.19,-1.92l1.61,-1.58l1.92,-1l2,-0.39l1,0l2,0.36l1,0.36l1.94,0.64l1,0.03l0.56,0.14l1.5,-0.64l-0.78,-1.39l-1.33,-1.03l-0.92,-0.47l-1.97,-0.69l-2,-0.34l-2,-0.05l-1,0.05l-2,0.39l-1,0.39l-1.97,1l-0.95,0.61l-1.61,1.61l-1.19,1.92l-0.42,1l-0.61,2l-0.14,1l0.11,2l0.47,2l0.73,2l1.08,1.92l1.58,1.61l0.95,0.61l1.97,1l1,0.39l2,0.39l1,0.05l2,-0.05l2,-0.34l1.97,-0.69l0.92,-0.47l1.33,-1.03l0.78,-1.39z" fill="#f7bf42" id="svg_892"/>
      <path class="color695626 svgShape colorfff" d="m64,195l1,1l-1,-1m93.33,0.67l0,0.66l0.34,0l0,-0.66l-0.34,0m64.67,-0.67l1,1l-1,-1z" fill="#fff" id="svg_891"/>
      <path class="colorc7a559 svgShape colorf7bf42" d="m235,213l-1.5,-0.64l-0.56,0.14l-1,0.03l-1.94,0.64l-1,0.36l-2,0.36l-1,-0.03l-2,-0.5l-1.92,-1.08l-0.83,-0.7l-0.78,-0.8l-1.19,-1.81l-0.39,-0.97l-0.39,-2l0.08,-1l0.39,-1l1.28,-2l0.83,-0.97l0.95,-0.92l0.97,-0.78l2,-1l2,-0.22l2,0.36l1,0.36l1.94,0.64l1,0.03l0.56,0.14l1.5,-0.64l-0.78,-1.39l-0.53,-0.36l-0.8,-0.67l-1.89,-0.86l-1,-0.3l-2,-0.34l-2,-0.05l-2,0.22l-1,0.25l-1.97,0.92l-0.95,0.61l-0.83,0.66l-0.78,0.73l-1.19,1.66l-0.42,0.95l-0.39,0.97l-0.39,2l-0.05,1l0,2l0.05,1l0.39,2l0.39,0.97l0.42,0.95l0.58,0.86l0.61,0.8l1.61,1.39l0.95,0.61l1.97,0.92l1,0.25l2,0.22l1,0l2,-0.19l1,-0.2l1,-0.3l1.89,-0.86l0.8,-0.67l0.53,-0.36l0.78,-1.39z" fill="#f7bf42" id="svg_890"/>
      <path class="color695626 svgShape colorfff" d="m230.67,195.33l0.33,0.34l0.33,0l0,-0.34l-0.66,0m156.66,0.34l0,0.66l0.34,0l0,-0.66l-0.34,0m-333.33,0.33l1,1l-1,-1m166,0l1,1l-1,-1m-83,1l0,3l0.69,-0.75l0,-1.5l-0.69,-0.75z" fill="#fff" id="svg_889"/>
      <path class="colorc7a559 svgShape colorf7bf42" d="m138,197l-0.36,1.39l-0.31,0.33l-0.94,0.92l-1.39,0.36l0,3l3,0l0,8l0.11,2l0.22,0.97l0.39,0.92l1.39,1.39l0.92,0.39l0.97,0.19l0.97,0l1.7,-0.53l0.97,-0.94l0.36,-1.39l-5,0l0,-11l4,0l0,-3l-1.47,-0.11l-1.25,-0.56l-0.92,-0.94l-0.36,-1.39l-3,0z" fill="#f7bf42" id="svg_888"/>
      <path class="color695626 svgShape colorfff" d="m219,197l1,1l-1,-1m15,0l1,1l-1,-1m56,0l0,3l0.69,-0.75l0,-1.5l-0.69,-0.75z" fill="#fff" id="svg_887"/>
      <path class="colorc7a559 svgShape colorf7bf42" d="m291,197l-0.36,1.39l-0.31,0.33l-0.94,0.92l-1.39,0.36l0,3l3,0l0,8l0.11,2l0.22,0.97l0.39,0.92l1.39,1.39l0.92,0.39l0.97,0.19l0.97,0l1.7,-0.53l0.97,-0.94l0.36,-1.39l-5,0l0,-11l4,0l0,-3l-1.47,-0.11l-1.25,-0.56l-0.92,-0.94l-0.36,-1.39l-3,0m76,0l-0.67,1.75l-0.19,0.53l-1.14,0.72l0,3l2,0l0,6l0.08,2l0.42,2l0.44,0.97l0.56,0.92l1.58,1.39l0.95,0.39l1.94,0.19l1.7,-0.53l0.97,-0.94l0.36,-1.39l-5,0l-1,-1l0,-10l5,0l0,-3l-1.5,-0.03l-1.44,-0.3l-0.73,-0.34l-0.97,-0.94l-0.36,-1.39l-3,0z" fill="#f7bf42" id="svg_886"/>
      <path class="color695626 svgShape colorfff" d="m370,197l0,3l0.69,-0.75l0,-1.5l-0.69,-0.75m-313,1l1,1l-1,-1m5.67,0.33l0.33,0.34l0.33,0l-0.33,-0.34l-0.33,0m160.33,-0.33l1,1l-1,-1m5.67,0.33l0,0.34l0.66,0l-0.33,-0.34l-0.33,0m-173.67,0.67l1,1l-1,-1m10,0l1,1l-1,-1m152,0l1,1l-1,-1m14,0l1,1l-1,-1m3,0l1,1l-1,-1m-184,1l1,1l-1,-1m4,0l1,1l-1,-1z" fill="#fff" id="svg_885"/>
      <path class="colorc7a559 svgShape colorf7bf42" d="m77,200l0,17l3,0l0,-7l0.11,-2l0.61,-1.97l1.39,-1.7l0.86,-0.61l1.53,-0.61l1.5,-0.11l0,-3l-2.06,0.06l-1.94,0.11l-1,0.05l-1.94,-0.08l-0.56,-0.08l-1.5,-0.06z" fill="#f7bf42" id="svg_884"/>
      <path class="color695626 svgShape colorfff" d="m81,200l1,1l-1,-1m15,0l1,1l-1,-1z" fill="#fff" id="svg_883"/>
      <path class="colorc7a559 svgShape colorf7bf42" d="m106,212l-1.5,0.33l-0.56,0.28l-1.94,0.78l-2,0.39l-1.94,-0.45l-1,-0.61l-2.06,-1.72l1.5,-0.25l1.56,-0.36l0.94,-0.2l2,-0.38l1,-0.2l1,-0.22l1.94,-0.31l2.06,-0.08l-0.08,-2.06l-0.42,-1.94l-1,-1.92l-1.58,-1.58l-1.92,-1l-2,-0.39l-1,0l-2,0.39l-1.97,1l-1.7,1.58l-0.61,0.95l-0.39,0.97l-0.3,2l-0.03,1l0.03,2l0.08,1l0.22,1l0.39,0.97l1.39,1.78l0.92,0.75l1.97,1l2,0.42l2,0l1.97,-0.42l0.92,-0.44l1.39,-1.25l0.39,-0.84l0.33,-1.97z" fill="#f7bf42" id="svg_882"/>
      <path class="color695626 svgShape colorfff" d="m102,200l1,1l-1,-1m15,0l1,1l-1,-1z" fill="#fff" id="svg_881"/>
      <path class="colorc7a559 svgShape colorf7bf42" d="m114,204l1.5,0.44l0.56,-0.16l1,-0.17l1.94,-0.61l2,-0.08l1.89,0.86l1.33,1.25l0.78,1.47l-3.06,0l-1.94,0.03l-1.97,0.22l-0.95,0.25l-1.58,1l-1,1.58l-0.33,1.92l0.33,1.92l1,1.58l0.75,0.56l0.83,0.44l1.92,0.42l2,0.02l1,-0.08l2,-0.08l1.94,0.08l0.56,0.08l1.5,0.06l0,-6l-0.03,-2l-0.05,-1l-0.34,-2l-0.3,-1l-0.92,-1.89l-0.67,-0.8l-0.8,-0.67l-1.89,-0.92l-2,-0.47l-1,-0.08l-2,0.3l-1.89,0.81l-0.78,0.53l-0.97,0.97l-0.36,1.22z" fill="#f7bf42" id="svg_880"/>
      <path class="color695626 svgShape colorfff" d="m122.67,200.33l0,0.34l0.66,0l-0.33,-0.34l-0.33,0m22.33,-0.33l0,3l0.69,-0.75l0,-1.5l-0.69,-0.75z" fill="#fff" id="svg_879"/>
      <path class="colorc7a559 svgShape colorf7bf42" d="m154,200l0,17l3,0l0,-17l-3,0z" fill="#f7bf42" id="svg_878"/>
      <path class="color695626 svgShape colorfff" d="m163,200l1,1l-1,-1z" fill="#fff" id="svg_877"/>
      <path class="colorc7a559 svgShape colorf7bf42" d="m164,200l0.25,1.5l0.17,0.56l0.27,1l0.7,1.94l0.86,2l0.53,1l0.44,1l0.53,1l0.42,1l0.44,1l0.81,1.97l0.5,0.92l1.27,1.39l0.84,0.39l1.97,0.33l0.28,-1.5l0.58,-1.56l0.39,-0.94l0.53,-1l0.44,-1l0.56,-1l0.44,-1l0.53,-1l0.42,-1l0.44,-1l0.78,-2l0.8,-1.94l0.31,-0.56l0.5,-1.5l-1.97,0.33l-0.84,0.39l-1.27,1.39l-0.5,0.92l-0.81,1.97l-0.44,1l-0.42,1l-0.94,1.94l-0.59,1l-0.22,0.56l-1,1.5l-0.5,-1.5l-0.33,-0.56l-0.42,-1l-0.53,-0.94l-0.97,-2l-0.42,-1l-0.44,-1l-0.72,-1.94l-0.23,-0.56l-0.44,-1.5l-3,0z" fill="#f7bf42" id="svg_876"/>
      <path class="color695626 svgShape colorfff" d="m177,200l1,1l-1,-1m13,0l1,1l-1,-1z" fill="#fff" id="svg_875"/>
      <path class="colorc7a559 svgShape colorf7bf42" d="m199,212l-1.5,0.67l-0.56,0.3l-1.94,0.7l-1,0.11l-1.94,-0.45l-1,-0.61l-2.06,-1.72l1.5,-0.25l1.56,-0.36l0.94,-0.2l2,-0.38l1,-0.2l1,-0.22l1.94,-0.31l2.06,-0.08l-0.08,-2.06l-0.42,-1.94l-1,-1.92l-1.58,-1.58l-1.92,-1l-2,-0.39l-1,0l-2,0.39l-1.97,1l-0.95,0.75l-0.83,0.83l-0.75,0.95l-1,1.97l-0.25,1l-0.14,2l0.39,2l1,1.97l0.75,0.95l1.78,1.58l1.97,1l1,0.25l1,0.17l2,0l1.97,-0.42l0.92,-0.44l1.33,-1.25l0.39,-1.34l-0.61,-1.47z" fill="#f7bf42" id="svg_874"/>
      <path class="color695626 svgShape colorfff" d="m196,200l1,1l-1,-1m37,0l1,1l-1,-1z" fill="#fff" id="svg_873"/>
      <path class="colorc7a559 svgShape colorf7bf42" d="m246,200.5l-1.92,1l-1.58,1.58l-1,1.92l-0.25,1l-0.17,1l-0.05,2l0.05,1l0.42,2l0.44,0.97l0.56,0.95l0.75,0.83l0.83,0.75l1.92,1l2,0.42l1,0.02l2,-0.19l1,-0.25l1.92,-1l1.58,-1.58l1,-1.92l0.25,-1l0.17,-1l0.05,-2l-0.05,-1l-0.42,-2l-0.44,-0.97l-0.56,-0.92l-1.58,-1.42l-1.92,-0.8l-1,-0.25l-1,-0.25l-2,-0.22l-1,0.11l-1,0.22z" fill="#f7bf42" id="svg_872"/>
      <path class="color695626 svgShape colorfff" d="m250.67,200.33l0,0.34l0.66,0l-0.33,-0.34l-0.33,0m14.33,-0.33l0,17l0.72,-0.78l0.03,-0.53l0.19,-0.8l0.03,-0.92l0.03,-0.97l0,-8l-0.03,-1.97l-0.03,-0.92l-0.19,-0.8l-0.03,-0.53l-0.72,-0.78z" fill="#fff" id="svg_871"/>
      <path class="colorc7a559 svgShape colorf7bf42" d="m266,200l0,16l2,0l0,-3.06l0.08,-1.94l0.34,-2l0.69,-2l1.2,-1.89l1.72,-1.39l0.91,-0.39l1.56,-0.3l1.5,-0.03l0.5,1.5l0.31,0.56l0.72,1.94l0.22,1l0.17,1l0.08,2l0,6l3,0l0,-9l-0.17,-1l-0.16,-1l-0.67,-2l-0.5,-1l-1.5,-1.67l-2,-1l-1,-0.16l-1,-0.17l-1,0l-2,0.33l-1,0.5l-1.5,0.34l-0.5,-0.34l-0.83,-0.66l-1.17,-0.17z" fill="#f7bf42" id="svg_870"/>
      <path class="color695626 svgShape colorfff" d="m268.33,200.67l0,0.33l0.34,0.33l0,-0.66l-0.34,0m1.67,-0.67l1,1l-1,-1m6,0l1,1l-1,-1m22,0l0,3l0.69,-0.75l0,-1.5l-0.69,-0.75z" fill="#fff" id="svg_869"/>
      <path class="colorc7a559 svgShape colorf7bf42" d="m307,200l0,17l3,0l0,-6l0.08,-2l0.42,-2l1,-1.89l0.69,-0.78l1.34,-0.97l1.47,-0.36l0,-2l-1,-1l-1.75,0.67l-0.53,0.19l-0.72,1.14l-1.08,-1.14l-1.14,-0.58l-0.36,-0.17l-1.42,-0.11z" fill="#f7bf42" id="svg_868"/>
      <path class="colorbecf60 svgShape colorf7bf42" d="m314,200l0,1l1,2l0.72,-0.72l0.03,-0.53l0.25,-1.75l-2,0z" fill="#f7bf42" id="svg_867"/>
      <path class="color695626 svgShape colorfff" d="m326,200l1,1l-1,-1z" fill="#fff" id="svg_866"/>
      <path class="colorc7a559 svgShape colorf7bf42" d="m323,205l1.5,-0.33l0.56,-0.28l1.94,-0.78l2,-0.39l1.89,0.5l1.39,1.34l0.72,1.94l-2.06,0l-1.94,0.03l-1,0.05l-2,0.42l-0.97,0.44l-1.7,1.31l-0.61,0.83l-0.5,1.92l0.14,1l0.36,0.97l0.61,0.92l1.7,1.39l1.97,0.61l2,0.05l1,-0.08l2,-0.08l1.94,0.08l0.56,0.08l1.5,0.06l0,-9l-0.08,-2l-0.42,-1.97l-0.44,-0.92l-0.56,-0.8l-0.75,-0.67l-1.78,-0.92l-0.97,-0.3l-2,-0.25l-2,0.25l-1.89,0.69l-1.39,1.14l-0.39,0.81l-0.33,1.94z" fill="#f7bf42" id="svg_865"/>
      <path class="color695626 svgShape colorfff" d="m331.67,200.33l0,0.34l0.66,0l0,-0.34l-0.66,0m17.33,-0.33l1,1l-1,-1z" fill="#fff" id="svg_864"/>
      <path class="colorc7a559 svgShape colorf7bf42" d="m359,213l-1,-1l-2,0l-1.5,1.14l-1.56,0.58l-0.88,0.17l-1.56,0.11l-1.5,0l-0.5,-1.5l-0.31,-0.56l-0.69,-1.94l-0.17,-1l0.2,-1.97l0.97,-1.78l1.58,-1.31l1.92,-0.58l1,0.03l2,0.58l0.94,0.36l1,0.11l0.56,0.17l1.5,-0.61l-0.78,-1.42l-0.53,-0.39l-0.8,-0.75l-1.89,-0.94l-1,-0.25l-1,-0.14l-2,0.14l-1,0.25l-1.97,1l-1.78,1.58l-0.75,0.95l-1,1.97l-0.39,2l0,1l0.36,2l0.39,0.97l1,1.78l0.61,0.78l0.78,0.61l1.78,1l0.97,0.39l2,0.36l1,0l2,-0.39l1.89,-0.94l0.8,-0.75l0.53,-0.39l0.78,-1.42z" fill="#f7bf42" id="svg_863"/>
      <path class="color695626 svgShape colorfff" d="m355,200l1,1l-1,-1m9,0l0,3l0.69,-0.75l0,-1.5l-0.69,-0.75z" fill="#fff" id="svg_862"/>
      <path class="colorc7a559 svgShape colorf7bf42" d="m384,200l0,17l3,0l0,-17l-3,0z" fill="#f7bf42" id="svg_861"/>
      <path class="color695626 svgShape colorfff" d="m396,200l0,17l0.72,-0.78l0.03,-0.53l0.19,-0.8l0.03,-0.92l0.03,-0.97l0,-8l-0.03,-1.97l-0.03,-0.92l-0.19,-0.8l-0.03,-0.53l-0.72,-0.78z" fill="#fff" id="svg_860"/>
      <path class="colorc7a559 svgShape colorf7bf42" d="m397,200l0,17l3,0l0,-6l0.03,-2l0.08,-1l0.22,-1l0.39,-0.97l1.39,-1.7l1.89,-0.89l1,0l0.97,0.31l0.92,0.58l0.78,0.78l1,1.89l0.3,2l0.03,2l0,6l3,0l0,-7l-0.08,-2l-0.34,-2l-0.69,-1.97l-0.53,-0.95l-1.47,-1.58l-1.89,-1l-1,-0.25l-2,-0.17l-2,0.09l-1,0.05l-1.94,-0.08l-0.56,-0.08l-1.5,-0.06z" fill="#f7bf42" id="svg_859"/>
      <path class="color695626 svgShape colorfff" d="m401,200l1,1l-1,-1m6,0l1,1l-1,-1z" fill="#fff" id="svg_858"/>
      <path class="colorc7a559 svgShape colorf7bf42" d="m434,215l-0.53,1.47l-0.97,1.34l-1.58,1.25l-0.95,0.44l-1.97,0.31l-2,-0.42l-1.94,-0.72l-1,-0.11l-0.56,-0.17l-1.5,0.61l0.78,1.39l1.33,1.03l1.89,0.86l1,0.3l2,0.25l2,-0.25l1.97,-0.61l0.95,-0.39l1.58,-1.08l1.08,-1.58l0.73,-1.92l0.27,-1l0.34,-2l0.05,-1l0.03,-1l0,-12l-1.39,0.11l-0.94,0.56l-0.31,0.19l-0.36,1.14l-1.5,-0.81l-0.56,-0.16l-1.94,-0.61l-2,-0.31l-2,0.2l-1,0.33l-1.92,1.08l-1.58,1.5l-0.56,0.86l-0.44,0.95l-0.42,1.97l0,2l0.42,2l1,1.97l1.58,1.7l1.92,1l2,0.3l1,0.03l2,-0.08l1.94,-0.34l2.06,-0.58z" fill="#f7bf42" id="svg_857"/>
      <path class="color695626 svgShape colorfff" d="m430.67,200.33l0.33,0.34l0.33,0l0,-0.34l-0.66,0m2.66,0.34l0,0.66l0.34,0l0,-0.66l-0.34,0m-318.33,0.33l1,1l-1,-1m10,0l1,1l-1,-1m42,0l1,1l-1,-1m13,0l1,1l-1,-1m8,0l1,1l-1,-1m28,0l1,1l-1,-1m62,0l1,1l-1,-1m32,0l1,1l-1,-1m37,0l1,1l-1,-1m10,0l1,1l-1,-1m52,0l1,1l-1,-1m14,0l1,1l-1,-1m-330,1l1,1l-1,-1m12,0l1,1l-1,-1m21,0l1,1l-1,-1m38,0l1,1l-1,-1m12,0l1,1l-1,-1m11,0l1,1l-1,-1m32,0l1,1l-1,-1m103.33,0.67l0,0.66l0.34,0l0,-0.66l-0.34,0m23.67,-0.67l1,1l-1,-1m12,0l1,1l-1,-1m52,0l1,1l-1,-1m-328,1l1,1l-1,-1m15,0l1,1l-1,-1z" fill="#fff" id="svg_856"/>
      <path class="color050101 svgShape colorfff" d="m95,208l1.5,-0.08l0.56,-0.14l1,-0.17l0.94,-0.25l1,-0.22l1.89,-0.56l0.8,-0.44l0.53,-0.17l0.78,-0.97l-1.5,-0.97l-0.56,-0.17l-1.94,-0.53l-1,0l-1.89,0.61l-1.39,1.25l-0.39,0.84l-0.33,1.97z" fill="#fff" id="svg_855"/>
      <path class="color695626 svgShape colorfff" d="m101,203l1,1l-1,-1m17,0l1,1l-1,-1m19,0l0,10l0.72,-0.78l0.03,-0.53l0.19,-0.8l0.03,-0.92l0.03,-1.97l-0.03,-1.97l-0.03,-0.92l-0.19,-0.8l-0.03,-0.53l-0.72,-0.78m42,0l1,1l-1,-1m7,0l1,1l-1,-1m5,0l1,1l-1,-1z" fill="#fff" id="svg_854"/>
      <path class="color050101 svgShape colorfff" d="m189,208l1.5,-0.08l0.56,-0.14l1.94,-0.39l1.94,-0.31l2.06,-0.08l-0.33,-1.81l-0.39,-0.75l-1.39,-0.91l-0.92,-0.2l-0.97,0l-0.97,0.2l-1.7,0.97l-0.61,0.69l-0.39,0.84l-0.33,1.97z" fill="#fff" id="svg_853"/>
      <path class="color695626 svgShape colorfff" d="m195,203l1,1l-1,-1z" fill="#fff" id="svg_852"/>
      <path class="color050101 svgShape colorfff" d="m247.03,203.75l-1.7,1.36l-0.61,0.92l-0.39,0.97l-0.22,2l0.39,1.92l1,1.58l0.75,0.56l0.83,0.44l1.92,0.33l1.92,-0.33l1.58,-1l1,-1.58l0.39,-1.92l-0.03,-1l-0.58,-1.92l-1.39,-1.58l-0.92,-0.56l-0.97,-0.41l-1,-0.17l-1.97,0.39z" fill="#fff" id="svg_851"/>
      <path class="color695626 svgShape colorfff" d="m250.67,203.33l0,0.34l0.66,0l-0.33,-0.34l-0.33,0m24.33,-0.33l1,1l-1,-1m15,0l0,10l0.72,-0.78l0.03,-0.53l0.19,-0.8l0.03,-0.92l0.03,-1.97l-0.03,-1.97l-0.03,-0.92l-0.19,-0.8l-0.03,-0.53l-0.72,-0.78m22,0l1,1l-1,-1m14,0l1,1l-1,-1m5,0l1,1l-1,-1m4,0l1,1l-1,-1m10,0l1,1l-1,-1m9,0l1,1l-1,-1m16,0l0,10l0.72,-0.78l0.03,-0.53l0.19,-0.8l0.03,-0.92l0.03,-1.97l-0.03,-1.97l-0.03,-0.92l-0.19,-0.8l-0.03,-0.53l-0.72,-0.78m35.67,0.33l0,0.34l0.66,0l0,-0.34l-0.66,0z" fill="#fff" id="svg_850"/>
      <path class="color050101 svgShape colorfff" d="m425,213l2.06,0l1,-0.03l0.94,-0.08l1.89,-0.61l1.39,-1.39l0.61,-1.89l0.08,-0.94l0.03,-1l0,-2.06l-1.5,-0.97l-0.56,-0.17l-1,-0.42l-1.94,-0.25l-1.97,0.53l-0.92,0.61l-0.78,0.78l-0.61,0.92l-0.53,1.97l0.25,1.94l0.42,1l1.14,2.06z" fill="#fff" id="svg_849"/>
      <path class="color695626 svgShape colorfff" d="m430,203l1,1l-1,-1m-378,1l0,4l0.72,-0.78l0,-0.5l0.17,-0.72l-0.17,-1.22l-0.72,-0.78m54,0l1,1l-1,-1m10,0l1,1l-1,-1m11.33,0.67l0,0.66l0.34,0l0,-0.66l-0.34,0m40.67,-0.67l1,1l-1,-1m32,0l1,1l-1,-1m15,0l0,4l0.72,-0.78l0,-0.5l0.17,-0.72l-0.17,-1.22l-0.72,-0.78m3,0l0,4l0.72,-0.78l0,-0.5l0.17,-0.72l-0.17,-1.22l-0.72,-0.78m23,0l1,1l-1,-1m4,0l1,1l-1,-1m7,0l1,1l-1,-1m4,0l1,1l-1,-1m24.33,0.67l0,0.33l0.34,0.33l0,-0.66l-0.34,0m30.67,-0.67l1,1l-1,-1m21,0l0,3l0.69,-0.75l0,-1.5l-0.69,-0.75m16,0l1,1l-1,-1m10,0l1,1l-1,-1m53.33,0.67l0,0.66l0.34,0l0,-0.66l-0.34,0m8.67,-0.67l1,1l-1,-1m4,0l1,1l-1,-1m-344,1l1,1l-1,-1m44.33,0.67l0,0.66l0.34,0l0,-0.66l-0.34,0m40.67,-0.67l1,1l-1,-1m10,0l1,1l-1,-1m10,0l1,1l-1,-1m12.33,0.67l0,0.66l0.34,0l0,-0.33l-0.34,-0.33m46.67,-0.67l1,1l-1,-1m9,0l1,1l-1,-1m91,0l1,1l-1,-1m64.33,0.67l0,0.66l0.34,0l0,-0.66l-0.34,0m14.67,-0.67l1,1l-1,-1m-332,1l0,5l0.72,-0.78l0.03,-0.53l0.17,-1.61l-0.17,-0.77l-0.03,-0.53l-0.72,-0.78m11.67,0.33l0,0.34l0.66,0l0,-0.34l-0.66,0m4.33,-0.33l0,3l0.69,-0.75l0,-1.5l-0.69,-0.75m62,0l1,1l-1,-1m19.33,0.67l0,0.66l0.34,0l0,-0.33l-0.34,-0.33m12.67,-0.67l0,3l0.69,-0.75l0,-1.5l-0.69,-0.75m39,0l0,5l0.72,-0.78l0.03,-0.53l0.17,-0.77l-0.17,-1.61l-0.03,-0.53l-0.72,-0.78m17,0l0,4l0.72,-0.78l0,-0.5l0.17,-0.72l-0.17,-1.22l-0.72,-0.78m20,0l0,11l0.72,-0.78l0.03,-0.53l0.19,-0.8l0.03,-0.92l0.03,-0.97l0,-2l-0.03,-1.97l-0.03,-0.92l-0.19,-0.8l-0.03,-0.53l-0.72,-0.78m156,0l0,4l0.72,-0.78l0.17,-1.22l-0.17,-0.72l0,-0.5l-0.72,-0.78m-339,1l1,1l-1,-1m4.67,0.33l0,0.34l0.66,0l0,-0.34l-0.66,0m17.33,-0.33l1,1l-1,-1m50,0l1,1l-1,-1m8,0l1,1l-1,-1m18.67,0.33l0,0.34l0.66,0l0,-0.34l-0.66,0m132.33,-0.33l1,1l-1,-1m-276,1l1,1l-1,-1m121,0l1,1l-1,-1m7,0l1,1l-1,-1m91,0l0,9l0.72,-0.78l0.03,-0.53l0.19,-0.8l0.03,-0.92l0.03,-1.97l-0.06,-1.89l-0.19,-0.8l-0.03,-0.53l-0.72,-0.78m55,0l1,1l-1,-1m-220.33,1.33l0,0.34l0.66,0l0,-0.34l-0.66,0m11.33,-0.33l1,1l-1,-1m53,0l1,1l-1,-1m6,0l1,1l-1,-1m23.67,0.33l0,0.34l0.66,0l-0.33,-0.34l-0.33,0m22.33,-0.33l1,1l-1,-1m103,0l1,1l-1,-1m25.33,0.67l0,0.66l0.34,0l0,-0.66l-0.34,0m-249.66,0.66l0,0.34l0.66,0l-0.33,-0.34l-0.33,0m19.33,-0.33l1,1l-1,-1z" fill="#fff" id="svg_848"/>
      <path class="color050101 svgShape colorfff" d="m117,211l0,2l1,1l1.5,0l1.53,-0.11l0.86,-0.22l1.39,-0.95l0.61,-1.25l0.11,-1.47l-2.06,0l-1,0.03l-0.88,0.03l-1,0.19l-0.56,0.03l-1.5,0.72z" fill="#fff" id="svg_847"/>
      <path class="color695626 svgShape colorfff" d="m124.33,210.67l0,0.66l0.34,0l0,-0.66l-0.34,0m46.67,-0.67l1,1l-1,-1m5,0l1,1l-1,-1m15.67,0.33l0,0.34l0.66,0l-0.33,-0.34l-0.33,0m24.33,-0.33l1,1l-1,-1m109,0l1,1l-1,-1z" fill="#fff" id="svg_846"/>
      <path class="color050101 svgShape colorfff" d="m325,211l0,2l1,1l1.5,0l1.56,-0.11l0.91,-0.22l1.7,-0.95l0.97,-1.25l0.36,-1.47l-3.06,0l-0.94,0.03l-0.94,0.03l-1,0.19l-0.56,0.03l-1.5,0.72z" fill="#fff" id="svg_845"/>
      <path class="color695626 svgShape colorfff" d="m423,210l1,1l-1,-1m-373,1l1,1l-1,-1m4,0l1,1l-1,-1m114,0l1,1l-1,-1m4,0l1,1l-1,-1m13,0l1,1l-1,-1m35,0l1,1l-1,-1m13,0l1,1l-1,-1m11,0l1,1l-1,-1m9,0l1,1l-1,-1m91,0l1,1l-1,-1m76,0l1,1l-1,-1m12,0l1,1l-1,-1m-377,1l1,1l-1,-1m10,0l1,1l-1,-1m110,0l1,1l-1,-1m24,0l1,1l-1,-1m18,0l1,1l-1,-1m14,0l1,1l-1,-1m3,0l1,1l-1,-1m7,0l1,1l-1,-1m15,0l1,1l-1,-1m92,0l1,1l-1,-1m10,0l1,1l-1,-1m73,0l1,1l-1,-1m-374,1l1,1l-1,-1m6,0l1,1l-1,-1m34,0l1,1l-1,-1m5,0l1,1l-1,-1m4.33,0.67l0,0.66l0.34,0l0,-0.66l-0.34,0m10.67,-0.67l1,1l-1,-1m27.67,0.33l0.33,0.34l0.33,0l-0.33,-0.34l-0.33,0m41.33,-0.33l1,1l-1,-1m5,0l1,1l-1,-1m5,0l1,1l-1,-1m27,0l1,1l-1,-1m23,0l1,1l-1,-1m5,0l1,1l-1,-1m46.67,0.33l0.33,0.34l0.33,0l-0.33,-0.34l-0.33,0m33.33,-0.33l1,1l-1,-1m14,0l1,1l-1,-1m4,0l1,1l-1,-1m18,0l1,1l-1,-1m7.67,0.33l0.33,0.34l0.33,0l0,-0.34l-0.66,0m46.33,-0.33l1,1l-1,-1m6,0l0.72,0.72l0.53,0.03l1.75,0.25l-0.72,-0.72l-0.53,-0.03l-1.75,-0.25m-334,1l1,1l-1,-1m21,0l1,1l-1,-1m60,0l1,1l-1,-1m13,0l1,1l-1,-1m32,0l1,1l-1,-1m15,0l1,1l-1,-1m21,0l1,1l-1,-1m67,0l1,1l-1,-1m36,0l1,1l-1,-1m64,0l1,1l-1,-1m-368,1l1,1l-1,-1m40,0l1,1l-1,-1m11,0l1,1l-1,-1m33,0l1,1l-1,-1m8,0l1,1l-1,-1m42,0l1,1l-1,-1m32,0l1,1l-1,-1m71,0l1,1l-1,-1m8,0l1,1l-1,-1m24,0l1,1l-1,-1m24,0l1,1l-1,-1m10,0l1,1l-1,-1m11,0l1,1l-1,-1m64,0l0,1l2,1l0,-2l-2,0m-376,1l1,1l-1,-1m8,0l1,1l-1,-1m32,0l1,1l-1,-1m7,0l1,1l-1,-1m13,0l1,1l-1,-1m23,0l1,1l-1,-1m6,0l1,1l-1,-1m25,0l1,1l-1,-1m20,0l1,1l-1,-1m7,0l1,1l-1,-1m25,0l1,1l-1,-1m8,0l1,1l-1,-1m15,0l1,1l-1,-1m7,0l1,1l-1,-1z" fill="#fff" id="svg_844"/>
      <path class="colorbecf60 svgShape colorf7bf42" d="m266.67,216.33l0.33,0.34l0.33,0l0,-0.34l-0.66,0z" fill="#f7bf42" id="svg_843"/>
      <path class="color695626 svgShape colorfff" d="m292,216l1,1l-1,-1m6,0l1,1l-1,-1m33,0l1,1l-1,-1m17.67,0.33l0,0.34l0.66,0l0,-0.34l-0.66,0m6.33,-0.33l1,1l-1,-1m14,0l1,1l-1,-1m6,0l1,1l-1,-1m51,0l0.78,0.72l0.47,0.03l0.81,0.19l1.94,0.06l-0.78,-0.72l-0.47,-0.03l-0.81,-0.19l-1.94,-0.06m10.33,0.67l0,0.66l0.34,0l0,-0.66l-0.34,0m-14.33,0.33l1,1l-1,-1m-1,1l1,1l-1,-1m11,0l1,1l-1,-1m-12,1l1,1l-1,-1m5,0l1,1l-1,-1m5,0l1,1l-1,-1m5,0l1,1l-1,-1m-14,1l1,1l-1,-1m1,1l1,1l-1,-1m11,0l1,1l-1,-1m-8,1l1,1l-1,-1m5.67,0.33l0.33,0.34l0.33,0l0,-0.34l-0.66,0z" fill="#fff" id="svg_842"/>
     </svg>
    </g>
   </svg>
  </g>
 </g>
</svg>