<svg xmlns="http://www.w3.org/2000/svg" xmlns:svgjs="http://svgjs.com/svgjs" xmlns:xlink="http://www.w3.org/1999/xlink" width="288" height="288"><svg xmlns="http://www.w3.org/2000/svg" width="288" height="288" viewBox="0 0 288 288"><svg xmlns="http://www.w3.org/2000/svg" width="288" height="288" x="-1" y="-1" class="layer" viewBox="0 0 480 287"><path fill="#f7bf42" d="m242 34-2.06 1.97-1.94 1.64-2 1.61-1 .86-2 1.84-1 .86-2 1.61-2 1.69-2 1.89-1 .95-2 1.69-2 1.61-1 .86-2 1.84-1 .86-2 1.61-2 1.69-2 1.89-1 .95-2 1.69-2 1.61-1 .86-2 1.84-1 .86-2 1.61-2 1.69-2 1.89-1 .95-2 1.69-.97.78-.92.83-.78.86-.94 1.86-.08 1.56.69 1.5 1.5-.36.56-.36 1-.59.94-.72 2-1.58 1-.78 2-1.69 1-.95 2-1.89 1-.86 2-1.61 1-.83 1-.86 2-1.84 1-.86 2-1.61 2-1.69 2-1.89 1-.95 2-1.69 2-1.61 1-.86 2-1.89 1-.95 2-1.69 2-1.61 1-.86 2-1.84 1-.86 2-1.61 2-1.69 2-1.84 1.94-1.58 1.56-.97L244 40l.78 1.42.53.41.8.84.92.72 1.97 1.69 2 1.84 2 1.69 2 1.5 1.94 1.2 1.56.58 1.5.11.72-1.5.03-.56.19-1 .03-.94.03-1v-8h9v20l.11 2 .22 1 .39 1 .61 1 1.7 2 1.97 1.92 2 1.69 1 .78 2 1.69 2 1.89 1 .95 2 1.69 2 1.61 1 .86 2 1.84 1.94 1.58 1.56.97 1.5.53.69-1.5-.08-1.56-.94-1.94-.78-1-1.89-1.92-2-1.69-1-.78-2-1.69-1-.95-2-1.89-2-1.69-1-.78-2-1.69-1.97-1.92-1.7-2-1-2-.22-1-.08-1-.03-1V35l-1-1h-11l-2 .11-.97.22-.92.39-.78.61-.61.78-.39.92-.22.97-.11 2v5l-2.06-2.03-1-.94-1.94-1.64-1-.78-1-.83-2-1.72-1-.81-.94-.75-1.56-.97L242 34z" class="colorc7a559 svgShape colorf7bf42"/><path fill="#fff" d="m243 34 1 1-1-1m14 0 1 1-1-1m-17 1 1 1-1-1m16 0 1 1-1-1m-17 1 1 1-1-1m-1 1 1 1-1-1m9 0 1 1-1-1m1 1 1 1-1-1m1 1 1 1-1-1m-16 2 1 1-1-1m7 0 1 1-1-1m-8 1 1 1-1-1m7 0 1 1-1-1m-8 1 1 1-1-1m16 0 1 1-1-1m1 1 1 1-1-1m7 0 1 1-1-1m-6 1 1 1-1-1m-16 2 1 1-1-1m-8 1 1 1-1-1m7 0 1 1-1-1m-8 1 1 1-1-1m7 0 1 1-1-1m23 0 1 1-1-1m-31 1 1 1-1-1m32 0 1 1-1-1m1 1 1 1-1-1m4 0 1 1-1-1m-2 1 1 1-1-1m-32 1 1 1-1-1m-8 1 1 1-1-1m7 0 1 1-1-1m-8 1 1 1-1-1m7 0 1 1-1-1m-8 1 1 1-1-1m2 4 1 1-1-1m-8 1 1 1-1-1m7 0 1 1-1-1m-8 1 1 1-1-1m7 0 1 1-1-1m-8 1 1 1-1-1m62 0 1 1-1-1m1 1 1 1-1-1m7 0 1 1-1-1m-6 1 1 1-1-1m7 0 1 1-1-1m1 1 1 1-1-1m-70 1 1 1-1-1m-8 1 1 1-1-1m7 0 1 1-1-1m-8 1 1 1-1-1m77 1 1 1-1-1m1 1 1 1-1-1m7 0 1 1-1-1m-6 1 1 1-1-1m7 0 1 1-1-1m-84 1 1 1-1-1m85 0 1 1-1-1m-93 1 1 1-1-1m7 0 1 1-1-1m-8 1 1 1-1-1m7 0 1 1-1-1m-8 1 1 1-1-1m93 1 1 1-1-1m7 0 1 1-1-1m-6 1 1 1-1-1m7 0 1 1-1-1m1 1 1 1-1-1m-100 1 1 1-1-1m101 0v3l.69-.75v-1.5L296 80m-102 1 1 1-1-1m-1 1 1 1-1-1m100 1 1 1-1-1m2 0 1 1-1-1z" class="color695626 svgShape colorfff"/><path fill="#00c740" d="m364 99 .78.72.53.03.75.19.91.03 2.03.03-.78-.72-.53-.03-.75-.19-.91-.03L364 99z" class="color166017 svgShape color00c75a"/><path fill="#00c740" d="m363 100-1 1v31h-2.06l-1.94-.03-1-.08-1-.2-2-.69-1-.39-2-.5-2-.03-2 .31-1 .22-2 .39-2 .42-2 .66-2 1-2 1.25-2 1.36-1 .73-1.92 1.66-.86.95-1.53 1.97-1.27 2-1 2-.39 1-.61 2-.34 2-.08 2v6l.08 2 .14 1 .2 1 .27 1 .7 2 .44 1 .45 1 1.11 1.97.64.95 1.39 1.69 1.66 1.53.95.69.97.73 2 1.16 1 .45 1 .44 2 .7 1 .27 2 .34 1 .05 1 .03 2-.08 2-.31 1-.22 2-.39 1.97-.42 1.7-.64.61-.52.36-.25.36-1.17 2-.06 1-.19.5-.03 1.5-.72v2l1 1 2.06.03 1 .05 1.88.34 2.06.58.72-1.5.03-.56.19-1 .03-.94.03-1v-71l-1-1h-7m-271 4 .08 1.5.39 1.56.72 1.94.42 1 .72 2 .34 1 .66 2 .34 1 .36 1 .36 1 .42 1 .8 2 .78 2 .8 2 .42 1 .78 2 .8 2 .42 1 .78 2 .86 2 .53 1 .97 2 .42 1 .44 1 .78 2 .86 2 .53 1 .97 2 .42 1 .44 1 .78 2 .44 1 .42 1 .97 2 .56 1 .44 1 .56 1 .44 1 1 2 .56 1 .44 1 .53 1 .42 1 .47 1 .42 1 1 2 .58 1 1.11 2 .5 1 1.11 1.94.95 1.56.69 1.5 1.44-.17h1.12l1.44.17 1.22-1.5.97-1.56.56-.94.47-1 .56-1 .44-1 .56-1 .44-1 .56-1 .44-1 1-2 .56-1 .44-1 .56-1 .44-1 .56-1 .44-1 .56-1 .44-1 1-2 .53-1 .42-1 .44-1 .78-2 .44-1 .42-1 .53-1 1-2 .44-1 .56-1 .44-1 .56-1 .44-1 .56-1 .44-1 .56-1 .44-1 .56-1 .44-1 .56-1 1-2 .44-1 .56-1 .44-1 1-2 .53-1 .42-1 .44-1 .78-2 .86-2 .53-1 .44-1 .56-1 .44-1 1-2 .53-1 .86-2 .7-2 .27-1 .2-.94.19-1.56.03-1.5-1-1-1.5.03-1.53.3-.89.39-1.61 1.39-1.19 1.89-.89 2-.78 2-.86 2-.53 1-.44 1-.56 1-.44 1-.53 1-.86 2-.78 2-.44 1-.42 1-.97 2-.56 1-1 2-.44 1-.56 1-.44 1-.56 1-.97 2-.42 1-.44 1-.78 2-.86 2-.53 1-1 2-.44 1-.56 1-1 2-.44 1-.56 1-.44 1-.56 1-.44 1-1 2-.56 1-.44 1-.56 1-.44 1-.53 1-.39.94-.58 1.56-.28 1.5h-2l-.28-1.5-.58-1.56-.39-.94-.53-1-.44-1-.56-1-.44-1-.53-1-.42-1-.44-1-.78-2-.42-1-.8-2-.78-2-.42-1-.8-2-.78-2-.86-2-.5-1-.86-2-.78-2-.86-2-.5-1-.86-2-.78-2-.86-2-.5-1-.86-2-.78-2-.86-2-.5-1-.86-2-.78-2-.86-2-.5-1-.89-2-.42-1-.94-1.94-.33-.56-.67-1.5h-1.5l-1.56.08-1.94.39-1.94.72-.56.31-1.5.5z" class="color06c546 svgShape color00c75a"/><path fill="#00c740" d="m93 103 1 1-1-1m8 0 1 1-1-1z" class="color166017 svgShape color00c75a"/><path fill="#2cd412" d="M163.33 103.67v.33l.34.33V104l-.34-.33z" class="color51d039 svgShape color2cd412"/><path fill="#00c740" d="M371 103v71l.72-.78.03-.53.19-.8.03-.92.03-.97v-63l-.03-.97-.03-.92-.19-.8-.03-.53-.72-.78m-208 2 1 1-1-1m24 1 1 1-1-1z" class="color166017 svgShape color00c75a"/><path fill="#2cd412" d="M186 116h3.06l1.94-.11 1.92-.61 1.58-1.39 1-1.89.31-2-.17-.97-.97-1.7-1.7-1-.97-.22-2-.03-2 .42-1.89 1-1.39 1.58-.53 1.92.09 1 .58 1.94.17.56.97 1.5m113-9-1-1h-3.06l-1.94.11-1.97.61-.92.61-.78.78-1 1.89-.19 1v1l.19.97 1 1.7 1.7 1 .97.22 1 .08 2-.08.97-.22.92-.39 1.39-1.39.39-.92.3-1.97.03-.94V107z" class="color51d039 svgShape color2cd412"/><path fill="#00c740" d="m103 107 1 1-1-1m59 0 1 1-1-1m23 0 1 1-1-1m104 0 1 1-1-1m-105 1 1 1-1-1m104 0 1 1-1-1m11 0v4l.72-.78v-.5l.17-.72-.17-1.22-.72-.78m-206 1 1 1-1-1m11 0 1 1-1-1m49 1 1 1-1-1m30.33.67v.33l.34.33V111l-.34-.33m104 0v.66h.34v-.66h-.34M105 111l1 1-1-1m-11 1 1 1-1-1m58 0 1 1-1-1m43 0 1 1-1-1m-11 1 1 1-1-1m-78 1 1 1-1-1m45 0 1 1-1-1m8 0 1 1-1-1m-64 1 1 1-1-1m12 1 1 1-1-1m43 0 1 1-1-1m8 0 1 1-1-1z" class="color166017 svgShape color00c75a"/><path fill="#fff" d="m187 116 .78.72.47.03.81.19 1.94.06-.78-.72-.47-.03-.81-.19L187 116z" class="color695626 svgShape colorfff"/><path fill="#00c740" d="m191 116 1 1-1-1m100 0 .78.72.47.03.81.19 1.94.06-.78-.72-.47-.03-.81-.19L291 116m-134 2 1 1-1-1m-60 2 1 1-1-1m59 0 1 1-1-1m-47 1 1 1-1-1m39 0 1 1-1-1m-38 2 1 1-1-1m37 0 1 1-1-1m-48 2 1 1-1-1m12 0 1 1-1-1m35 0 1 1-1-1m-1 2 1 1-1-1m8 0 1 1-1-1m-41 1 1 1-1-1m32 1 1 1-1-1m-43 1 1 1-1-1m12 0 1 1-1-1m108 0 1 1-1-1z" class="color166017 svgShape color00c75a"/><path fill="#2cd412" d="m222 130 .72.72.53.03 1.75.25-.72-.72-.53-.03L222 130z" class="color51d039 svgShape color2cd412"/><path fill="#00c740" d="m225 130 1 1-1-1z" class="color166017 svgShape color00c75a"/><path fill="#f7bf42" d="m259 130 .72.72.53.03 1.75.25-.72-.72-.53-.03L259 130z" class="colorc7a559 svgShape colorf7bf42"/><path fill="#00c740" d="m344 130 .72.72.53.03 1.75.25-.72-.72-.53-.03L344 130m9.67.33.33.34h.33l-.33-.34h-.33m7.66.34v.66h.34V131l-.34-.33M151 131l1 1-1-1m35 0 .72.72.53.03 1.75.25-.72-.72-.53-.03L186 131z" class="color166017 svgShape color00c75a"/><path fill="#2cd412" d="M185 132v2.06l-.03 1-.05.94-.31 2-.22 1-.31 2-.05 1-.03 2v17l.03 1 .05 1 .31 2 .22 1 .31 2 .05 1 .03 2v1l.06 1.94.19 1 .03.56.72 1.5 2.06-.56 1.88-.13 1.56.27 1.5.42v-35l.03-2 .05-1 .31-2 .39-1.94.19-1.56.03-1.5-1.5-.08-.56-.11-1.94-.2h-1l-1.94.2-.56.11-1.5.08z" class="color51d039 svgShape color2cd412"/><path fill="#00c740" d="m190 131 .78.72.47.03.81.19 1.94.06-.78-.72-.47-.03-.81-.19L190 131z" class="color166017 svgShape color00c75a"/><path fill="#fff" d="m219 131 1 1-1-1z" class="color695626 svgShape colorfff"/><path fill="#8fef2a" d="M218 132v2.06l.08 1.94.17 1 .22 1 .78 2 .53 1 1 2 .44 1 .56 1 .44 1 .56 1 .44 1 1 2 .56 1 .44 1 .56 1 .44 1 .56 1 1 2 .44 1 .56 1 .44 1 .56 1 .44 1 .56 1 1 2 .44 1 1.03 1.89.56.78.97.97 1.22.36.11 2.06.2 1 .75 1.88.88 1.56L239 178l1.5-.44.53-.25.94-.42 1.56-1.2.64-.8 1.19-1.89 1.03-2 .75-2 .33-.97.95-1.81 1.19-1.61 1.14-1.69 1.03-1.92.44-1 1-2 .56-1 .44-1 .56-1 1-2 .44-1 .56-1 .44-1 .56-1 .97-2 .42-1 .44-1 .78-2 .86-2 .97-2 .53-1 .78-2 .22-.94.22-1.56.03-1.5-1-1h-4l-1 1.5-.22.56-1 1.94-1 2-.53 1-.42 1-.44 1-.78 2-.86 2-.53 1-.44 1-.56 1-1 2-.44 1-1 2-.56 1-.44 1-.56 1-.44 1-.56 1-.44 1-.56 1-.97 1.94-.42 1-.33.56-.5 1.5-1.22-1.5-.97-1.56-.56-.94-.47-1-.56-1-.44-1-.56-1-.44-1-.56-1-.44-1-1-2-.53-1-.42-1-.44-1-.78-2-.44-1-.42-1-.53-1-1-2-.44-1-.56-1-.44-1-.56-1-.44-1-.97-1.94-.59-1-.22-.56-1-1.5h-2.06l-1 .03-.94.05-1.94.34-2.06.58z" class="color96e133 svgShape color8fef2a"/><path fill="#00c740" d="m258 131 1 1-1-1z" class="color166017 svgShape color00c75a"/><path fill="#fff" d="m263 131 1 1-1-1z" class="color695626 svgShape colorfff"/><path fill="#00c740" d="m290.67 131.33.33.34h.33l-.33-.34h-.33z" class="color166017 svgShape color00c75a"/><path fill="#2cd412" d="m289 132-.08 1.5-.14.56-.17 1-.22.94-.28 2v1l.28 2 .22 1 .31 2 .05 1 .03 1v8l-.03 2-.05 1-.31 2-.22 1-.31 2-.05 1-.03 2v3l.03 1 .05 1 .31 2 .22.94.17 1 .14.56.08 1.5h2.06l1 .03.94.05 1.94.34 2.06.58v-11l.03-2 .05-1 .31-2 .22-1 .31-2 .05-1 .03-2v-22l-1.5-.81-.56-.16-1.94-.53-1.94-.03-1.56.28-1.5.25z" class="color51d039 svgShape color2cd412"/><path fill="#00c740" d="m294 131 .72.72.53.03 1.75.25-.72-.72-.53-.03L294 131z" class="color166017 svgShape color00c75a"/><path fill="#2cd412" d="m354 131 .72.72.53.03 1.75.25-.72-.72-.53-.03L354 131z" class="color51d039 svgShape color2cd412"/><path fill="#00c740" d="m357.67 131.33.33.34h.33l-.33-.34h-.33z" class="color166017 svgShape color00c75a"/><path fill="#fff" d="M264.33 132.67v.66h.34v-.66h-.34z" class="color695626 svgShape colorfff"/><path fill="#00c740" d="m297 132 1 1-1-1m-113 1v6l.72-.78.03-.53.19-.8v-1.78l-.19-.8-.03-.53-.72-.78z" class="color166017 svgShape color00c75a"/><path fill="#f7bf42" d="M217.33 133.67v.33l.34.33V134l-.34-.33z" class="colorc7a559 svgShape colorf7bf42"/><path fill="#fff" d="m227 133 1 1-1-1z" class="color695626 svgShape colorfff"/><path fill="#00c740" d="m257 133 1 1-1-1m31 0v3l.69-.75v-1.5L288 133m49 0 1 1-1-1m-2 1 1 1-1-1m-220 1 1 1-1-1m34 0 1 1-1-1z" class="color166017 svgShape color00c75a"/><path fill="#fff" d="m217 135 1 1-1-1m11 0 1 1-1-1z" class="color695626 svgShape colorfff"/><path fill="#00c740" d="m256 135 1 1-1-1m78 0 1 1-1-1z" class="color166017 svgShape color00c75a"/><path fill="#8fef2a" d="M193 136v40l.72-.78.03-.53.19-.8.03-.92.03-1.97v-30l-.03-1.97-.03-.92-.19-.8-.03-.53-.72-.78z" class="color96e133 svgShape color8fef2a"/><path fill="#2cd412" d="m346 136 .78.72.53.03.8.19.92.03 1.97.03h5l-.78-.72-.53-.03-.8-.19-.92-.03L351 136h-5z" class="color51d039 svgShape color2cd412"/><path fill="#00c740" d="m104 137 1 1-1-1m12 0 1 1-1-1z" class="color166017 svgShape color00c75a"/><path fill="#fff" d="m229 137 1 1-1-1z" class="color695626 svgShape colorfff"/><path fill="#00c740" d="m255 137 1 1-1-1z" class="color166017 svgShape color00c75a"/><path fill="#fff" d="M362 168v-23l-.03-2-.3-1.97-.39-.92-1.39-1.39-1.89-.61-2-.19-2-.31-1-.22-2-.31-2-.05-1 .05-2 .39-2 .81-1 .58-1 .61-1.97 1.61-.95.95-1.61 1.97-.61 1-1 2-.39 1-.22 1-.17 1-.08 2v1l.03 2 .05 1 .31 2 .25 1 .53 2 .3 1 1.03 2 1.58 1.97.95.95 1.97 1.58 2 1 2 .42 2 .16 2 .23 2 .08 1-.08 2-.23 2-.19 1-.2 1.94-.72.56-.3 1.5-.67z" class="color050101 svgShape colorfff"/><path fill="#00c740" d="m353 137 .78.72.47.03.81.19 1.94.06-.78-.72-.47-.03-.81-.19L353 137m-213 1 1 1-1-1m122 0 1 1-1-1m81 0 1 1-1-1m-238 1 1 1-1-1z" class="color166017 svgShape color00c75a"/><path fill="#fff" d="m230 139 1 1-1-1z" class="color695626 svgShape colorfff"/><path fill="#00c740" d="m139 140 1 1-1-1z" class="color166017 svgShape color00c75a"/><path fill="#fff" d="m261 140 1 1-1-1z" class="color695626 svgShape colorfff"/><path fill="#00c740" d="m340 140 1 1-1-1z" class="color166017 svgShape color00c75a"/><path fill="#fff" d="m231 141 1 1-1-1z" class="color695626 svgShape colorfff"/><path fill="#8fef2a" d="M288 141v19l.72-.78.03-.53.19-.8.03-.92.03-.97v-11l-.03-.97-.03-.92-.19-.8-.03-.53-.72-.78z" class="color96e133 svgShape color8fef2a"/><path fill="#00c740" d="m328 141 1 1-1-1m11 0 1 1-1-1m-221 1 1 1-1-1m20 0 1 1-1-1z" class="color166017 svgShape color00c75a"/><path fill="#fff" d="m253 142 1 1-1-1m7 0 1 1-1-1z" class="color695626 svgShape colorfff"/><path fill="#00c740" d="m338 142 1 1-1-1m-193 1 1 1-1-1m87 0 1 1-1-1m-113 1 1 1-1-1m18 0 1 1-1-1z" class="color166017 svgShape color00c75a"/><path fill="#fff" d="m252 144 1 1-1-1z" class="color695626 svgShape colorfff"/><path fill="#00c740" d="m233 145 1 1-1-1m26 0 1 1-1-1m77 0 1 1-1-1m-228 1 1 1-1-1m28 0 1 1-1-1z" class="color166017 svgShape color00c75a"/><path fill="#fff" d="m251 146 1 1-1-1z" class="color695626 svgShape colorfff"/><path fill="#00c740" d="m120 147 1 1-1-1m138 0 1 1-1-1m67 0 1 1-1-1m-216 1 1 1-1-1m26 0 1 1-1-1m88 0 1 1-1-1z" class="color166017 svgShape color00c75a"/><path fill="#f7bf42" d="m234 148 1 1-1-1z" class="colorc7a559 svgShape colorf7bf42"/><path fill="#fff" d="m250 148 1 1-1-1z" class="color695626 svgShape colorfff"/><path fill="#00c740" d="m121 149 1 1-1-1m21 0 1 1-1-1z" class="color166017 svgShape color00c75a"/><path fill="#fff" d="m257 149 1 1-1-1z" class="color695626 svgShape colorfff"/><path fill="#00c740" d="m134 150 1 1-1-1m90 0 1 1-1-1z" class="color166017 svgShape color00c75a"/><path fill="#2cd412" d="m235 150 1 1-1-1z" class="color51d039 svgShape color2cd412"/><path fill="#00c740" d="m249 150 1 1-1-1m75 0v9l.72-.78.03-.53.19-.8.03-.92.03-1.97-.06-1.89-.19-.8-.03-.53-.72-.78z" class="color166017 svgShape color00c75a"/><path fill="#fff" d="m256 151 1 1-1-1z" class="color695626 svgShape colorfff"/><path fill="#00c740" d="m122 152 1 1-1-1m11 0 1 1-1-1z" class="color166017 svgShape color00c75a"/><path fill="#fff" d="m225 152 1 1-1-1m11 0 1 1-1-1z" class="color695626 svgShape colorfff"/><path fill="#00c740" d="m248 152 1 1-1-1m86 0v3l.69-.75v-1.5L334 152z" class="color166017 svgShape color00c75a"/><path fill="#2cd412" d="m255 153 1 1-1-1z" class="color51d039 svgShape color2cd412"/><path fill="#00c740" d="m123 154 1 1-1-1m9 0 1 1-1-1z" class="color166017 svgShape color00c75a"/><path fill="#fff" d="m226 154 1 1-1-1z" class="color695626 svgShape colorfff"/><path fill="#00c740" d="m237 154 1 1-1-1z" class="color166017 svgShape color00c75a"/><path fill="#fff" d="m254 155 1 1-1-1z" class="color695626 svgShape colorfff"/><path fill="#2cd412" d="M334 155v3l.69-.75v-1.5L334 155z" class="color51d039 svgShape color2cd412"/><path fill="#fff" d="m227 156 1 1-1-1z" class="color695626 svgShape colorfff"/><path fill="#00c740" d="m238 156 1 1-1-1m-125 1 1 1-1-1z" class="color166017 svgShape color00c75a"/><path fill="#fff" d="m253 157 1 1-1-1z" class="color695626 svgShape colorfff"/><path fill="#00c740" d="m125 158 1 1-1-1m5 0 1 1-1-1z" class="color166017 svgShape color00c75a"/><path fill="#fff" d="m228 158 1 1-1-1z" class="color695626 svgShape colorfff"/><path fill="#00c740" d="m239 158 1 1-1-1m96.33.67v.66h.34v-.66h-.34M114 159l1 1-1-1z" class="color166017 svgShape color00c75a"/><path fill="#fff" d="m252 159 1 1-1-1m-23 1 1 1-1-1m11 0 1 1-1-1z" class="color695626 svgShape colorfff"/><path fill="#00c740" d="m244 160 1 1-1-1z" class="color166017 svgShape color00c75a"/><path fill="#8fef2a" d="M297 160v16l.72-.78.03-.53.19-.8.03-.92.03-1.97v-6l-.03-1.97-.03-.92-.19-.8-.03-.53-.72-.78z" class="color96e133 svgShape color8fef2a"/><path fill="#00c740" d="m115 161 1 1-1-1z" class="color166017 svgShape color00c75a"/><path fill="#fff" d="m251 161 1 1-1-1z" class="color695626 svgShape colorfff"/><path fill="#00c740" d="m127.67 162.33.33.34h.33l-.33-.34h-.33z" class="color166017 svgShape color00c75a"/><path fill="#fff" d="m230 162 1 1-1-1m11 0 1 1-1-1z" class="color695626 svgShape colorfff"/><path fill="#f7bf42" d="m243 162 1 1-1-1z" class="colorc7a559 svgShape colorf7bf42"/><path fill="#00c740" d="M325.33 162.67v.66h.34v-.66h-.34M116 163l1 1-1-1m126 0 1 1-1-1z" class="color166017 svgShape color00c75a"/><path fill="#fff" d="m250 163 1 1-1-1m-19 1 1 1-1-1z" class="color695626 svgShape colorfff"/><path fill="#00c740" d="m117 165 1 1-1-1m67 0v9l.72-.78.03-.53.19-.8.06-1.89-.03-1.97-.03-.92-.19-.8-.03-.53-.72-.78z" class="color166017 svgShape color00c75a"/><path fill="#f7bf42" d="m248 165-.42 1.44-.33 1.12L247 169l.97-.78.14-.5.39-.72.14-1.22-.64-.78z" class="colorbecf60 svgShape colorf7bf42"/><path fill="#fff" d="m249 165 1 1-1-1z" class="color695626 svgShape colorfff"/><path fill="#00c740" d="m326 165 1 1-1-1z" class="color166017 svgShape color00c75a"/><path fill="#fff" d="m232 166 1 1-1-1z" class="color695626 svgShape colorfff"/><path fill="#00c740" d="m339 166 1 1-1-1m-91 1 1 1-1-1m79 0 1 1-1-1m13 0 1 1-1-1m-107 1 1 1-1-1m127 0 1 1-1-1m-241 1 1 1-1-1m115 1 1 1-1-1z" class="color166017 svgShape color00c75a"/><path fill="#f7bf42" d="M235.33 170.67v.33l.34.33V171l-.34-.33z" class="colorbecf60 svgShape colorf7bf42"/><path fill="#00c740" d="m329 170 1 1-1-1m17 0 .78.72.53.03.75.19.91.03 2.03.03-.78-.72-.53-.03-.75-.19-.91-.03L346 170m6 0 .78.72.47.03.81.19 1.94.06-.78-.72-.47-.03-.81-.19L352 170m-232 1 1 1-1-1m115 1 1 1-1-1z" class="color166017 svgShape color00c75a"/><path fill="#2cd412" d="m245 172 1 1-1-1z" class="color51d039 svgShape color2cd412"/><path fill="#00c740" d="M288 172v4l.72-.78.17-1.22-.17-.72v-.5L288 172m43 0 1 1-1-1m-210 1 1 1-1-1m211 0 1 1-1-1m29 0 1 1-1-1m-125 1 1 1-1-1z" class="color166017 svgShape color00c75a"/><path fill="#fff" d="m244 174 1 1-1-1z" class="color695626 svgShape colorfff"/><path fill="#2cd412" d="m357.67 174.33.33.34h.33v-.34h-.66z" class="color51d039 svgShape color2cd412"/><path fill="#00c740" d="m359 174 1 1-1-1m-237 1 1 1-1-1z" class="color166017 svgShape color00c75a"/><path fill="#f7bf42" d="m237 175 1 1-1-1z" class="colorc7a559 svgShape colorf7bf42"/><path fill="#00c740" d="m335 175 1 1-1-1m22 0 1 1-1-1m5.33.67v.66h.34v-.66h-.34M123 176l1 1-1-1z" class="color166017 svgShape color00c75a"/><path fill="#fff" d="m185 176 1 1-1-1z" class="color695626 svgShape colorfff"/><path fill="#8fef2a" d="m187 176 .78.72.53.03.75.19.91.03 2.03.03-.78-.72-.53-.03-.75-.19-.91-.03L187 176z" class="color96e133 svgShape color8fef2a"/><path fill="#fff" d="m193 176 1 1-1-1z" class="color695626 svgShape colorfff"/><path fill="#8fef2a" d="m289 176 .78.72.53.03.8.19.92.03.91.03H296l-.78-.72-.53-.03-.8-.19-.92-.03-.91-.03H289z" class="color96e133 svgShape color8fef2a"/><path fill="#00c740" d="m297 176 1 1-1-1m40 0 1 1-1-1m17 0 1 1-1-1z" class="color166017 svgShape color00c75a"/><path fill="#2cd412" d="m363 176 .78.72.53.03.8.19.86.03.97.03H369l-.78-.72-.53-.03-.8-.19-.86-.03-.97-.03H363m-237.33 1.33v.34h.66v-.34h-.66z" class="color51d039 svgShape color2cd412"/><path fill="#f7bf42" d="M240.67 177.33v.34h.66v-.34h-.66z" class="colorbecf60 svgShape colorf7bf42"/><path fill="#00c740" d="m242 177 1 1-1-1m98 0 1 1-1-1m9.67.33.33.34h.33v-.34h-.66z" class="color166017 svgShape color00c75a"/><path fill="#fff" d="m154 194-1 1v2l.94-.75.14-.44.36-1.06-.44-.75z" class="color695626 svgShape colorfff"/><path fill="#f7bf42" d="m155 194-.72 1.44-.03.56-.25 2 1.39-.11.94-.61.34-.56.3-1.25.03-1.47h-2z" class="colorc7a559 svgShape colorf7bf42"/><path fill="#fff" d="m384 194-1 1v2l.94-.75.14-.44.36-1.06-.44-.75z" class="color695626 svgShape colorfff"/><path fill="#f7bf42" d="m385 194-.72 1.44-.03.56-.25 2h3l-.11-1.47-.56-1.28-.19-.47L385 194z" class="colorc7a559 svgShape colorf7bf42"/><path fill="#fff" d="m386 194 1 1-1-1m-330 1 1 1-1-1z" class="color695626 svgShape colorfff"/><path fill="#f7bf42" d="m69 213-1.5-.64-.56.14-1 .03-1.94.64-1 .36-2 .36h-1l-2-.39-1.92-1-1.61-1.58-.61-.95-.97-1.97-.33-1v-2l.33-1 .39-1 1.19-1.92 1.61-1.58 1.92-1 2-.39h1l2 .36 1 .36 1.94.64 1 .03.56.14L69 199l-.78-1.39-1.33-1.03-.92-.47-1.97-.69-2-.34-2-.05-1 .05-2 .39-1 .39-1.97 1-.95.61-1.61 1.61-1.19 1.92-.42 1-.61 2-.14 1 .11 2 .47 2 .73 2 1.08 1.92 1.58 1.61.95.61 1.97 1 1 .39 2 .39 1 .05 2-.05 2-.34 1.97-.69.92-.47 1.33-1.03L69 213z" class="colorc7a559 svgShape colorf7bf42"/><path fill="#fff" d="m64 195 1 1-1-1m93.33.67v.66h.34v-.66h-.34M222 195l1 1-1-1z" class="color695626 svgShape colorfff"/><path fill="#f7bf42" d="m235 213-1.5-.64-.56.14-1 .03-1.94.64-1 .36-2 .36-1-.03-2-.5-1.92-1.08-.83-.7-.78-.8-1.19-1.81-.39-.97-.39-2 .08-1 .39-1 1.28-2 .83-.97.95-.92.97-.78 2-1 2-.22 2 .36 1 .36 1.94.64 1 .03.56.14 1.5-.64-.78-1.39-.53-.36-.8-.67-1.89-.86-1-.3-2-.34-2-.05-2 .22-1 .25-1.97.92-.95.61-.83.66-.78.73-1.19 1.66-.42.95-.39.97-.39 2-.05 1v2l.05 1 .39 2 .39.97.42.95.58.86.61.8 1.61 1.39.95.61 1.97.92 1 .25 2 .22h1l2-.19 1-.2 1-.3 1.89-.86.8-.67.53-.36.78-1.39z" class="colorc7a559 svgShape colorf7bf42"/><path fill="#fff" d="m230.67 195.33.33.34h.33v-.34h-.66m156.66.34v.66h.34v-.66h-.34M54 196l1 1-1-1m166 0 1 1-1-1m-83 1v3l.69-.75v-1.5L137 197z" class="color695626 svgShape colorfff"/><path fill="#f7bf42" d="m138 197-.36 1.39-.31.33-.94.92-1.39.36v3h3v8l.11 2 .22.97.39.92 1.39 1.39.92.39.97.19h.97l1.7-.53.97-.94.36-1.39h-5v-11h4v-3l-1.47-.11-1.25-.56-.92-.94L141 197h-3z" class="colorc7a559 svgShape colorf7bf42"/><path fill="#fff" d="m219 197 1 1-1-1m15 0 1 1-1-1m56 0v3l.69-.75v-1.5L290 197z" class="color695626 svgShape colorfff"/><path fill="#f7bf42" d="m291 197-.36 1.39-.31.33-.94.92-1.39.36v3h3v8l.11 2 .22.97.39.92 1.39 1.39.92.39.97.19h.97l1.7-.53.97-.94.36-1.39h-5v-11h4v-3l-1.47-.11-1.25-.56-.92-.94L294 197h-3m76 0-.67 1.75-.19.53-1.14.72v3h2v6l.08 2 .42 2 .44.97.56.92 1.58 1.39.95.39 1.94.19 1.7-.53.97-.94.36-1.39h-5l-1-1v-10h5v-3l-1.5-.03-1.44-.3-.73-.34-.97-.94L370 197h-3z" class="colorc7a559 svgShape colorf7bf42"/><path fill="#fff" d="M370 197v3l.69-.75v-1.5L370 197m-313 1 1 1-1-1m5.67.33.33.34h.33l-.33-.34h-.33M223 198l1 1-1-1m5.67.33v.34h.66l-.33-.34h-.33M55 199l1 1-1-1m10 0 1 1-1-1m152 0 1 1-1-1m14 0 1 1-1-1m3 0 1 1-1-1m-184 1 1 1-1-1m4 0 1 1-1-1z" class="color695626 svgShape colorfff"/><path fill="#f7bf42" d="M77 200v17h3v-7l.11-2 .61-1.97 1.39-1.7.86-.61 1.53-.61L86 203v-3l-2.06.06-1.94.11-1 .05-1.94-.08-.56-.08L77 200z" class="colorc7a559 svgShape colorf7bf42"/><path fill="#fff" d="m81 200 1 1-1-1m15 0 1 1-1-1z" class="color695626 svgShape colorfff"/><path fill="#f7bf42" d="m106 212-1.5.33-.56.28-1.94.78-2 .39-1.94-.45-1-.61L95 211l1.5-.25 1.56-.36.94-.2 2-.38 1-.2 1-.22 1.94-.31L107 209l-.08-2.06-.42-1.94-1-1.92-1.58-1.58-1.92-1-2-.39h-1l-2 .39-1.97 1-1.7 1.58-.61.95-.39.97-.3 2-.03 1 .03 2 .08 1 .22 1 .39.97 1.39 1.78.92.75 1.97 1 2 .42h2l1.97-.42.92-.44 1.39-1.25.39-.84.33-1.97z" class="colorc7a559 svgShape colorf7bf42"/><path fill="#fff" d="m102 200 1 1-1-1m15 0 1 1-1-1z" class="color695626 svgShape colorfff"/><path fill="#f7bf42" d="m114 204 1.5.44.56-.16 1-.17 1.94-.61 2-.08 1.89.86 1.33 1.25.78 1.47h-3.06l-1.94.03-1.97.22-.95.25-1.58 1-1 1.58-.33 1.92.33 1.92 1 1.58.75.56.83.44 1.92.42 2 .02 1-.08 2-.08 1.94.08.56.08 1.5.06v-6l-.03-2-.05-1-.34-2-.3-1-.92-1.89-.67-.8-.8-.67-1.89-.92-2-.47-1-.08-2 .3-1.89.81-.78.53-.97.97L114 204z" class="colorc7a559 svgShape colorf7bf42"/><path fill="#fff" d="M122.67 200.33v.34h.66l-.33-.34h-.33M145 200v3l.69-.75v-1.5L145 200z" class="color695626 svgShape colorfff"/><path fill="#f7bf42" d="M154 200v17h3v-17h-3z" class="colorc7a559 svgShape colorf7bf42"/><path fill="#fff" d="m163 200 1 1-1-1z" class="color695626 svgShape colorfff"/><path fill="#f7bf42" d="m164 200 .25 1.5.17.56.27 1 .7 1.94.86 2 .53 1 .44 1 .53 1 .42 1 .44 1 .81 1.97.5.92 1.27 1.39.84.39 1.97.33.28-1.5.58-1.56.39-.94.53-1 .44-1 .56-1 .44-1 .53-1 .42-1 .44-1 .78-2 .8-1.94.31-.56.5-1.5-1.97.33-.84.39-1.27 1.39-.5.92-.81 1.97-.44 1-.42 1-.94 1.94-.59 1-.22.56-1 1.5-.5-1.5-.33-.56-.42-1-.53-.94-.97-2-.42-1-.44-1-.72-1.94-.23-.56-.44-1.5h-3z" class="colorc7a559 svgShape colorf7bf42"/><path fill="#fff" d="m177 200 1 1-1-1m13 0 1 1-1-1z" class="color695626 svgShape colorfff"/><path fill="#f7bf42" d="m199 212-1.5.67-.56.3-1.94.7-1 .11-1.94-.45-1-.61L189 211l1.5-.25 1.56-.36.94-.2 2-.38 1-.2 1-.22 1.94-.31L201 209l-.08-2.06-.42-1.94-1-1.92-1.58-1.58-1.92-1-2-.39h-1l-2 .39-1.97 1-.95.75-.83.83-.75.95-1 1.97-.25 1-.14 2 .39 2 1 1.97.75.95 1.78 1.58 1.97 1 1 .25 1 .17h2l1.97-.42.92-.44 1.33-1.25.39-1.34L199 212z" class="colorc7a559 svgShape colorf7bf42"/><path fill="#fff" d="m196 200 1 1-1-1m37 0 1 1-1-1z" class="color695626 svgShape colorfff"/><path fill="#f7bf42" d="m246 200.5-1.92 1-1.58 1.58-1 1.92-.25 1-.17 1-.05 2 .05 1 .42 2 .44.97.56.95.75.83.83.75 1.92 1 2 .42 1 .02 2-.19 1-.25 1.92-1 1.58-1.58 1-1.92.25-1 .17-1 .05-2-.05-1-.42-2-.44-.97-.56-.92-1.58-1.42-1.92-.8-1-.25-1-.25-2-.22-1 .11-1 .22z" class="colorc7a559 svgShape colorf7bf42"/><path fill="#fff" d="M250.67 200.33v.34h.66l-.33-.34h-.33M265 200v17l.72-.78.03-.53.19-.8.03-.92.03-.97v-8l-.03-1.97-.03-.92-.19-.8-.03-.53-.72-.78z" class="color695626 svgShape colorfff"/><path fill="#f7bf42" d="M266 200v16h2v-3.06l.08-1.94.34-2 .69-2 1.2-1.89 1.72-1.39.91-.39 1.56-.3 1.5-.03.5 1.5.31.56.72 1.94.22 1 .17 1 .08 2v6h3v-9l-.17-1-.16-1-.67-2-.5-1-1.5-1.67-2-1-1-.16-1-.17h-1l-2 .33-1 .5-1.5.34-.5-.34-.83-.66L266 200z" class="colorc7a559 svgShape colorf7bf42"/><path fill="#fff" d="M268.33 200.67v.33l.34.33v-.66h-.34M270 200l1 1-1-1m6 0 1 1-1-1m22 0v3l.69-.75v-1.5L298 200z" class="color695626 svgShape colorfff"/><path fill="#f7bf42" d="M307 200v17h3v-6l.08-2 .42-2 1-1.89.69-.78 1.34-.97L315 203v-2l-1-1-1.75.67-.53.19L311 202l-1.08-1.14-1.14-.58-.36-.17L307 200z" class="colorc7a559 svgShape colorf7bf42"/><path fill="#f7bf42" d="M314 200v1l1 2 .72-.72.03-.53.25-1.75h-2z" class="colorbecf60 svgShape colorf7bf42"/><path fill="#fff" d="m326 200 1 1-1-1z" class="color695626 svgShape colorfff"/><path fill="#f7bf42" d="m323 205 1.5-.33.56-.28 1.94-.78 2-.39 1.89.5 1.39 1.34.72 1.94h-2.06l-1.94.03-1 .05-2 .42-.97.44-1.7 1.31-.61.83-.5 1.92.14 1 .36.97.61.92 1.7 1.39 1.97.61 2 .05 1-.08 2-.08 1.94.08.56.08 1.5.06v-9l-.08-2-.42-1.97-.44-.92-.56-.8-.75-.67-1.78-.92-.97-.3-2-.25-2 .25-1.89.69-1.39 1.14-.39.81L323 205z" class="colorc7a559 svgShape colorf7bf42"/><path fill="#fff" d="M331.67 200.33v.34h.66v-.34h-.66M349 200l1 1-1-1z" class="color695626 svgShape colorfff"/><path fill="#f7bf42" d="m359 213-1-1h-2l-1.5 1.14-1.56.58-.88.17-1.56.11H349l-.5-1.5-.31-.56-.69-1.94-.17-1 .2-1.97.97-1.78 1.58-1.31 1.92-.58 1 .03 2 .58.94.36 1 .11.56.17 1.5-.61-.78-1.42-.53-.39-.8-.75-1.89-.94-1-.25-1-.14-2 .14-1 .25-1.97 1-1.78 1.58-.75.95-1 1.97-.39 2v1l.36 2 .39.97 1 1.78.61.78.78.61 1.78 1 .97.39 2 .36h1l2-.39 1.89-.94.8-.75.53-.39.78-1.42z" class="colorc7a559 svgShape colorf7bf42"/><path fill="#fff" d="m355 200 1 1-1-1m9 0v3l.69-.75v-1.5L364 200z" class="color695626 svgShape colorfff"/><path fill="#f7bf42" d="M384 200v17h3v-17h-3z" class="colorc7a559 svgShape colorf7bf42"/><path fill="#fff" d="M396 200v17l.72-.78.03-.53.19-.8.03-.92.03-.97v-8l-.03-1.97-.03-.92-.19-.8-.03-.53-.72-.78z" class="color695626 svgShape colorfff"/><path fill="#f7bf42" d="M397 200v17h3v-6l.03-2 .08-1 .22-1 .39-.97 1.39-1.7 1.89-.89h1l.97.31.92.58.78.78 1 1.89.3 2 .03 2v6h3v-7l-.08-2-.34-2-.69-1.97-.53-.95-1.47-1.58-1.89-1-1-.25-2-.17-2 .09-1 .05-1.94-.08-.56-.08-1.5-.06z" class="colorc7a559 svgShape colorf7bf42"/><path fill="#fff" d="m401 200 1 1-1-1m6 0 1 1-1-1z" class="color695626 svgShape colorfff"/><path fill="#f7bf42" d="m434 215-.53 1.47-.97 1.34-1.58 1.25-.95.44-1.97.31-2-.42-1.94-.72-1-.11-.56-.17-1.5.61.78 1.39 1.33 1.03 1.89.86 1 .3 2 .25 2-.25 1.97-.61.95-.39 1.58-1.08 1.08-1.58.73-1.92.27-1 .34-2 .05-1 .03-1v-12l-1.39.11-.94.56-.31.19L434 202l-1.5-.81-.56-.16-1.94-.61-2-.31-2 .2-1 .33-1.92 1.08-1.58 1.5-.56.86-.44.95-.42 1.97v2l.42 2 1 1.97 1.58 1.7 1.92 1 2 .3 1 .03 2-.08 1.94-.34L434 215z" class="colorc7a559 svgShape colorf7bf42"/><path fill="#fff" d="m430.67 200.33.33.34h.33v-.34h-.66m2.66.34v.66h.34v-.66h-.34M115 201l1 1-1-1m10 0 1 1-1-1m42 0 1 1-1-1m13 0 1 1-1-1m8 0 1 1-1-1m28 0 1 1-1-1m62 0 1 1-1-1m32 0 1 1-1-1m37 0 1 1-1-1m10 0 1 1-1-1m52 0 1 1-1-1m14 0 1 1-1-1m-330 1 1 1-1-1m12 0 1 1-1-1m21 0 1 1-1-1m38 0 1 1-1-1m12 0 1 1-1-1m11 0 1 1-1-1m32 0 1 1-1-1m103.33.67v.66h.34v-.66h-.34M346 202l1 1-1-1m12 0 1 1-1-1m52 0 1 1-1-1m-328 1 1 1-1-1m15 0 1 1-1-1z" class="color695626 svgShape colorfff"/><path fill="#fff" d="m95 208 1.5-.08.56-.14 1-.17.94-.25 1-.22 1.89-.56.8-.44.53-.17.78-.97-1.5-.97-.56-.17-1.94-.53h-1l-1.89.61-1.39 1.25-.39.84L95 208z" class="color050101 svgShape colorfff"/><path fill="#fff" d="m101 203 1 1-1-1m17 0 1 1-1-1m19 0v10l.72-.78.03-.53.19-.8.03-.92.03-1.97-.03-1.97-.03-.92-.19-.8-.03-.53-.72-.78m42 0 1 1-1-1m7 0 1 1-1-1m5 0 1 1-1-1z" class="color695626 svgShape colorfff"/><path fill="#fff" d="m189 208 1.5-.08.56-.14 1.94-.39 1.94-.31L197 207l-.33-1.81-.39-.75-1.39-.91-.92-.2H193l-.97.2-1.7.97-.61.69-.39.84L189 208z" class="color050101 svgShape colorfff"/><path fill="#fff" d="m195 203 1 1-1-1z" class="color695626 svgShape colorfff"/><path fill="#fff" d="m247.03 203.75-1.7 1.36-.61.92-.39.97-.22 2 .39 1.92 1 1.58.75.56.83.44 1.92.33 1.92-.33 1.58-1 1-1.58.39-1.92-.03-1-.58-1.92-1.39-1.58-.92-.56-.97-.41-1-.17-1.97.39z" class="color050101 svgShape colorfff"/><path fill="#fff" d="M250.67 203.33v.34h.66l-.33-.34h-.33M275 203l1 1-1-1m15 0v10l.72-.78.03-.53.19-.8.03-.92.03-1.97-.03-1.97-.03-.92-.19-.8-.03-.53-.72-.78m22 0 1 1-1-1m14 0 1 1-1-1m5 0 1 1-1-1m4 0 1 1-1-1m10 0 1 1-1-1m9 0 1 1-1-1m16 0v10l.72-.78.03-.53.19-.8.03-.92.03-1.97-.03-1.97-.03-.92-.19-.8-.03-.53-.72-.78m35.67.33v.34h.66v-.34h-.66z" class="color695626 svgShape colorfff"/><path fill="#fff" d="M425 213h2.06l1-.03.94-.08 1.89-.61 1.39-1.39.61-1.89.08-.94.03-1V205l-1.5-.97-.56-.17-1-.42-1.94-.25-1.97.53-.92.61-.78.78-.61.92-.53 1.97.25 1.94.42 1L425 213z" class="color050101 svgShape colorfff"/><path fill="#fff" d="m430 203 1 1-1-1m-378 1v4l.72-.78v-.5l.17-.72-.17-1.22L52 204m54 0 1 1-1-1m10 0 1 1-1-1m11.33.67v.66h.34v-.66h-.34M168 204l1 1-1-1m32 0 1 1-1-1m15 0v4l.72-.78v-.5l.17-.72-.17-1.22-.72-.78m3 0v4l.72-.78v-.5l.17-.72-.17-1.22-.72-.78m23 0 1 1-1-1m4 0 1 1-1-1m7 0 1 1-1-1m4 0 1 1-1-1m24.33.67v.33l.34.33v-.66h-.34M311 204l1 1-1-1m21 0v3l.69-.75v-1.5L332 204m16 0 1 1-1-1m10 0 1 1-1-1m53.33.67v.66h.34v-.66h-.34M420 204l1 1-1-1m4 0 1 1-1-1m-344 1 1 1-1-1m44.33.67v.66h.34v-.66h-.34M165 205l1 1-1-1m10 0 1 1-1-1m10 0 1 1-1-1m12.33.67v.66h.34V206l-.34-.33M244 205l1 1-1-1m9 0 1 1-1-1m91 0 1 1-1-1m64.33.67v.66h.34v-.66h-.34M423 205l1 1-1-1m-332 1v5l.72-.78.03-.53.17-1.61-.17-.77-.03-.53L91 206m11.67.33v.34h.66v-.34h-.66M107 206v3l.69-.75v-1.5L107 206m62 0 1 1-1-1m19.33.67v.66h.34V207l-.34-.33M201 206v3l.69-.75v-1.5L201 206m39 0v5l.72-.78.03-.53.17-.77-.17-1.61-.03-.53-.72-.78m17 0v4l.72-.78v-.5l.17-.72-.17-1.22-.72-.78m20 0v11l.72-.78.03-.53.19-.8.03-.92.03-.97v-2l-.03-1.97-.03-.92-.19-.8-.03-.53-.72-.78m156 0v4l.72-.78.17-1.22-.17-.72v-.5L433 206m-339 1 1 1-1-1m4.67.33v.34h.66v-.34h-.66M116 207l1 1-1-1m50 0 1 1-1-1m8 0 1 1-1-1m18.67.33v.34h.66v-.34h-.66M325 207l1 1-1-1m-276 1 1 1-1-1m121 0 1 1-1-1m7 0 1 1-1-1m91 0v9l.72-.78.03-.53.19-.8.03-.92.03-1.97-.06-1.89-.19-.8-.03-.53-.72-.78m55 0 1 1-1-1m-220.33 1.33v.34h.66v-.34h-.66M114 209l1 1-1-1m53 0 1 1-1-1m6 0 1 1-1-1m23.67.33v.34h.66l-.33-.34h-.33M219 209l1 1-1-1m103 0 1 1-1-1m25.33.67v.66h.34v-.66h-.34m-249.66.66v.34h.66l-.33-.34h-.33M117 210l1 1-1-1z" class="color695626 svgShape colorfff"/><path fill="#fff" d="M117 211v2l1 1h1.5l1.53-.11.86-.22 1.39-.95.61-1.25.11-1.47h-2.06l-1 .03-.88.03-1 .19-.56.03-1.5.72z" class="color050101 svgShape colorfff"/><path fill="#fff" d="M124.33 210.67v.66h.34v-.66h-.34M171 210l1 1-1-1m5 0 1 1-1-1m15.67.33v.34h.66l-.33-.34h-.33M216 210l1 1-1-1m109 0 1 1-1-1z" class="color695626 svgShape colorfff"/><path fill="#fff" d="M325 211v2l1 1h1.5l1.56-.11.91-.22 1.7-.95.97-1.25.36-1.47h-3.06l-.94.03-.94.03-1 .19-.56.03-1.5.72z" class="color050101 svgShape colorfff"/><path fill="#fff" d="m423 210 1 1-1-1m-373 1 1 1-1-1m4 0 1 1-1-1m114 0 1 1-1-1m4 0 1 1-1-1m13 0 1 1-1-1m35 0 1 1-1-1m13 0 1 1-1-1m11 0 1 1-1-1m9 0 1 1-1-1m91 0 1 1-1-1m76 0 1 1-1-1m12 0 1 1-1-1m-377 1 1 1-1-1m10 0 1 1-1-1m110 0 1 1-1-1m24 0 1 1-1-1m18 0 1 1-1-1m14 0 1 1-1-1m3 0 1 1-1-1m7 0 1 1-1-1m15 0 1 1-1-1m92 0 1 1-1-1m10 0 1 1-1-1m73 0 1 1-1-1m-374 1 1 1-1-1m6 0 1 1-1-1m34 0 1 1-1-1m5 0 1 1-1-1m4.33.67v.66h.34v-.66h-.34M117 213l1 1-1-1m27.67.33.33.34h.33l-.33-.34h-.33M186 213l1 1-1-1m5 0 1 1-1-1m5 0 1 1-1-1m27 0 1 1-1-1m23 0 1 1-1-1m5 0 1 1-1-1m46.67.33.33.34h.33l-.33-.34h-.33M331 213l1 1-1-1m14 0 1 1-1-1m4 0 1 1-1-1m18 0 1 1-1-1m7.67.33.33.34h.33v-.34h-.66M421 213l1 1-1-1m6 0 .72.72.53.03 1.75.25-.72-.72-.53-.03L427 213m-334 1 1 1-1-1m21 0 1 1-1-1m60 0 1 1-1-1m13 0 1 1-1-1m32 0 1 1-1-1m15 0 1 1-1-1m21 0 1 1-1-1m67 0 1 1-1-1m36 0 1 1-1-1m64 0 1 1-1-1m-368 1 1 1-1-1m40 0 1 1-1-1m11 0 1 1-1-1m33 0 1 1-1-1m8 0 1 1-1-1m42 0 1 1-1-1m32 0 1 1-1-1m71 0 1 1-1-1m8 0 1 1-1-1m24 0 1 1-1-1m24 0 1 1-1-1m10 0 1 1-1-1m11 0 1 1-1-1m64 0v1l2 1v-2h-2m-376 1 1 1-1-1m8 0 1 1-1-1m32 0 1 1-1-1m7 0 1 1-1-1m13 0 1 1-1-1m23 0 1 1-1-1m6 0 1 1-1-1m25 0 1 1-1-1m20 0 1 1-1-1m7 0 1 1-1-1m25 0 1 1-1-1m8 0 1 1-1-1m15 0 1 1-1-1m7 0 1 1-1-1z" class="color695626 svgShape colorfff"/><path fill="#f7bf42" d="m266.67 216.33.33.34h.33v-.34h-.66z" class="colorbecf60 svgShape colorf7bf42"/><path fill="#fff" d="m292 216 1 1-1-1m6 0 1 1-1-1m33 0 1 1-1-1m17.67.33v.34h.66v-.34h-.66M355 216l1 1-1-1m14 0 1 1-1-1m6 0 1 1-1-1m51 0 .78.72.47.03.81.19 1.94.06-.78-.72-.47-.03-.81-.19L426 216m10.33.67v.66h.34v-.66h-.34M422 217l1 1-1-1m-1 1 1 1-1-1m11 0 1 1-1-1m-12 1 1 1-1-1m5 0 1 1-1-1m5 0 1 1-1-1m5 0 1 1-1-1m-14 1 1 1-1-1m1 1 1 1-1-1m11 0 1 1-1-1m-8 1 1 1-1-1m5.67.33.33.34h.33v-.34h-.66z" class="color695626 svgShape colorfff"/></svg></svg></svg>